%TF.GenerationSoftware,KiCad,Pcbnew,6.0.6*%
%TF.CreationDate,2022-07-20T10:20:16+02:00*%
%TF.ProjectId,H_vfTimer,48e47666-5469-46d6-9572-2e6b69636164,rev?*%
%TF.SameCoordinates,Original*%
%TF.FileFunction,Copper,L1,Top*%
%TF.FilePolarity,Positive*%
%FSLAX46Y46*%
G04 Gerber Fmt 4.6, Leading zero omitted, Abs format (unit mm)*
G04 Created by KiCad (PCBNEW 6.0.6) date 2022-07-20 10:20:16*
%MOMM*%
%LPD*%
G01*
G04 APERTURE LIST*
G04 Aperture macros list*
%AMRoundRect*
0 Rectangle with rounded corners*
0 $1 Rounding radius*
0 $2 $3 $4 $5 $6 $7 $8 $9 X,Y pos of 4 corners*
0 Add a 4 corners polygon primitive as box body*
4,1,4,$2,$3,$4,$5,$6,$7,$8,$9,$2,$3,0*
0 Add four circle primitives for the rounded corners*
1,1,$1+$1,$2,$3*
1,1,$1+$1,$4,$5*
1,1,$1+$1,$6,$7*
1,1,$1+$1,$8,$9*
0 Add four rect primitives between the rounded corners*
20,1,$1+$1,$2,$3,$4,$5,0*
20,1,$1+$1,$4,$5,$6,$7,0*
20,1,$1+$1,$6,$7,$8,$9,0*
20,1,$1+$1,$8,$9,$2,$3,0*%
G04 Aperture macros list end*
%TA.AperFunction,SMDPad,CuDef*%
%ADD10R,0.500000X2.000000*%
%TD*%
%TA.AperFunction,SMDPad,CuDef*%
%ADD11R,2.000000X1.700000*%
%TD*%
%TA.AperFunction,SMDPad,CuDef*%
%ADD12R,1.550000X1.300000*%
%TD*%
%TA.AperFunction,SMDPad,CuDef*%
%ADD13RoundRect,0.225000X0.225000X0.250000X-0.225000X0.250000X-0.225000X-0.250000X0.225000X-0.250000X0*%
%TD*%
%TA.AperFunction,SMDPad,CuDef*%
%ADD14RoundRect,0.225000X-0.250000X0.225000X-0.250000X-0.225000X0.250000X-0.225000X0.250000X0.225000X0*%
%TD*%
%TA.AperFunction,SMDPad,CuDef*%
%ADD15RoundRect,0.200000X0.200000X0.275000X-0.200000X0.275000X-0.200000X-0.275000X0.200000X-0.275000X0*%
%TD*%
%TA.AperFunction,SMDPad,CuDef*%
%ADD16RoundRect,0.200000X0.275000X-0.200000X0.275000X0.200000X-0.275000X0.200000X-0.275000X-0.200000X0*%
%TD*%
%TA.AperFunction,SMDPad,CuDef*%
%ADD17R,4.500000X2.000000*%
%TD*%
%TA.AperFunction,ComponentPad*%
%ADD18R,1.500000X1.500000*%
%TD*%
%TA.AperFunction,ComponentPad*%
%ADD19C,1.500000*%
%TD*%
%TA.AperFunction,SMDPad,CuDef*%
%ADD20RoundRect,0.218750X-0.218750X-0.256250X0.218750X-0.256250X0.218750X0.256250X-0.218750X0.256250X0*%
%TD*%
%TA.AperFunction,SMDPad,CuDef*%
%ADD21RoundRect,0.200000X-0.275000X0.200000X-0.275000X-0.200000X0.275000X-0.200000X0.275000X0.200000X0*%
%TD*%
%TA.AperFunction,ComponentPad*%
%ADD22R,1.700000X1.700000*%
%TD*%
%TA.AperFunction,ComponentPad*%
%ADD23O,1.700000X1.700000*%
%TD*%
%TA.AperFunction,SMDPad,CuDef*%
%ADD24R,0.550000X1.600000*%
%TD*%
%TA.AperFunction,SMDPad,CuDef*%
%ADD25R,1.600000X0.550000*%
%TD*%
%TA.AperFunction,SMDPad,CuDef*%
%ADD26RoundRect,0.218750X0.218750X0.256250X-0.218750X0.256250X-0.218750X-0.256250X0.218750X-0.256250X0*%
%TD*%
%TA.AperFunction,SMDPad,CuDef*%
%ADD27RoundRect,0.225000X-0.225000X-0.250000X0.225000X-0.250000X0.225000X0.250000X-0.225000X0.250000X0*%
%TD*%
%TA.AperFunction,SMDPad,CuDef*%
%ADD28RoundRect,0.200000X-0.200000X-0.275000X0.200000X-0.275000X0.200000X0.275000X-0.200000X0.275000X0*%
%TD*%
%TA.AperFunction,ComponentPad*%
%ADD29RoundRect,0.250001X-0.799999X-0.799999X0.799999X-0.799999X0.799999X0.799999X-0.799999X0.799999X0*%
%TD*%
%TA.AperFunction,ComponentPad*%
%ADD30C,2.100000*%
%TD*%
%TA.AperFunction,SMDPad,CuDef*%
%ADD31RoundRect,0.150000X0.825000X0.150000X-0.825000X0.150000X-0.825000X-0.150000X0.825000X-0.150000X0*%
%TD*%
%TA.AperFunction,SMDPad,CuDef*%
%ADD32R,2.290000X3.000000*%
%TD*%
%TA.AperFunction,ViaPad*%
%ADD33C,1.000000*%
%TD*%
%TA.AperFunction,Conductor*%
%ADD34C,0.400000*%
%TD*%
%TA.AperFunction,Conductor*%
%ADD35C,0.250000*%
%TD*%
G04 APERTURE END LIST*
D10*
X120320000Y-129380000D03*
X121120000Y-129380000D03*
X121920000Y-129380000D03*
X122720000Y-129380000D03*
X123520000Y-129380000D03*
D11*
X117470000Y-134930000D03*
X126370000Y-134930000D03*
X126370000Y-129480000D03*
X117470000Y-129480000D03*
D12*
X144285000Y-49455000D03*
X136335000Y-49455000D03*
X144285000Y-53955000D03*
X136335000Y-53955000D03*
D13*
X107185000Y-106830000D03*
X105635000Y-106830000D03*
D14*
X130635000Y-103005000D03*
X130635000Y-104555000D03*
D15*
X133435000Y-130855000D03*
X131785000Y-130855000D03*
D16*
X121185000Y-103280000D03*
X121185000Y-101630000D03*
D15*
X128335000Y-106605000D03*
X126685000Y-106605000D03*
D17*
X106660000Y-102330000D03*
X115160000Y-102330000D03*
D18*
X107838500Y-67310000D03*
D19*
X107838500Y-69850000D03*
X107838500Y-72390000D03*
X107838500Y-74930000D03*
X107838500Y-77470000D03*
X107838500Y-80010000D03*
X123078500Y-80010000D03*
X123078500Y-77470000D03*
X123078500Y-74930000D03*
X123078500Y-72390000D03*
X123078500Y-69850000D03*
X123078500Y-67310000D03*
D16*
X130610000Y-109855000D03*
X130610000Y-108205000D03*
D15*
X126410000Y-110455000D03*
X124760000Y-110455000D03*
D20*
X115972500Y-126480000D03*
X114397500Y-126480000D03*
D21*
X136210000Y-123355000D03*
X136210000Y-125005000D03*
D15*
X140185000Y-125755000D03*
X138535000Y-125755000D03*
D13*
X116185000Y-106830000D03*
X114635000Y-106830000D03*
D12*
X136385000Y-131205000D03*
X144335000Y-131205000D03*
X136385000Y-135705000D03*
X144335000Y-135705000D03*
D22*
X105933000Y-133863000D03*
D23*
X105933000Y-131323000D03*
X108473000Y-133863000D03*
X108473000Y-131323000D03*
X111013000Y-133863000D03*
X111013000Y-131323000D03*
D21*
X138660000Y-105580000D03*
X138660000Y-107230000D03*
D24*
X117210000Y-112580000D03*
X116410000Y-112580000D03*
X115610000Y-112580000D03*
X114810000Y-112580000D03*
X114010000Y-112580000D03*
X113210000Y-112580000D03*
X112410000Y-112580000D03*
X111610000Y-112580000D03*
D25*
X110160000Y-114030000D03*
X110160000Y-114830000D03*
X110160000Y-115630000D03*
X110160000Y-116430000D03*
X110160000Y-117230000D03*
X110160000Y-118030000D03*
X110160000Y-118830000D03*
X110160000Y-119630000D03*
D24*
X111610000Y-121080000D03*
X112410000Y-121080000D03*
X113210000Y-121080000D03*
X114010000Y-121080000D03*
X114810000Y-121080000D03*
X115610000Y-121080000D03*
X116410000Y-121080000D03*
X117210000Y-121080000D03*
D25*
X118660000Y-119630000D03*
X118660000Y-118830000D03*
X118660000Y-118030000D03*
X118660000Y-117230000D03*
X118660000Y-116430000D03*
X118660000Y-115630000D03*
X118660000Y-114830000D03*
X118660000Y-114030000D03*
D26*
X121147500Y-105180000D03*
X119572500Y-105180000D03*
D27*
X118210000Y-124480000D03*
X119760000Y-124480000D03*
D28*
X131945000Y-106830000D03*
X133595000Y-106830000D03*
D15*
X137155000Y-58005000D03*
X135505000Y-58005000D03*
D29*
X133585000Y-92230000D03*
D30*
X138185000Y-92230000D03*
D31*
X142685000Y-118085000D03*
X142685000Y-116815000D03*
X142685000Y-115545000D03*
X142685000Y-114275000D03*
X137735000Y-114275000D03*
X137735000Y-115545000D03*
X137735000Y-116815000D03*
X137735000Y-118085000D03*
D32*
X140210000Y-116180000D03*
D15*
X112360000Y-126505000D03*
X110710000Y-126505000D03*
D33*
X124685000Y-108205000D03*
X140285000Y-112380000D03*
X125860000Y-126505000D03*
X133785000Y-133380000D03*
X112885000Y-123630000D03*
X137885000Y-108905000D03*
X129960000Y-106655000D03*
X143885000Y-122630000D03*
X116485000Y-124680000D03*
X125760000Y-114505000D03*
X126610000Y-120605000D03*
X129410000Y-127580000D03*
X145160000Y-115505000D03*
X133160000Y-104905000D03*
X145285000Y-107230000D03*
X135910000Y-107330000D03*
X107785000Y-126980000D03*
X110435000Y-123580000D03*
X105660000Y-121580000D03*
X120510000Y-122780000D03*
X116360000Y-122980000D03*
X105710000Y-110005000D03*
X133585000Y-112905000D03*
X102260000Y-114205000D03*
X106960000Y-113780000D03*
X126235000Y-96430000D03*
X127210000Y-99205000D03*
X105660000Y-118580000D03*
X121223957Y-114391043D03*
X122935000Y-115005000D03*
X125710500Y-116530000D03*
X128910000Y-117605000D03*
X131110000Y-114355000D03*
X105785000Y-127280000D03*
X137585000Y-112130000D03*
X134085000Y-117180000D03*
D34*
X130410000Y-58830000D02*
X129980000Y-58400000D01*
X129980000Y-58400000D02*
X129980000Y-51260000D01*
X129980000Y-51260000D02*
X131785000Y-49455000D01*
X131785000Y-49455000D02*
X136335000Y-49455000D01*
X130410000Y-58830000D02*
X130035000Y-59205000D01*
X130035000Y-59205000D02*
X130035000Y-100148573D01*
X130035000Y-100148573D02*
X117603573Y-112580000D01*
X117603573Y-112580000D02*
X117210000Y-112580000D01*
X137155000Y-58005000D02*
X137155000Y-59030000D01*
X137155000Y-59030000D02*
X138108000Y-59983000D01*
X138108000Y-59983000D02*
X138108000Y-92153000D01*
X138108000Y-92153000D02*
X138185000Y-92230000D01*
X130410000Y-58830000D02*
X134680000Y-58830000D01*
X134680000Y-58830000D02*
X135505000Y-58005000D01*
X115347500Y-109192500D02*
X114010000Y-110530000D01*
X110710000Y-125805000D02*
X112885000Y-123630000D01*
X116185000Y-106830000D02*
X116185000Y-108355000D01*
X116485000Y-124680000D02*
X114810000Y-123005000D01*
X115610000Y-109455000D02*
X115347500Y-109192500D01*
X110710000Y-126505000D02*
X110710000Y-125805000D01*
X116485000Y-124680000D02*
X116685000Y-124480000D01*
X116685000Y-124480000D02*
X118210000Y-124480000D01*
X114010000Y-110530000D02*
X114010000Y-112580000D01*
X115610000Y-112580000D02*
X115610000Y-109455000D01*
X116185000Y-108355000D02*
X115347500Y-109192500D01*
X114810000Y-123005000D02*
X114810000Y-121080000D01*
X126610000Y-121130000D02*
X133435000Y-127955000D01*
D35*
X129410000Y-127580000D02*
X129410000Y-127705000D01*
D34*
X126610000Y-120605000D02*
X126610000Y-121130000D01*
X130160000Y-127580000D02*
X133435000Y-130855000D01*
X126501427Y-120713573D02*
X126610000Y-120605000D01*
X136385000Y-131205000D02*
X144335000Y-131205000D01*
X133785000Y-131205000D02*
X133435000Y-130855000D01*
X129410000Y-127580000D02*
X130160000Y-127580000D01*
X136385000Y-131205000D02*
X133785000Y-131205000D01*
X133435000Y-127955000D02*
X133435000Y-130855000D01*
X123835000Y-116430000D02*
X118660000Y-116430000D01*
X125760000Y-114505000D02*
X123835000Y-116430000D01*
X115160000Y-102330000D02*
X115160000Y-106760000D01*
X112410000Y-112580000D02*
X112410000Y-109510000D01*
X112410000Y-109510000D02*
X115090000Y-106830000D01*
D35*
X115160000Y-106760000D02*
X115090000Y-106830000D01*
D34*
X106730000Y-107700000D02*
X111610000Y-112580000D01*
X106730000Y-106830000D02*
X106730000Y-107700000D01*
X106660000Y-102330000D02*
X106660000Y-106760000D01*
D35*
X106660000Y-106760000D02*
X106730000Y-106830000D01*
D34*
X130635000Y-103005000D02*
X130635000Y-99105000D01*
X133585000Y-96155000D02*
X133585000Y-92230000D01*
X130285000Y-103005000D02*
X126685000Y-106605000D01*
X130635000Y-99105000D02*
X133585000Y-96155000D01*
X130635000Y-103005000D02*
X130285000Y-103005000D01*
D35*
X138560000Y-107330000D02*
X138660000Y-107230000D01*
D34*
X130635000Y-104555000D02*
X132810000Y-104555000D01*
X135910000Y-107330000D02*
X138560000Y-107330000D01*
X132810000Y-104555000D02*
X133160000Y-104905000D01*
X145160000Y-115505000D02*
X145120000Y-115545000D01*
X138660000Y-107230000D02*
X145285000Y-107230000D01*
X133595000Y-105340000D02*
X133160000Y-104905000D01*
X145120000Y-115545000D02*
X142685000Y-115545000D01*
X133595000Y-106830000D02*
X133595000Y-105340000D01*
X112360000Y-126505000D02*
X114372500Y-126505000D01*
X114372500Y-126505000D02*
X114397500Y-126480000D01*
X116410000Y-112580000D02*
X116410000Y-111003828D01*
X119572500Y-107841328D02*
X119572500Y-105180000D01*
X116410000Y-111003828D02*
X119572500Y-107841328D01*
X121147500Y-105180000D02*
X121147500Y-103317500D01*
X121147500Y-103317500D02*
X121185000Y-103280000D01*
X108910000Y-120580000D02*
X109860000Y-119630000D01*
X108910000Y-125855000D02*
X108910000Y-120580000D01*
X107785000Y-126980000D02*
X108910000Y-125855000D01*
D35*
X109860000Y-119630000D02*
X110160000Y-119630000D01*
D34*
X111610000Y-122405000D02*
X111610000Y-121080000D01*
X110435000Y-123580000D02*
X111610000Y-122405000D01*
X108410000Y-118830000D02*
X110160000Y-118830000D01*
X105660000Y-121580000D02*
X108410000Y-118830000D01*
X118910000Y-122780000D02*
X117210000Y-121080000D01*
X120510000Y-122780000D02*
X118910000Y-122780000D01*
X116410000Y-122830000D02*
X116410000Y-121080000D01*
X116360000Y-122980000D02*
X116360000Y-122880000D01*
X116360000Y-122880000D02*
X116410000Y-122830000D01*
X105710000Y-110555000D02*
X109210000Y-114055000D01*
X110135000Y-114055000D02*
X110160000Y-114030000D01*
X105710000Y-110005000D02*
X105710000Y-110555000D01*
X109210000Y-114055000D02*
X110135000Y-114055000D01*
X133585000Y-113780000D02*
X132210000Y-115155000D01*
X131288534Y-119651466D02*
X118681466Y-119651466D01*
X132210000Y-115155000D02*
X132210000Y-118730000D01*
X118681466Y-119651466D02*
X118660000Y-119630000D01*
X132210000Y-118730000D02*
X131288534Y-119651466D01*
X133585000Y-112905000D02*
X133585000Y-113780000D01*
X117470000Y-129480000D02*
X118462827Y-129480000D01*
X117470000Y-134930000D02*
X126370000Y-134930000D01*
X123352173Y-131505000D02*
X125377173Y-129480000D01*
X117470000Y-129480000D02*
X117470000Y-134930000D01*
X126370000Y-129480000D02*
X126370000Y-134930000D01*
X125377173Y-129480000D02*
X126370000Y-129480000D01*
X118462827Y-129480000D02*
X120487827Y-131505000D01*
X120487827Y-131505000D02*
X123352173Y-131505000D01*
X136335000Y-49455000D02*
X144285000Y-49455000D01*
X108010000Y-114830000D02*
X110160000Y-114830000D01*
X106960000Y-113780000D02*
X108010000Y-114830000D01*
X126135000Y-96530000D02*
X126235000Y-96430000D01*
X99710000Y-112130000D02*
X99710000Y-101080000D01*
X99710000Y-101080000D02*
X104260000Y-96530000D01*
X104260000Y-96530000D02*
X126135000Y-96530000D01*
X102260000Y-114205000D02*
X101785000Y-114205000D01*
X101785000Y-114205000D02*
X99710000Y-112130000D01*
X125887409Y-99229511D02*
X125162898Y-98505000D01*
X101060000Y-110207898D02*
X106482102Y-115630000D01*
X127210000Y-99205000D02*
X127185489Y-99229511D01*
X104660000Y-98505000D02*
X101060000Y-102105000D01*
X125162898Y-98505000D02*
X104660000Y-98505000D01*
X127185489Y-99229511D02*
X125887409Y-99229511D01*
X101060000Y-102105000D02*
X101060000Y-110207898D01*
X106482102Y-115630000D02*
X110160000Y-115630000D01*
X105660000Y-118580000D02*
X106210000Y-118030000D01*
X106210000Y-118030000D02*
X110160000Y-118030000D01*
X144220000Y-116815000D02*
X142685000Y-116815000D01*
X136210000Y-125005000D02*
X137785000Y-125005000D01*
X137785000Y-125005000D02*
X138535000Y-125755000D01*
X144735000Y-119555000D02*
X144735000Y-117330000D01*
X138535000Y-125755000D02*
X144735000Y-119555000D01*
X144735000Y-117330000D02*
X144220000Y-116815000D01*
X133535000Y-124680000D02*
X136635000Y-127780000D01*
X142685000Y-118085000D02*
X142685000Y-119455000D01*
X144085000Y-110980000D02*
X139060000Y-110980000D01*
X139060000Y-110980000D02*
X139060000Y-112950000D01*
X141210000Y-127780000D02*
X146485000Y-122505000D01*
X136210000Y-123355000D02*
X133535000Y-123355000D01*
X142685000Y-119455000D02*
X138785000Y-123355000D01*
X133535000Y-123355000D02*
X133535000Y-124680000D01*
X136635000Y-127780000D02*
X141210000Y-127780000D01*
X146485000Y-113380000D02*
X144085000Y-110980000D01*
X138785000Y-123355000D02*
X136210000Y-123355000D01*
X139060000Y-112950000D02*
X137735000Y-114275000D01*
X146485000Y-122505000D02*
X146485000Y-113380000D01*
X137252862Y-115545000D02*
X137735000Y-115545000D01*
X135385000Y-111230000D02*
X135685000Y-111530000D01*
X128660000Y-108205000D02*
X126410000Y-110455000D01*
X135685000Y-111530000D02*
X135685000Y-113977138D01*
X127185000Y-111230000D02*
X135385000Y-111230000D01*
X130610000Y-108205000D02*
X128660000Y-108205000D01*
X126410000Y-110455000D02*
X127185000Y-111230000D01*
X135685000Y-113977138D02*
X137252862Y-115545000D01*
X120785000Y-114830000D02*
X118660000Y-114830000D01*
X121223957Y-114391043D02*
X120785000Y-114830000D01*
X122935000Y-115005000D02*
X122310000Y-115630000D01*
X122310000Y-115630000D02*
X118660000Y-115630000D01*
X125010500Y-117230000D02*
X118660000Y-117230000D01*
X125710500Y-116530000D02*
X125010500Y-117230000D01*
X118660000Y-118030000D02*
X128485000Y-118030000D01*
X128485000Y-118030000D02*
X128910000Y-117605000D01*
X130660000Y-118830000D02*
X118660000Y-118830000D01*
X131185000Y-114430000D02*
X131185000Y-118305000D01*
X131185000Y-118305000D02*
X130660000Y-118830000D01*
X131110000Y-114355000D02*
X131185000Y-114430000D01*
X119160000Y-114030000D02*
X121260000Y-111930000D01*
X134785000Y-112130000D02*
X134785000Y-114347138D01*
X134785000Y-114347138D02*
X137252862Y-116815000D01*
X118660000Y-114030000D02*
X119160000Y-114030000D01*
X137252862Y-116815000D02*
X137735000Y-116815000D01*
X134585000Y-111930000D02*
X134785000Y-112130000D01*
X121260000Y-111930000D02*
X134585000Y-111930000D01*
X128185000Y-127755000D02*
X128185000Y-125355000D01*
X114810000Y-112580000D02*
X114810000Y-113630000D01*
X115972500Y-126542500D02*
X115972500Y-126480000D01*
X119760000Y-124480000D02*
X117760000Y-126480000D01*
X119760000Y-124480000D02*
X120635000Y-125355000D01*
X113210000Y-113580000D02*
X113210000Y-113380000D01*
X120635000Y-125355000D02*
X121715000Y-125355000D01*
X145410000Y-128930000D02*
X136185000Y-128930000D01*
X128185000Y-125355000D02*
X121715000Y-125355000D01*
X105785000Y-127280000D02*
X106935000Y-128430000D01*
X132085000Y-122655000D02*
X136655000Y-118085000D01*
X114735489Y-113704511D02*
X114735489Y-113804511D01*
X112410000Y-119105000D02*
X114010000Y-117505000D01*
X137585000Y-112030000D02*
X137585000Y-112130000D01*
X136655000Y-118085000D02*
X137735000Y-118085000D01*
X114010000Y-123780000D02*
X114010000Y-121080000D01*
X136185000Y-128930000D02*
X132085000Y-124830000D01*
X138185000Y-95405000D02*
X141635000Y-98855000D01*
X114735489Y-113804511D02*
X114085000Y-114455000D01*
X146385000Y-137830000D02*
X146385000Y-129905000D01*
X130610000Y-109855000D02*
X131892849Y-109855000D01*
X115972500Y-125742500D02*
X114010000Y-123780000D01*
X146385000Y-129905000D02*
X145410000Y-128930000D01*
X131785000Y-134330000D02*
X135285000Y-137830000D01*
X128185489Y-125355489D02*
X128185000Y-125355000D01*
X120320000Y-126750000D02*
X120320000Y-127740000D01*
X135410000Y-109855000D02*
X137460000Y-111905000D01*
D35*
X114810000Y-113630000D02*
X114735489Y-113704511D01*
D34*
X114085000Y-114480000D02*
X114085000Y-117430000D01*
X106935000Y-128430000D02*
X114085000Y-128430000D01*
X134990000Y-118085000D02*
X137735000Y-118085000D01*
X131892849Y-109855000D02*
X135410000Y-109855000D01*
X131785000Y-130855000D02*
X131285000Y-130855000D01*
X114085000Y-117430000D02*
X114010000Y-117505000D01*
X135285000Y-137830000D02*
X146385000Y-137830000D01*
X114085000Y-114455000D02*
X113210000Y-113580000D01*
X117760000Y-126480000D02*
X115972500Y-126480000D01*
X137460000Y-111905000D02*
X137585000Y-112030000D01*
X121715000Y-125355000D02*
X120320000Y-126750000D01*
X115972500Y-126480000D02*
X115972500Y-125742500D01*
X132085000Y-124830000D02*
X132085000Y-122655000D01*
X134085000Y-117180000D02*
X134990000Y-118085000D01*
X131785000Y-130855000D02*
X131785000Y-134330000D01*
X120310000Y-127730000D02*
X120320000Y-127740000D01*
X112410000Y-121080000D02*
X112410000Y-119105000D01*
X138185000Y-92230000D02*
X138185000Y-95405000D01*
X114010000Y-117505000D02*
X114010000Y-121080000D01*
X120320000Y-127740000D02*
X120320000Y-129380000D01*
X114085000Y-128430000D02*
X115972500Y-126542500D01*
X141635000Y-104855000D02*
X140910000Y-105580000D01*
X131285000Y-130855000D02*
X128185000Y-127755000D01*
X141635000Y-98855000D02*
X141635000Y-104855000D01*
D35*
X113210000Y-113380000D02*
X113210000Y-112580000D01*
D34*
X131892849Y-109855000D02*
X136167849Y-105580000D01*
X136167849Y-105580000D02*
X138660000Y-105580000D01*
X140910000Y-105580000D02*
X138660000Y-105580000D01*
%TA.AperFunction,Conductor*%
G36*
X146753621Y-47010502D02*
G01*
X146800114Y-47064158D01*
X146811500Y-47116500D01*
X146811500Y-112400339D01*
X146791498Y-112468460D01*
X146737842Y-112514953D01*
X146667568Y-112525057D01*
X146602988Y-112495563D01*
X146596405Y-112489434D01*
X144606442Y-110499472D01*
X144600588Y-110493206D01*
X144567556Y-110455340D01*
X144567553Y-110455337D01*
X144562561Y-110449615D01*
X144510280Y-110412871D01*
X144504986Y-110408939D01*
X144464977Y-110377568D01*
X144454718Y-110369524D01*
X144447802Y-110366401D01*
X144445516Y-110365017D01*
X144430835Y-110356643D01*
X144428475Y-110355378D01*
X144422261Y-110351010D01*
X144415182Y-110348250D01*
X144415180Y-110348249D01*
X144372597Y-110331647D01*
X144362723Y-110327797D01*
X144356656Y-110325247D01*
X144298427Y-110298955D01*
X144290960Y-110297571D01*
X144288405Y-110296770D01*
X144272152Y-110292141D01*
X144269572Y-110291478D01*
X144262491Y-110288718D01*
X144254960Y-110287727D01*
X144254958Y-110287726D01*
X144225339Y-110283827D01*
X144199139Y-110280378D01*
X144192641Y-110279348D01*
X144129814Y-110267704D01*
X144122234Y-110268141D01*
X144122233Y-110268141D01*
X144067608Y-110271291D01*
X144060354Y-110271500D01*
X139068762Y-110271500D01*
X139068102Y-110271498D01*
X138977969Y-110271026D01*
X138948873Y-110278011D01*
X138941379Y-110279810D01*
X138927105Y-110282378D01*
X138897300Y-110285985D01*
X138897298Y-110285985D01*
X138889758Y-110286898D01*
X138882651Y-110289583D01*
X138882649Y-110289584D01*
X138858670Y-110298645D01*
X138843543Y-110303299D01*
X138818606Y-110309285D01*
X138818602Y-110309287D01*
X138811223Y-110311058D01*
X138777781Y-110328318D01*
X138764539Y-110334214D01*
X138736451Y-110344827D01*
X138736448Y-110344829D01*
X138729344Y-110347513D01*
X138701944Y-110366345D01*
X138688387Y-110374459D01*
X138658839Y-110389709D01*
X138653118Y-110394700D01*
X138653112Y-110394704D01*
X138630487Y-110414442D01*
X138619021Y-110423336D01*
X138594280Y-110440339D01*
X138594275Y-110440344D01*
X138588019Y-110444643D01*
X138565906Y-110469462D01*
X138554662Y-110480588D01*
X138535341Y-110497443D01*
X138535338Y-110497447D01*
X138529615Y-110502439D01*
X138525247Y-110508653D01*
X138525245Y-110508656D01*
X138507979Y-110533222D01*
X138498972Y-110544586D01*
X138490624Y-110553956D01*
X138473943Y-110572679D01*
X138470391Y-110579388D01*
X138470388Y-110579392D01*
X138458389Y-110602054D01*
X138450124Y-110615541D01*
X138435381Y-110636519D01*
X138431010Y-110642739D01*
X138428249Y-110649820D01*
X138428247Y-110649824D01*
X138417343Y-110677790D01*
X138411306Y-110690977D01*
X138401789Y-110708953D01*
X138393700Y-110724231D01*
X138391851Y-110731591D01*
X138391849Y-110731597D01*
X138385603Y-110756466D01*
X138380791Y-110771543D01*
X138368718Y-110802509D01*
X138367727Y-110810039D01*
X138367726Y-110810042D01*
X138363808Y-110839807D01*
X138361090Y-110854059D01*
X138351924Y-110890549D01*
X138351884Y-110898147D01*
X138351884Y-110898148D01*
X138351849Y-110904761D01*
X138351779Y-110918305D01*
X138351714Y-110930660D01*
X138351665Y-110932035D01*
X138351500Y-110933294D01*
X138351500Y-110971238D01*
X138351498Y-110971898D01*
X138351158Y-111036916D01*
X138351026Y-111062031D01*
X138351390Y-111063548D01*
X138351500Y-111065450D01*
X138351500Y-111188407D01*
X138331498Y-111256528D01*
X138277842Y-111303021D01*
X138207568Y-111313125D01*
X138155519Y-111293050D01*
X138151675Y-111289870D01*
X137977701Y-111195802D01*
X137788768Y-111137318D01*
X137782644Y-111136674D01*
X137782642Y-111136674D01*
X137758422Y-111134129D01*
X137727566Y-111130886D01*
X137661910Y-111103873D01*
X137651641Y-111094671D01*
X135931450Y-109374480D01*
X135925596Y-109368215D01*
X135894447Y-109332509D01*
X135887561Y-109324615D01*
X135835280Y-109287871D01*
X135829986Y-109283939D01*
X135785693Y-109249209D01*
X135779718Y-109244524D01*
X135772802Y-109241401D01*
X135770516Y-109240017D01*
X135755835Y-109231643D01*
X135753475Y-109230378D01*
X135747261Y-109226010D01*
X135740182Y-109223250D01*
X135740180Y-109223249D01*
X135687725Y-109202798D01*
X135681656Y-109200247D01*
X135623427Y-109173955D01*
X135615960Y-109172571D01*
X135613405Y-109171770D01*
X135597152Y-109167141D01*
X135594572Y-109166478D01*
X135587491Y-109163718D01*
X135579960Y-109162727D01*
X135579958Y-109162726D01*
X135550339Y-109158827D01*
X135524139Y-109155378D01*
X135517641Y-109154348D01*
X135454814Y-109142704D01*
X135447234Y-109143141D01*
X135447233Y-109143141D01*
X135392608Y-109146291D01*
X135385354Y-109146500D01*
X133907509Y-109146500D01*
X133839388Y-109126498D01*
X133792895Y-109072842D01*
X133782791Y-109002568D01*
X133812285Y-108937988D01*
X133818414Y-108931405D01*
X134875363Y-107874456D01*
X134937675Y-107840430D01*
X135008490Y-107845495D01*
X135063203Y-107885286D01*
X135150618Y-107995576D01*
X135181035Y-108033953D01*
X135185728Y-108037947D01*
X135185729Y-108037948D01*
X135303878Y-108138500D01*
X135331650Y-108162136D01*
X135504294Y-108258624D01*
X135692392Y-108319740D01*
X135888777Y-108343158D01*
X135894912Y-108342686D01*
X135894914Y-108342686D01*
X136079830Y-108328457D01*
X136079834Y-108328456D01*
X136085972Y-108327984D01*
X136276463Y-108274798D01*
X136281967Y-108272018D01*
X136281969Y-108272017D01*
X136447495Y-108188404D01*
X136447497Y-108188403D01*
X136452996Y-108185625D01*
X136607119Y-108065211D01*
X136673113Y-108039033D01*
X136684692Y-108038500D01*
X137986817Y-108038500D01*
X138052088Y-108056724D01*
X138091301Y-108080472D01*
X138098548Y-108082743D01*
X138098550Y-108082744D01*
X138164836Y-108103517D01*
X138254938Y-108131753D01*
X138328365Y-108138500D01*
X138331263Y-108138500D01*
X138660860Y-108138499D01*
X138991634Y-108138499D01*
X138994492Y-108138236D01*
X138994501Y-108138236D01*
X139030004Y-108134974D01*
X139065062Y-108131753D01*
X139071447Y-108129752D01*
X139221450Y-108082744D01*
X139221452Y-108082743D01*
X139228699Y-108080472D01*
X139375381Y-107991639D01*
X139391615Y-107975405D01*
X139453927Y-107941379D01*
X139480710Y-107938500D01*
X144515019Y-107938500D01*
X144583140Y-107958502D01*
X144596682Y-107968546D01*
X144686182Y-108044716D01*
X144706650Y-108062136D01*
X144879294Y-108158624D01*
X145067392Y-108219740D01*
X145263777Y-108243158D01*
X145269912Y-108242686D01*
X145269914Y-108242686D01*
X145454830Y-108228457D01*
X145454834Y-108228456D01*
X145460972Y-108227984D01*
X145651463Y-108174798D01*
X145656967Y-108172018D01*
X145656969Y-108172017D01*
X145822495Y-108088404D01*
X145822497Y-108088403D01*
X145827996Y-108085625D01*
X145974832Y-107970904D01*
X145978991Y-107967655D01*
X145983847Y-107963861D01*
X146077489Y-107855376D01*
X146109049Y-107818813D01*
X146109050Y-107818811D01*
X146113078Y-107814145D01*
X146210769Y-107642179D01*
X146273197Y-107454513D01*
X146297985Y-107258295D01*
X146298225Y-107241072D01*
X146298331Y-107233523D01*
X146298331Y-107233520D01*
X146298380Y-107230000D01*
X146279080Y-107033167D01*
X146274005Y-107016356D01*
X146255162Y-106953947D01*
X146221916Y-106843831D01*
X146129066Y-106669204D01*
X146058709Y-106582938D01*
X146007960Y-106520713D01*
X146007957Y-106520710D01*
X146004065Y-106515938D01*
X145998803Y-106511585D01*
X145856425Y-106393799D01*
X145856421Y-106393797D01*
X145851675Y-106389870D01*
X145677701Y-106295802D01*
X145488768Y-106237318D01*
X145482643Y-106236674D01*
X145482642Y-106236674D01*
X145298204Y-106217289D01*
X145298202Y-106217289D01*
X145292075Y-106216645D01*
X145209576Y-106224153D01*
X145101251Y-106234011D01*
X145101248Y-106234012D01*
X145095112Y-106234570D01*
X145089206Y-106236308D01*
X145089202Y-106236309D01*
X145006984Y-106260507D01*
X144905381Y-106290410D01*
X144899923Y-106293263D01*
X144899919Y-106293265D01*
X144846514Y-106321185D01*
X144730110Y-106382040D01*
X144591236Y-106493698D01*
X144525616Y-106520793D01*
X144512286Y-106521500D01*
X141106328Y-106521500D01*
X141038207Y-106501498D01*
X140991714Y-106447842D01*
X140981610Y-106377568D01*
X141011104Y-106312988D01*
X141075366Y-106273692D01*
X141080242Y-106273102D01*
X141087343Y-106270419D01*
X141089960Y-106269776D01*
X141106262Y-106265315D01*
X141108798Y-106264550D01*
X141116284Y-106263243D01*
X141174800Y-106237556D01*
X141180904Y-106235065D01*
X141183694Y-106234011D01*
X141240656Y-106212487D01*
X141246919Y-106208183D01*
X141249285Y-106206946D01*
X141264097Y-106198701D01*
X141266351Y-106197368D01*
X141273305Y-106194315D01*
X141324002Y-106155413D01*
X141329332Y-106151541D01*
X141375720Y-106119661D01*
X141375725Y-106119656D01*
X141381981Y-106115357D01*
X141387429Y-106109243D01*
X141423435Y-106068830D01*
X141428416Y-106063554D01*
X142115520Y-105376450D01*
X142121785Y-105370596D01*
X142159660Y-105337555D01*
X142165385Y-105332561D01*
X142202114Y-105280300D01*
X142206046Y-105275005D01*
X142236275Y-105236453D01*
X142245477Y-105224718D01*
X142248602Y-105217796D01*
X142249964Y-105215548D01*
X142258368Y-105200815D01*
X142259622Y-105198476D01*
X142263990Y-105192261D01*
X142266749Y-105185185D01*
X142266751Y-105185181D01*
X142287200Y-105132731D01*
X142289749Y-105126666D01*
X142316045Y-105068427D01*
X142317429Y-105060962D01*
X142318226Y-105058418D01*
X142322859Y-105042152D01*
X142323521Y-105039572D01*
X142326282Y-105032491D01*
X142334622Y-104969143D01*
X142335653Y-104962629D01*
X142338455Y-104947513D01*
X142347296Y-104899813D01*
X142346076Y-104878646D01*
X142343709Y-104837607D01*
X142343500Y-104830353D01*
X142343500Y-98883927D01*
X142343792Y-98875358D01*
X142347210Y-98825225D01*
X142347210Y-98825221D01*
X142347726Y-98817648D01*
X142336736Y-98754681D01*
X142335775Y-98748165D01*
X142329014Y-98692298D01*
X142328102Y-98684758D01*
X142325419Y-98677657D01*
X142324778Y-98675048D01*
X142320309Y-98658715D01*
X142319548Y-98656195D01*
X142318243Y-98648717D01*
X142315191Y-98641764D01*
X142292559Y-98590204D01*
X142290068Y-98584099D01*
X142270175Y-98531456D01*
X142270173Y-98531452D01*
X142267487Y-98524344D01*
X142263184Y-98518083D01*
X142261947Y-98515717D01*
X142253720Y-98500937D01*
X142252369Y-98498652D01*
X142249315Y-98491695D01*
X142244695Y-98485675D01*
X142244692Y-98485669D01*
X142210421Y-98441009D01*
X142206541Y-98435668D01*
X142174661Y-98389280D01*
X142174656Y-98389275D01*
X142170357Y-98383019D01*
X142146698Y-98361939D01*
X142123830Y-98341565D01*
X142118554Y-98336584D01*
X138930405Y-95148435D01*
X138896379Y-95086123D01*
X138893500Y-95059340D01*
X138893500Y-93694245D01*
X138913502Y-93626124D01*
X138953665Y-93586813D01*
X139098400Y-93498120D01*
X139099670Y-93497342D01*
X139099673Y-93497340D01*
X139103896Y-93494752D01*
X139268759Y-93353945D01*
X139286677Y-93338641D01*
X139290433Y-93335433D01*
X139412337Y-93192703D01*
X139446535Y-93152663D01*
X139446537Y-93152660D01*
X139449752Y-93148896D01*
X139577927Y-92939732D01*
X139671805Y-92713092D01*
X139729072Y-92474557D01*
X139748319Y-92230000D01*
X139729072Y-91985443D01*
X139671805Y-91746908D01*
X139577927Y-91520268D01*
X139449752Y-91311104D01*
X139423779Y-91280693D01*
X139293641Y-91128323D01*
X139290433Y-91124567D01*
X139286677Y-91121359D01*
X139107663Y-90968465D01*
X139107660Y-90968463D01*
X139103896Y-90965248D01*
X139099673Y-90962660D01*
X139099670Y-90962658D01*
X138970499Y-90883503D01*
X138894732Y-90837073D01*
X138890159Y-90835179D01*
X138885746Y-90832930D01*
X138886810Y-90830841D01*
X138839055Y-90792416D01*
X138816500Y-90720478D01*
X138816500Y-60011927D01*
X138816792Y-60003358D01*
X138820210Y-59953225D01*
X138820210Y-59953221D01*
X138820726Y-59945648D01*
X138809736Y-59882681D01*
X138808775Y-59876165D01*
X138802014Y-59820298D01*
X138801102Y-59812758D01*
X138798419Y-59805657D01*
X138797778Y-59803048D01*
X138793313Y-59786728D01*
X138792548Y-59784195D01*
X138791243Y-59776717D01*
X138765552Y-59718190D01*
X138763067Y-59712102D01*
X138743172Y-59659449D01*
X138743171Y-59659447D01*
X138740487Y-59652344D01*
X138736186Y-59646085D01*
X138734949Y-59643720D01*
X138726727Y-59628948D01*
X138725372Y-59626656D01*
X138722316Y-59619695D01*
X138717691Y-59613668D01*
X138717689Y-59613664D01*
X138683407Y-59568987D01*
X138679529Y-59563650D01*
X138670070Y-59549886D01*
X138652288Y-59524014D01*
X138647659Y-59517278D01*
X138647658Y-59517277D01*
X138643357Y-59511019D01*
X138596847Y-59469580D01*
X138591571Y-59464600D01*
X138279691Y-59152720D01*
X137960364Y-58833394D01*
X137926339Y-58771081D01*
X137931403Y-58700266D01*
X137941680Y-58679032D01*
X138005472Y-58573699D01*
X138008919Y-58562702D01*
X138054752Y-58416446D01*
X138056753Y-58410062D01*
X138063500Y-58336635D01*
X138063499Y-57673366D01*
X138063234Y-57670474D01*
X138057364Y-57606592D01*
X138056753Y-57599938D01*
X138005472Y-57436301D01*
X137916639Y-57289619D01*
X137795381Y-57168361D01*
X137648699Y-57079528D01*
X137641452Y-57077257D01*
X137641450Y-57077256D01*
X137575164Y-57056483D01*
X137485062Y-57028247D01*
X137411635Y-57021500D01*
X137408737Y-57021500D01*
X137154335Y-57021501D01*
X136898366Y-57021501D01*
X136895508Y-57021764D01*
X136895499Y-57021764D01*
X136859996Y-57025026D01*
X136824938Y-57028247D01*
X136818560Y-57030246D01*
X136818559Y-57030246D01*
X136668550Y-57077256D01*
X136668548Y-57077257D01*
X136661301Y-57079528D01*
X136514619Y-57168361D01*
X136419095Y-57263885D01*
X136356783Y-57297911D01*
X136285968Y-57292846D01*
X136240905Y-57263885D01*
X136145381Y-57168361D01*
X135998699Y-57079528D01*
X135991452Y-57077257D01*
X135991450Y-57077256D01*
X135925164Y-57056483D01*
X135835062Y-57028247D01*
X135761635Y-57021500D01*
X135758737Y-57021500D01*
X135504335Y-57021501D01*
X135248366Y-57021501D01*
X135245508Y-57021764D01*
X135245499Y-57021764D01*
X135209996Y-57025026D01*
X135174938Y-57028247D01*
X135168560Y-57030246D01*
X135168559Y-57030246D01*
X135018550Y-57077256D01*
X135018548Y-57077257D01*
X135011301Y-57079528D01*
X134864619Y-57168361D01*
X134743361Y-57289619D01*
X134654528Y-57436301D01*
X134603247Y-57599938D01*
X134596500Y-57673365D01*
X134596500Y-57859340D01*
X134576498Y-57927461D01*
X134559595Y-57948435D01*
X134423435Y-58084595D01*
X134361123Y-58118621D01*
X134334340Y-58121500D01*
X130814500Y-58121500D01*
X130746379Y-58101498D01*
X130699886Y-58047842D01*
X130688500Y-57995500D01*
X130688500Y-54649669D01*
X135052001Y-54649669D01*
X135052371Y-54656490D01*
X135057895Y-54707352D01*
X135061521Y-54722604D01*
X135106676Y-54843054D01*
X135115214Y-54858649D01*
X135191715Y-54960724D01*
X135204276Y-54973285D01*
X135306351Y-55049786D01*
X135321946Y-55058324D01*
X135442394Y-55103478D01*
X135457649Y-55107105D01*
X135508514Y-55112631D01*
X135515328Y-55113000D01*
X136062885Y-55113000D01*
X136078124Y-55108525D01*
X136079329Y-55107135D01*
X136081000Y-55099452D01*
X136081000Y-55094884D01*
X136589000Y-55094884D01*
X136593475Y-55110123D01*
X136594865Y-55111328D01*
X136602548Y-55112999D01*
X137154669Y-55112999D01*
X137161490Y-55112629D01*
X137212352Y-55107105D01*
X137227604Y-55103479D01*
X137348054Y-55058324D01*
X137363649Y-55049786D01*
X137465724Y-54973285D01*
X137478285Y-54960724D01*
X137554786Y-54858649D01*
X137563324Y-54843054D01*
X137608478Y-54722606D01*
X137612105Y-54707351D01*
X137617631Y-54656486D01*
X137618000Y-54649672D01*
X137618000Y-54649669D01*
X143002001Y-54649669D01*
X143002371Y-54656490D01*
X143007895Y-54707352D01*
X143011521Y-54722604D01*
X143056676Y-54843054D01*
X143065214Y-54858649D01*
X143141715Y-54960724D01*
X143154276Y-54973285D01*
X143256351Y-55049786D01*
X143271946Y-55058324D01*
X143392394Y-55103478D01*
X143407649Y-55107105D01*
X143458514Y-55112631D01*
X143465328Y-55113000D01*
X144012885Y-55113000D01*
X144028124Y-55108525D01*
X144029329Y-55107135D01*
X144031000Y-55099452D01*
X144031000Y-55094884D01*
X144539000Y-55094884D01*
X144543475Y-55110123D01*
X144544865Y-55111328D01*
X144552548Y-55112999D01*
X145104669Y-55112999D01*
X145111490Y-55112629D01*
X145162352Y-55107105D01*
X145177604Y-55103479D01*
X145298054Y-55058324D01*
X145313649Y-55049786D01*
X145415724Y-54973285D01*
X145428285Y-54960724D01*
X145504786Y-54858649D01*
X145513324Y-54843054D01*
X145558478Y-54722606D01*
X145562105Y-54707351D01*
X145567631Y-54656486D01*
X145568000Y-54649672D01*
X145568000Y-54227115D01*
X145563525Y-54211876D01*
X145562135Y-54210671D01*
X145554452Y-54209000D01*
X144557115Y-54209000D01*
X144541876Y-54213475D01*
X144540671Y-54214865D01*
X144539000Y-54222548D01*
X144539000Y-55094884D01*
X144031000Y-55094884D01*
X144031000Y-54227115D01*
X144026525Y-54211876D01*
X144025135Y-54210671D01*
X144017452Y-54209000D01*
X143020116Y-54209000D01*
X143004877Y-54213475D01*
X143003672Y-54214865D01*
X143002001Y-54222548D01*
X143002001Y-54649669D01*
X137618000Y-54649669D01*
X137618000Y-54227115D01*
X137613525Y-54211876D01*
X137612135Y-54210671D01*
X137604452Y-54209000D01*
X136607115Y-54209000D01*
X136591876Y-54213475D01*
X136590671Y-54214865D01*
X136589000Y-54222548D01*
X136589000Y-55094884D01*
X136081000Y-55094884D01*
X136081000Y-54227115D01*
X136076525Y-54211876D01*
X136075135Y-54210671D01*
X136067452Y-54209000D01*
X135070116Y-54209000D01*
X135054877Y-54213475D01*
X135053672Y-54214865D01*
X135052001Y-54222548D01*
X135052001Y-54649669D01*
X130688500Y-54649669D01*
X130688500Y-53682885D01*
X135052000Y-53682885D01*
X135056475Y-53698124D01*
X135057865Y-53699329D01*
X135065548Y-53701000D01*
X136062885Y-53701000D01*
X136078124Y-53696525D01*
X136079329Y-53695135D01*
X136081000Y-53687452D01*
X136081000Y-53682885D01*
X136589000Y-53682885D01*
X136593475Y-53698124D01*
X136594865Y-53699329D01*
X136602548Y-53701000D01*
X137599884Y-53701000D01*
X137615123Y-53696525D01*
X137616328Y-53695135D01*
X137617999Y-53687452D01*
X137617999Y-53682885D01*
X143002000Y-53682885D01*
X143006475Y-53698124D01*
X143007865Y-53699329D01*
X143015548Y-53701000D01*
X144012885Y-53701000D01*
X144028124Y-53696525D01*
X144029329Y-53695135D01*
X144031000Y-53687452D01*
X144031000Y-53682885D01*
X144539000Y-53682885D01*
X144543475Y-53698124D01*
X144544865Y-53699329D01*
X144552548Y-53701000D01*
X145549884Y-53701000D01*
X145565123Y-53696525D01*
X145566328Y-53695135D01*
X145567999Y-53687452D01*
X145567999Y-53260331D01*
X145567629Y-53253510D01*
X145562105Y-53202648D01*
X145558479Y-53187396D01*
X145513324Y-53066946D01*
X145504786Y-53051351D01*
X145428285Y-52949276D01*
X145415724Y-52936715D01*
X145313649Y-52860214D01*
X145298054Y-52851676D01*
X145177606Y-52806522D01*
X145162351Y-52802895D01*
X145111486Y-52797369D01*
X145104672Y-52797000D01*
X144557115Y-52797000D01*
X144541876Y-52801475D01*
X144540671Y-52802865D01*
X144539000Y-52810548D01*
X144539000Y-53682885D01*
X144031000Y-53682885D01*
X144031000Y-52815116D01*
X144026525Y-52799877D01*
X144025135Y-52798672D01*
X144017452Y-52797001D01*
X143465331Y-52797001D01*
X143458510Y-52797371D01*
X143407648Y-52802895D01*
X143392396Y-52806521D01*
X143271946Y-52851676D01*
X143256351Y-52860214D01*
X143154276Y-52936715D01*
X143141715Y-52949276D01*
X143065214Y-53051351D01*
X143056676Y-53066946D01*
X143011522Y-53187394D01*
X143007895Y-53202649D01*
X143002369Y-53253514D01*
X143002000Y-53260328D01*
X143002000Y-53682885D01*
X137617999Y-53682885D01*
X137617999Y-53260331D01*
X137617629Y-53253510D01*
X137612105Y-53202648D01*
X137608479Y-53187396D01*
X137563324Y-53066946D01*
X137554786Y-53051351D01*
X137478285Y-52949276D01*
X137465724Y-52936715D01*
X137363649Y-52860214D01*
X137348054Y-52851676D01*
X137227606Y-52806522D01*
X137212351Y-52802895D01*
X137161486Y-52797369D01*
X137154672Y-52797000D01*
X136607115Y-52797000D01*
X136591876Y-52801475D01*
X136590671Y-52802865D01*
X136589000Y-52810548D01*
X136589000Y-53682885D01*
X136081000Y-53682885D01*
X136081000Y-52815116D01*
X136076525Y-52799877D01*
X136075135Y-52798672D01*
X136067452Y-52797001D01*
X135515331Y-52797001D01*
X135508510Y-52797371D01*
X135457648Y-52802895D01*
X135442396Y-52806521D01*
X135321946Y-52851676D01*
X135306351Y-52860214D01*
X135204276Y-52936715D01*
X135191715Y-52949276D01*
X135115214Y-53051351D01*
X135106676Y-53066946D01*
X135061522Y-53187394D01*
X135057895Y-53202649D01*
X135052369Y-53253514D01*
X135052000Y-53260328D01*
X135052000Y-53682885D01*
X130688500Y-53682885D01*
X130688500Y-51605660D01*
X130708502Y-51537539D01*
X130725405Y-51516565D01*
X132041566Y-50200405D01*
X132103878Y-50166379D01*
X132130661Y-50163500D01*
X134951502Y-50163500D01*
X135019623Y-50183502D01*
X135066116Y-50237158D01*
X135069484Y-50245270D01*
X135109385Y-50351705D01*
X135196739Y-50468261D01*
X135313295Y-50555615D01*
X135449684Y-50606745D01*
X135511866Y-50613500D01*
X137158134Y-50613500D01*
X137220316Y-50606745D01*
X137356705Y-50555615D01*
X137473261Y-50468261D01*
X137560615Y-50351705D01*
X137600516Y-50245270D01*
X137643158Y-50188506D01*
X137709719Y-50163806D01*
X137718498Y-50163500D01*
X142901502Y-50163500D01*
X142969623Y-50183502D01*
X143016116Y-50237158D01*
X143019484Y-50245270D01*
X143059385Y-50351705D01*
X143146739Y-50468261D01*
X143263295Y-50555615D01*
X143399684Y-50606745D01*
X143461866Y-50613500D01*
X145108134Y-50613500D01*
X145170316Y-50606745D01*
X145306705Y-50555615D01*
X145423261Y-50468261D01*
X145510615Y-50351705D01*
X145561745Y-50215316D01*
X145568500Y-50153134D01*
X145568500Y-48756866D01*
X145561745Y-48694684D01*
X145510615Y-48558295D01*
X145423261Y-48441739D01*
X145306705Y-48354385D01*
X145170316Y-48303255D01*
X145108134Y-48296500D01*
X143461866Y-48296500D01*
X143399684Y-48303255D01*
X143263295Y-48354385D01*
X143146739Y-48441739D01*
X143059385Y-48558295D01*
X143056233Y-48566703D01*
X143019484Y-48664730D01*
X142976842Y-48721494D01*
X142910281Y-48746194D01*
X142901502Y-48746500D01*
X137718498Y-48746500D01*
X137650377Y-48726498D01*
X137603884Y-48672842D01*
X137600516Y-48664730D01*
X137563767Y-48566703D01*
X137560615Y-48558295D01*
X137473261Y-48441739D01*
X137356705Y-48354385D01*
X137220316Y-48303255D01*
X137158134Y-48296500D01*
X135511866Y-48296500D01*
X135449684Y-48303255D01*
X135313295Y-48354385D01*
X135196739Y-48441739D01*
X135109385Y-48558295D01*
X135106233Y-48566703D01*
X135069484Y-48664730D01*
X135026842Y-48721494D01*
X134960281Y-48746194D01*
X134951502Y-48746500D01*
X131813911Y-48746500D01*
X131805342Y-48746208D01*
X131755223Y-48742791D01*
X131755219Y-48742791D01*
X131747647Y-48742275D01*
X131684685Y-48753264D01*
X131678195Y-48754221D01*
X131614758Y-48761898D01*
X131607649Y-48764584D01*
X131605078Y-48765216D01*
X131588772Y-48769676D01*
X131586204Y-48770451D01*
X131578716Y-48771758D01*
X131543722Y-48787119D01*
X131520212Y-48797439D01*
X131514105Y-48799931D01*
X131461452Y-48819827D01*
X131454344Y-48822513D01*
X131448083Y-48826816D01*
X131445717Y-48828053D01*
X131430937Y-48836280D01*
X131428652Y-48837631D01*
X131421695Y-48840685D01*
X131415675Y-48845305D01*
X131415669Y-48845308D01*
X131384542Y-48869194D01*
X131370998Y-48879587D01*
X131365668Y-48883459D01*
X131319280Y-48915339D01*
X131319275Y-48915344D01*
X131313019Y-48919643D01*
X131307968Y-48925313D01*
X131307966Y-48925314D01*
X131271565Y-48966170D01*
X131266584Y-48971446D01*
X129499480Y-50738550D01*
X129493215Y-50744404D01*
X129449615Y-50782439D01*
X129445248Y-50788653D01*
X129412872Y-50834719D01*
X129408939Y-50840014D01*
X129369524Y-50890282D01*
X129366401Y-50897198D01*
X129365017Y-50899484D01*
X129356643Y-50914165D01*
X129355378Y-50916525D01*
X129351010Y-50922739D01*
X129348250Y-50929818D01*
X129348249Y-50929820D01*
X129327798Y-50982275D01*
X129325247Y-50988344D01*
X129298955Y-51046573D01*
X129297571Y-51054040D01*
X129296770Y-51056595D01*
X129292141Y-51072848D01*
X129291478Y-51075428D01*
X129288718Y-51082509D01*
X129287727Y-51090040D01*
X129287726Y-51090042D01*
X129280379Y-51145852D01*
X129279348Y-51152359D01*
X129267704Y-51215186D01*
X129268141Y-51222766D01*
X129268141Y-51222767D01*
X129271291Y-51277392D01*
X129271500Y-51284646D01*
X129271500Y-58371088D01*
X129271208Y-58379658D01*
X129269590Y-58403399D01*
X129267275Y-58437352D01*
X129268580Y-58444829D01*
X129268580Y-58444830D01*
X129278261Y-58500299D01*
X129279223Y-58506821D01*
X129286898Y-58570242D01*
X129289581Y-58577343D01*
X129290222Y-58579952D01*
X129294685Y-58596262D01*
X129295450Y-58598798D01*
X129296757Y-58606284D01*
X129299811Y-58613241D01*
X129322442Y-58664795D01*
X129324933Y-58670899D01*
X129347513Y-58730656D01*
X129351817Y-58736919D01*
X129353054Y-58739285D01*
X129361299Y-58754097D01*
X129362632Y-58756352D01*
X129365685Y-58763305D01*
X129376201Y-58777009D01*
X129401803Y-58843227D01*
X129393633Y-58899484D01*
X129382798Y-58927275D01*
X129380247Y-58933344D01*
X129353955Y-58991573D01*
X129352571Y-58999040D01*
X129351770Y-59001595D01*
X129347141Y-59017848D01*
X129346478Y-59020428D01*
X129343718Y-59027509D01*
X129342727Y-59035040D01*
X129342726Y-59035042D01*
X129335379Y-59090852D01*
X129334348Y-59097359D01*
X129322704Y-59160186D01*
X129323141Y-59167766D01*
X129323141Y-59167767D01*
X129326291Y-59222392D01*
X129326500Y-59229646D01*
X129326500Y-99802912D01*
X129306498Y-99871033D01*
X129289595Y-99892007D01*
X123568651Y-105612952D01*
X117875418Y-111306185D01*
X117813106Y-111340211D01*
X117742291Y-111335146D01*
X117734853Y-111331745D01*
X117731705Y-111329385D01*
X117595316Y-111278255D01*
X117533134Y-111271500D01*
X117448488Y-111271500D01*
X117380367Y-111251498D01*
X117333874Y-111197842D01*
X117323770Y-111127568D01*
X117353264Y-111062988D01*
X117359393Y-111056405D01*
X118601498Y-109814301D01*
X120053028Y-108362771D01*
X120059293Y-108356917D01*
X120097164Y-108323880D01*
X120097165Y-108323879D01*
X120102885Y-108318889D01*
X120139636Y-108266599D01*
X120143528Y-108261357D01*
X120182976Y-108211046D01*
X120186100Y-108204127D01*
X120187488Y-108201835D01*
X120195857Y-108187163D01*
X120197122Y-108184803D01*
X120201490Y-108178589D01*
X120206508Y-108165720D01*
X120224702Y-108119053D01*
X120227259Y-108112970D01*
X120238352Y-108088404D01*
X120253545Y-108054755D01*
X120254930Y-108047282D01*
X120255734Y-108044716D01*
X120260355Y-108028493D01*
X120261020Y-108025901D01*
X120263782Y-108018819D01*
X120272122Y-107955467D01*
X120273154Y-107948951D01*
X120281062Y-107906284D01*
X120284795Y-107886142D01*
X120281209Y-107823948D01*
X120281000Y-107816695D01*
X120281000Y-106116678D01*
X120301002Y-106048557D01*
X120354658Y-106002064D01*
X120424932Y-105991960D01*
X120473692Y-106012900D01*
X120474947Y-106010864D01*
X120619308Y-106099849D01*
X120626256Y-106102154D01*
X120626257Y-106102154D01*
X120773738Y-106151072D01*
X120773740Y-106151072D01*
X120780269Y-106153238D01*
X120880428Y-106163500D01*
X121414572Y-106163500D01*
X121417818Y-106163163D01*
X121417822Y-106163163D01*
X121451603Y-106159658D01*
X121515982Y-106152978D01*
X121676849Y-106099308D01*
X121821055Y-106010071D01*
X121940864Y-105890053D01*
X122029849Y-105745692D01*
X122051795Y-105679528D01*
X122081072Y-105591262D01*
X122081072Y-105591260D01*
X122083238Y-105584731D01*
X122093500Y-105484572D01*
X122093500Y-104875428D01*
X122093093Y-104871500D01*
X122083689Y-104780874D01*
X122082978Y-104774018D01*
X122029308Y-104613151D01*
X121940071Y-104468945D01*
X121892982Y-104421938D01*
X121858903Y-104359656D01*
X121856000Y-104332765D01*
X121856000Y-104136596D01*
X121876002Y-104068475D01*
X121900408Y-104041666D01*
X121900381Y-104041639D01*
X122021639Y-103920381D01*
X122110472Y-103773699D01*
X122161753Y-103610062D01*
X122168500Y-103536635D01*
X122168499Y-103023366D01*
X122168234Y-103020474D01*
X122162364Y-102956592D01*
X122161753Y-102949938D01*
X122110472Y-102786301D01*
X122021639Y-102639619D01*
X121925761Y-102543741D01*
X121891735Y-102481429D01*
X121896800Y-102410614D01*
X121925761Y-102365551D01*
X122015869Y-102275443D01*
X122025176Y-102263574D01*
X122106079Y-102129988D01*
X122112285Y-102116243D01*
X122159256Y-101966356D01*
X122161869Y-101953306D01*
X122166913Y-101898414D01*
X122163525Y-101886876D01*
X122162135Y-101885671D01*
X122154452Y-101884000D01*
X120220116Y-101884000D01*
X120204877Y-101888475D01*
X120203672Y-101889865D01*
X120202709Y-101894294D01*
X120208132Y-101953315D01*
X120210743Y-101966351D01*
X120257715Y-102116243D01*
X120263921Y-102129988D01*
X120344824Y-102263574D01*
X120354131Y-102275443D01*
X120444239Y-102365551D01*
X120478265Y-102427863D01*
X120473200Y-102498678D01*
X120444239Y-102543741D01*
X120348361Y-102639619D01*
X120259528Y-102786301D01*
X120208247Y-102949938D01*
X120201500Y-103023365D01*
X120201501Y-103536634D01*
X120201764Y-103539492D01*
X120201764Y-103539501D01*
X120204410Y-103568297D01*
X120208247Y-103610062D01*
X120259528Y-103773699D01*
X120348361Y-103920381D01*
X120402095Y-103974115D01*
X120436121Y-104036427D01*
X120439000Y-104063210D01*
X120439000Y-104243322D01*
X120418998Y-104311443D01*
X120365342Y-104357936D01*
X120295068Y-104368040D01*
X120246308Y-104347100D01*
X120245053Y-104349136D01*
X120100692Y-104260151D01*
X120049955Y-104243322D01*
X119946262Y-104208928D01*
X119946260Y-104208928D01*
X119939731Y-104206762D01*
X119839572Y-104196500D01*
X119305428Y-104196500D01*
X119302182Y-104196837D01*
X119302178Y-104196837D01*
X119268397Y-104200342D01*
X119204018Y-104207022D01*
X119043151Y-104260692D01*
X118898945Y-104349929D01*
X118779136Y-104469947D01*
X118690151Y-104614308D01*
X118687846Y-104621256D01*
X118687846Y-104621257D01*
X118650629Y-104733463D01*
X118636762Y-104775269D01*
X118626500Y-104875428D01*
X118626500Y-105484572D01*
X118626837Y-105487818D01*
X118626837Y-105487822D01*
X118629467Y-105513172D01*
X118637022Y-105585982D01*
X118690692Y-105746849D01*
X118779929Y-105891055D01*
X118785107Y-105896224D01*
X118827018Y-105938062D01*
X118861097Y-106000344D01*
X118864000Y-106027235D01*
X118864000Y-107495668D01*
X118843998Y-107563789D01*
X118827095Y-107584763D01*
X115929480Y-110482378D01*
X115923215Y-110488232D01*
X115879615Y-110526267D01*
X115848033Y-110571203D01*
X115842872Y-110578547D01*
X115838939Y-110583842D01*
X115799524Y-110634110D01*
X115796401Y-110641026D01*
X115795017Y-110643312D01*
X115786643Y-110657993D01*
X115785378Y-110660353D01*
X115781010Y-110666567D01*
X115778250Y-110673646D01*
X115778249Y-110673648D01*
X115757798Y-110726103D01*
X115755247Y-110732172D01*
X115728955Y-110790401D01*
X115727571Y-110797868D01*
X115726770Y-110800423D01*
X115722141Y-110816676D01*
X115721478Y-110819256D01*
X115718718Y-110826337D01*
X115717727Y-110833868D01*
X115717726Y-110833870D01*
X115710379Y-110889680D01*
X115709348Y-110896187D01*
X115697704Y-110959014D01*
X115698141Y-110966594D01*
X115698141Y-110966595D01*
X115701291Y-111021220D01*
X115701500Y-111028474D01*
X115701500Y-111376417D01*
X115681498Y-111444538D01*
X115627842Y-111491031D01*
X115557568Y-111501135D01*
X115492988Y-111471641D01*
X115474674Y-111451982D01*
X115453642Y-111423919D01*
X115448261Y-111416739D01*
X115418779Y-111394643D01*
X115406435Y-111385392D01*
X115363920Y-111328533D01*
X115358587Y-111298926D01*
X115351525Y-111274877D01*
X115350135Y-111273672D01*
X115342452Y-111272001D01*
X115290331Y-111272001D01*
X115283510Y-111272371D01*
X115224793Y-111278748D01*
X115224495Y-111276002D01*
X115195554Y-111276060D01*
X115195316Y-111278255D01*
X115136531Y-111271869D01*
X115133134Y-111271500D01*
X114486866Y-111271500D01*
X114483469Y-111271869D01*
X114445424Y-111276002D01*
X114424684Y-111278255D01*
X114424452Y-111276116D01*
X114395488Y-111276166D01*
X114395207Y-111278748D01*
X114336486Y-111272369D01*
X114329672Y-111272000D01*
X114282115Y-111272000D01*
X114266876Y-111276475D01*
X114265671Y-111277865D01*
X114261121Y-111298783D01*
X114259903Y-111298518D01*
X114243998Y-111352687D01*
X114213565Y-111385392D01*
X114201222Y-111394643D01*
X114171739Y-111416739D01*
X114166358Y-111423919D01*
X114110826Y-111498015D01*
X114053967Y-111540530D01*
X113983148Y-111545556D01*
X113920855Y-111511496D01*
X113909174Y-111498015D01*
X113853642Y-111423919D01*
X113848261Y-111416739D01*
X113818779Y-111394643D01*
X113806435Y-111385392D01*
X113763920Y-111328533D01*
X113758587Y-111298926D01*
X113751525Y-111274877D01*
X113750135Y-111273672D01*
X113742452Y-111272001D01*
X113690331Y-111272001D01*
X113683510Y-111272371D01*
X113624793Y-111278748D01*
X113624495Y-111276002D01*
X113595554Y-111276060D01*
X113595316Y-111278255D01*
X113536531Y-111271869D01*
X113533134Y-111271500D01*
X113244500Y-111271500D01*
X113176379Y-111251498D01*
X113129886Y-111197842D01*
X113118500Y-111145500D01*
X113118500Y-109855660D01*
X113138502Y-109787539D01*
X113155405Y-109766565D01*
X115162780Y-107759191D01*
X115185572Y-107741142D01*
X115291851Y-107675375D01*
X115318713Y-107658752D01*
X115323886Y-107653570D01*
X115329623Y-107649023D01*
X115331055Y-107650830D01*
X115383575Y-107622098D01*
X115454395Y-107627108D01*
X115490853Y-107650499D01*
X115491683Y-107649448D01*
X115508840Y-107662998D01*
X115641880Y-107745004D01*
X115655061Y-107751151D01*
X115803814Y-107800491D01*
X115817190Y-107803358D01*
X115908097Y-107812672D01*
X115913126Y-107812929D01*
X115928124Y-107808525D01*
X115929329Y-107807135D01*
X115931000Y-107799452D01*
X115931000Y-107794885D01*
X116439000Y-107794885D01*
X116443475Y-107810124D01*
X116444865Y-107811329D01*
X116452548Y-107813000D01*
X116455438Y-107813000D01*
X116461953Y-107812663D01*
X116554057Y-107803106D01*
X116567456Y-107800212D01*
X116716107Y-107750619D01*
X116729286Y-107744445D01*
X116862173Y-107662212D01*
X116873574Y-107653176D01*
X116983986Y-107542571D01*
X116992998Y-107531160D01*
X117075004Y-107398120D01*
X117081151Y-107384939D01*
X117130491Y-107236186D01*
X117133358Y-107222810D01*
X117142672Y-107131903D01*
X117143000Y-107125487D01*
X117143000Y-107102115D01*
X117138525Y-107086876D01*
X117137135Y-107085671D01*
X117129452Y-107084000D01*
X116457115Y-107084000D01*
X116441876Y-107088475D01*
X116440671Y-107089865D01*
X116439000Y-107097548D01*
X116439000Y-107794885D01*
X115931000Y-107794885D01*
X115931000Y-106557885D01*
X116439000Y-106557885D01*
X116443475Y-106573124D01*
X116444865Y-106574329D01*
X116452548Y-106576000D01*
X117124885Y-106576000D01*
X117140124Y-106571525D01*
X117141329Y-106570135D01*
X117143000Y-106562452D01*
X117143000Y-106534562D01*
X117142663Y-106528047D01*
X117133106Y-106435943D01*
X117130212Y-106422544D01*
X117080619Y-106273893D01*
X117074445Y-106260714D01*
X116992212Y-106127827D01*
X116983176Y-106116426D01*
X116872571Y-106006014D01*
X116861160Y-105997002D01*
X116728120Y-105914996D01*
X116714939Y-105908849D01*
X116566186Y-105859509D01*
X116552810Y-105856642D01*
X116461903Y-105847328D01*
X116456874Y-105847071D01*
X116441876Y-105851475D01*
X116440671Y-105852865D01*
X116439000Y-105860548D01*
X116439000Y-106557885D01*
X115931000Y-106557885D01*
X115931000Y-105865115D01*
X115926525Y-105849876D01*
X115911987Y-105837278D01*
X115873604Y-105777552D01*
X115868500Y-105742054D01*
X115868500Y-103964500D01*
X115888502Y-103896379D01*
X115942158Y-103849886D01*
X115994500Y-103838500D01*
X117458134Y-103838500D01*
X117520316Y-103831745D01*
X117656705Y-103780615D01*
X117773261Y-103693261D01*
X117860615Y-103576705D01*
X117911745Y-103440316D01*
X117918500Y-103378134D01*
X117918500Y-101361586D01*
X120203087Y-101361586D01*
X120206475Y-101373124D01*
X120207865Y-101374329D01*
X120215548Y-101376000D01*
X120912885Y-101376000D01*
X120928124Y-101371525D01*
X120929329Y-101370135D01*
X120931000Y-101362452D01*
X120931000Y-101357885D01*
X121439000Y-101357885D01*
X121443475Y-101373124D01*
X121444865Y-101374329D01*
X121452548Y-101376000D01*
X122149884Y-101376000D01*
X122165123Y-101371525D01*
X122166328Y-101370135D01*
X122167291Y-101365706D01*
X122161868Y-101306685D01*
X122159257Y-101293649D01*
X122112285Y-101143757D01*
X122106079Y-101130012D01*
X122025176Y-100996426D01*
X122015869Y-100984557D01*
X121905443Y-100874131D01*
X121893574Y-100864824D01*
X121759988Y-100783921D01*
X121746243Y-100777715D01*
X121596356Y-100730744D01*
X121583306Y-100728131D01*
X121519479Y-100722266D01*
X121513691Y-100722000D01*
X121457115Y-100722000D01*
X121441876Y-100726475D01*
X121440671Y-100727865D01*
X121439000Y-100735548D01*
X121439000Y-101357885D01*
X120931000Y-101357885D01*
X120931000Y-100740116D01*
X120926525Y-100724877D01*
X120925135Y-100723672D01*
X120917452Y-100722001D01*
X120856295Y-100722001D01*
X120850546Y-100722264D01*
X120786685Y-100728132D01*
X120773649Y-100730743D01*
X120623757Y-100777715D01*
X120610012Y-100783921D01*
X120476426Y-100864824D01*
X120464557Y-100874131D01*
X120354131Y-100984557D01*
X120344824Y-100996426D01*
X120263921Y-101130012D01*
X120257715Y-101143757D01*
X120210744Y-101293644D01*
X120208131Y-101306694D01*
X120203087Y-101361586D01*
X117918500Y-101361586D01*
X117918500Y-101281866D01*
X117911745Y-101219684D01*
X117860615Y-101083295D01*
X117773261Y-100966739D01*
X117656705Y-100879385D01*
X117520316Y-100828255D01*
X117458134Y-100821500D01*
X112861866Y-100821500D01*
X112799684Y-100828255D01*
X112663295Y-100879385D01*
X112546739Y-100966739D01*
X112459385Y-101083295D01*
X112408255Y-101219684D01*
X112401500Y-101281866D01*
X112401500Y-103378134D01*
X112408255Y-103440316D01*
X112459385Y-103576705D01*
X112546739Y-103693261D01*
X112663295Y-103780615D01*
X112799684Y-103831745D01*
X112861866Y-103838500D01*
X114325500Y-103838500D01*
X114393621Y-103858502D01*
X114440114Y-103912158D01*
X114451500Y-103964500D01*
X114451500Y-105723535D01*
X114431498Y-105791656D01*
X114377842Y-105838149D01*
X114338503Y-105848862D01*
X114265838Y-105856401D01*
X114265833Y-105856402D01*
X114258981Y-105857113D01*
X114250963Y-105859788D01*
X114103676Y-105908927D01*
X114103674Y-105908928D01*
X114096732Y-105911244D01*
X114090508Y-105915096D01*
X114090507Y-105915096D01*
X113993736Y-105974980D01*
X113951287Y-106001248D01*
X113830448Y-106122298D01*
X113826608Y-106128528D01*
X113826607Y-106128529D01*
X113745255Y-106260507D01*
X113740698Y-106267899D01*
X113686851Y-106430243D01*
X113676500Y-106531268D01*
X113676500Y-107128732D01*
X113680912Y-107171253D01*
X113668048Y-107241072D01*
X113644680Y-107273350D01*
X111929480Y-108988550D01*
X111923215Y-108994404D01*
X111879615Y-109032439D01*
X111856443Y-109065410D01*
X111842872Y-109084719D01*
X111838939Y-109090014D01*
X111799524Y-109140282D01*
X111796401Y-109147198D01*
X111795017Y-109149484D01*
X111786643Y-109164165D01*
X111785378Y-109166525D01*
X111781010Y-109172739D01*
X111778250Y-109179818D01*
X111778249Y-109179820D01*
X111757798Y-109232275D01*
X111755247Y-109238344D01*
X111728955Y-109296573D01*
X111727571Y-109304040D01*
X111726770Y-109306595D01*
X111722141Y-109322848D01*
X111721478Y-109325428D01*
X111718718Y-109332509D01*
X111717727Y-109340040D01*
X111717726Y-109340042D01*
X111710379Y-109395852D01*
X111709348Y-109402359D01*
X111697704Y-109465186D01*
X111698141Y-109472766D01*
X111698141Y-109472767D01*
X111701291Y-109527392D01*
X111701500Y-109534646D01*
X111701500Y-111145500D01*
X111681498Y-111213621D01*
X111627842Y-111260114D01*
X111575500Y-111271500D01*
X111355660Y-111271500D01*
X111287539Y-111251498D01*
X111266565Y-111234595D01*
X107868813Y-107836843D01*
X107834787Y-107774531D01*
X107839852Y-107703716D01*
X107868735Y-107658730D01*
X107984381Y-107542882D01*
X107989552Y-107537702D01*
X108010433Y-107503827D01*
X108075462Y-107398331D01*
X108075463Y-107398329D01*
X108079302Y-107392101D01*
X108133149Y-107229757D01*
X108143500Y-107128732D01*
X108143500Y-106531268D01*
X108141910Y-106515938D01*
X108134844Y-106447842D01*
X108132887Y-106428981D01*
X108096923Y-106321185D01*
X108081073Y-106273676D01*
X108081072Y-106273674D01*
X108078756Y-106266732D01*
X108071504Y-106255012D01*
X107992606Y-106127515D01*
X107988752Y-106121287D01*
X107867702Y-106000448D01*
X107850467Y-105989824D01*
X107728331Y-105914538D01*
X107728329Y-105914537D01*
X107722101Y-105910698D01*
X107559757Y-105856851D01*
X107552920Y-105856151D01*
X107552918Y-105856150D01*
X107491691Y-105849877D01*
X107481657Y-105848849D01*
X107415930Y-105822008D01*
X107375148Y-105763893D01*
X107368500Y-105723505D01*
X107368500Y-103964500D01*
X107388502Y-103896379D01*
X107442158Y-103849886D01*
X107494500Y-103838500D01*
X108958134Y-103838500D01*
X109020316Y-103831745D01*
X109156705Y-103780615D01*
X109273261Y-103693261D01*
X109360615Y-103576705D01*
X109411745Y-103440316D01*
X109418500Y-103378134D01*
X109418500Y-101281866D01*
X109411745Y-101219684D01*
X109360615Y-101083295D01*
X109273261Y-100966739D01*
X109156705Y-100879385D01*
X109020316Y-100828255D01*
X108958134Y-100821500D01*
X104361866Y-100821500D01*
X104299684Y-100828255D01*
X104163295Y-100879385D01*
X104046739Y-100966739D01*
X103959385Y-101083295D01*
X103908255Y-101219684D01*
X103901500Y-101281866D01*
X103901500Y-103378134D01*
X103908255Y-103440316D01*
X103959385Y-103576705D01*
X104046739Y-103693261D01*
X104163295Y-103780615D01*
X104299684Y-103831745D01*
X104361866Y-103838500D01*
X105825500Y-103838500D01*
X105893621Y-103858502D01*
X105940114Y-103912158D01*
X105951500Y-103964500D01*
X105951500Y-105739645D01*
X105931498Y-105807766D01*
X105914714Y-105822309D01*
X105916104Y-105823514D01*
X105890671Y-105852865D01*
X105889000Y-105860548D01*
X105889000Y-107794885D01*
X105893475Y-107810124D01*
X105894865Y-107811329D01*
X105902548Y-107813000D01*
X105905438Y-107813000D01*
X105911959Y-107812663D01*
X105912649Y-107812591D01*
X105912801Y-107812619D01*
X105915197Y-107812495D01*
X105915227Y-107813066D01*
X105982470Y-107825461D01*
X106034248Y-107874035D01*
X106045694Y-107900193D01*
X106046757Y-107906284D01*
X106069985Y-107959197D01*
X106072442Y-107964795D01*
X106074933Y-107970899D01*
X106097513Y-108030656D01*
X106101817Y-108036919D01*
X106103054Y-108039285D01*
X106111299Y-108054097D01*
X106112632Y-108056351D01*
X106115685Y-108063305D01*
X106153796Y-108112970D01*
X106154579Y-108113991D01*
X106158459Y-108119332D01*
X106190339Y-108165720D01*
X106190344Y-108165725D01*
X106194643Y-108171981D01*
X106200313Y-108177032D01*
X106200314Y-108177034D01*
X106241170Y-108213435D01*
X106246446Y-108218416D01*
X110789595Y-112761566D01*
X110823621Y-112823878D01*
X110826500Y-112850661D01*
X110826500Y-113120500D01*
X110806498Y-113188621D01*
X110752842Y-113235114D01*
X110700500Y-113246500D01*
X109455660Y-113246500D01*
X109387539Y-113226498D01*
X109366565Y-113209595D01*
X106675414Y-110518444D01*
X106641388Y-110456132D01*
X106644951Y-110389577D01*
X106671660Y-110309285D01*
X106698197Y-110229513D01*
X106722985Y-110033295D01*
X106723380Y-110005000D01*
X106704080Y-109808167D01*
X106685995Y-109748265D01*
X106648697Y-109624731D01*
X106646916Y-109618831D01*
X106554066Y-109444204D01*
X106481153Y-109354804D01*
X106432960Y-109295713D01*
X106432957Y-109295710D01*
X106429065Y-109290938D01*
X106420605Y-109283939D01*
X106281425Y-109168799D01*
X106281421Y-109168797D01*
X106276675Y-109164870D01*
X106102701Y-109070802D01*
X105913768Y-109012318D01*
X105907643Y-109011674D01*
X105907642Y-109011674D01*
X105723204Y-108992289D01*
X105723202Y-108992289D01*
X105717075Y-108991645D01*
X105634576Y-108999153D01*
X105526251Y-109009011D01*
X105526248Y-109009012D01*
X105520112Y-109009570D01*
X105514206Y-109011308D01*
X105514202Y-109011309D01*
X105421295Y-109038653D01*
X105330381Y-109065410D01*
X105324923Y-109068263D01*
X105324919Y-109068265D01*
X105288297Y-109087411D01*
X105155110Y-109157040D01*
X105000975Y-109280968D01*
X104873846Y-109432474D01*
X104870879Y-109437872D01*
X104870875Y-109437877D01*
X104821487Y-109527715D01*
X104778567Y-109605787D01*
X104776706Y-109611654D01*
X104776705Y-109611656D01*
X104736113Y-109739619D01*
X104718765Y-109794306D01*
X104696719Y-109990851D01*
X104697235Y-109996995D01*
X104701681Y-110049938D01*
X104713268Y-110187934D01*
X104717015Y-110201000D01*
X104764046Y-110365017D01*
X104767783Y-110378050D01*
X104770602Y-110383535D01*
X104828625Y-110496434D01*
X104858187Y-110553956D01*
X104981035Y-110708953D01*
X104985728Y-110712947D01*
X104985729Y-110712948D01*
X104995290Y-110721085D01*
X105028999Y-110766392D01*
X105033803Y-110777334D01*
X105052442Y-110819795D01*
X105054933Y-110825899D01*
X105077513Y-110885656D01*
X105081817Y-110891919D01*
X105083054Y-110894285D01*
X105091299Y-110909097D01*
X105092632Y-110911351D01*
X105095685Y-110918305D01*
X105109814Y-110936717D01*
X105134579Y-110968991D01*
X105138459Y-110974332D01*
X105170339Y-111020720D01*
X105170344Y-111020725D01*
X105174643Y-111026981D01*
X105180313Y-111032032D01*
X105180314Y-111032034D01*
X105221170Y-111068435D01*
X105226446Y-111073416D01*
X106749460Y-112596431D01*
X106783486Y-112658743D01*
X106778421Y-112729559D01*
X106735874Y-112786394D01*
X106695939Y-112806400D01*
X106580381Y-112840410D01*
X106574923Y-112843263D01*
X106574919Y-112843265D01*
X106495613Y-112884726D01*
X106405110Y-112932040D01*
X106250975Y-113055968D01*
X106123846Y-113207474D01*
X106120879Y-113212872D01*
X106120875Y-113212877D01*
X106062140Y-113319718D01*
X106028567Y-113380787D01*
X106026706Y-113386654D01*
X106026705Y-113386656D01*
X105987163Y-113511309D01*
X105968765Y-113569306D01*
X105946719Y-113765851D01*
X105947235Y-113771996D01*
X105947235Y-113771998D01*
X105947865Y-113779504D01*
X105933632Y-113849060D01*
X105884054Y-113899878D01*
X105814872Y-113915825D01*
X105748050Y-113891838D01*
X105733212Y-113879140D01*
X101805405Y-109951333D01*
X101771379Y-109889021D01*
X101768500Y-109862238D01*
X101768500Y-107125438D01*
X104677000Y-107125438D01*
X104677337Y-107131953D01*
X104686894Y-107224057D01*
X104689788Y-107237456D01*
X104739381Y-107386107D01*
X104745555Y-107399286D01*
X104827788Y-107532173D01*
X104836824Y-107543574D01*
X104947429Y-107653986D01*
X104958840Y-107662998D01*
X105091880Y-107745004D01*
X105105061Y-107751151D01*
X105253814Y-107800491D01*
X105267190Y-107803358D01*
X105358097Y-107812672D01*
X105363126Y-107812929D01*
X105378124Y-107808525D01*
X105379329Y-107807135D01*
X105381000Y-107799452D01*
X105381000Y-107102115D01*
X105376525Y-107086876D01*
X105375135Y-107085671D01*
X105367452Y-107084000D01*
X104695115Y-107084000D01*
X104679876Y-107088475D01*
X104678671Y-107089865D01*
X104677000Y-107097548D01*
X104677000Y-107125438D01*
X101768500Y-107125438D01*
X101768500Y-106557885D01*
X104677000Y-106557885D01*
X104681475Y-106573124D01*
X104682865Y-106574329D01*
X104690548Y-106576000D01*
X105362885Y-106576000D01*
X105378124Y-106571525D01*
X105379329Y-106570135D01*
X105381000Y-106562452D01*
X105381000Y-105865115D01*
X105376525Y-105849876D01*
X105375135Y-105848671D01*
X105367452Y-105847000D01*
X105364562Y-105847000D01*
X105358047Y-105847337D01*
X105265943Y-105856894D01*
X105252544Y-105859788D01*
X105103893Y-105909381D01*
X105090714Y-105915555D01*
X104957827Y-105997788D01*
X104946426Y-106006824D01*
X104836014Y-106117429D01*
X104827002Y-106128840D01*
X104744996Y-106261880D01*
X104738849Y-106275061D01*
X104689509Y-106423814D01*
X104686642Y-106437190D01*
X104677328Y-106528097D01*
X104677000Y-106534514D01*
X104677000Y-106557885D01*
X101768500Y-106557885D01*
X101768500Y-102450660D01*
X101788502Y-102382539D01*
X101805405Y-102361565D01*
X104916565Y-99250405D01*
X104978877Y-99216379D01*
X105005660Y-99213500D01*
X124817237Y-99213500D01*
X124885358Y-99233502D01*
X124906333Y-99250405D01*
X125365974Y-99710047D01*
X125371827Y-99716312D01*
X125409848Y-99759896D01*
X125462138Y-99796647D01*
X125467380Y-99800539D01*
X125517691Y-99839987D01*
X125524610Y-99843111D01*
X125526902Y-99844499D01*
X125541574Y-99852868D01*
X125543934Y-99854133D01*
X125550148Y-99858501D01*
X125557227Y-99861261D01*
X125557229Y-99861262D01*
X125609684Y-99881713D01*
X125615753Y-99884264D01*
X125673982Y-99910556D01*
X125681455Y-99911941D01*
X125684021Y-99912745D01*
X125700244Y-99917366D01*
X125702836Y-99918031D01*
X125709918Y-99920793D01*
X125717453Y-99921785D01*
X125773270Y-99929133D01*
X125779786Y-99930165D01*
X125801541Y-99934197D01*
X125842595Y-99941806D01*
X125850175Y-99941369D01*
X125850176Y-99941369D01*
X125904789Y-99938220D01*
X125912042Y-99938011D01*
X126468819Y-99938011D01*
X126536940Y-99958013D01*
X126550482Y-99968057D01*
X126631650Y-100037136D01*
X126804294Y-100133624D01*
X126992392Y-100194740D01*
X127188777Y-100218158D01*
X127194912Y-100217686D01*
X127194914Y-100217686D01*
X127379830Y-100203457D01*
X127379834Y-100203456D01*
X127385972Y-100202984D01*
X127576463Y-100149798D01*
X127581967Y-100147018D01*
X127581969Y-100147017D01*
X127747495Y-100063404D01*
X127747497Y-100063403D01*
X127752996Y-100060625D01*
X127908847Y-99938861D01*
X128026195Y-99802912D01*
X128034049Y-99793813D01*
X128034050Y-99793811D01*
X128038078Y-99789145D01*
X128135769Y-99617179D01*
X128198197Y-99429513D01*
X128222985Y-99233295D01*
X128223380Y-99205000D01*
X128204080Y-99008167D01*
X128146916Y-98818831D01*
X128054066Y-98644204D01*
X127962111Y-98531456D01*
X127932960Y-98495713D01*
X127932957Y-98495710D01*
X127929065Y-98490938D01*
X127920807Y-98484106D01*
X127781425Y-98368799D01*
X127781421Y-98368797D01*
X127776675Y-98364870D01*
X127602701Y-98270802D01*
X127413768Y-98212318D01*
X127407643Y-98211674D01*
X127407642Y-98211674D01*
X127223204Y-98192289D01*
X127223202Y-98192289D01*
X127217075Y-98191645D01*
X127134576Y-98199153D01*
X127026251Y-98209011D01*
X127026248Y-98209012D01*
X127020112Y-98209570D01*
X127014206Y-98211308D01*
X127014202Y-98211309D01*
X126909076Y-98242249D01*
X126830381Y-98265410D01*
X126824923Y-98268263D01*
X126824919Y-98268265D01*
X126734147Y-98315720D01*
X126655110Y-98357040D01*
X126622799Y-98383019D01*
X126505779Y-98477105D01*
X126505776Y-98477108D01*
X126500975Y-98480968D01*
X126497464Y-98485152D01*
X126435012Y-98518406D01*
X126409524Y-98521011D01*
X126233069Y-98521011D01*
X126164948Y-98501009D01*
X126143974Y-98484106D01*
X125684348Y-98024480D01*
X125678494Y-98018215D01*
X125657832Y-97994530D01*
X125640459Y-97974615D01*
X125588178Y-97937871D01*
X125582884Y-97933939D01*
X125538591Y-97899209D01*
X125532616Y-97894524D01*
X125525700Y-97891401D01*
X125523414Y-97890017D01*
X125508733Y-97881643D01*
X125506373Y-97880378D01*
X125500159Y-97876010D01*
X125493080Y-97873250D01*
X125493078Y-97873249D01*
X125440623Y-97852798D01*
X125434554Y-97850247D01*
X125376325Y-97823955D01*
X125368858Y-97822571D01*
X125366303Y-97821770D01*
X125350050Y-97817141D01*
X125347470Y-97816478D01*
X125340389Y-97813718D01*
X125332858Y-97812727D01*
X125332856Y-97812726D01*
X125299964Y-97808396D01*
X125277037Y-97805378D01*
X125270539Y-97804348D01*
X125207712Y-97792704D01*
X125200132Y-97793141D01*
X125200131Y-97793141D01*
X125145506Y-97796291D01*
X125138252Y-97796500D01*
X104688927Y-97796500D01*
X104680358Y-97796208D01*
X104630225Y-97792790D01*
X104630221Y-97792790D01*
X104622648Y-97792274D01*
X104559681Y-97803264D01*
X104553169Y-97804224D01*
X104489758Y-97811898D01*
X104482657Y-97814581D01*
X104480048Y-97815222D01*
X104463715Y-97819691D01*
X104461195Y-97820452D01*
X104453717Y-97821757D01*
X104446765Y-97824809D01*
X104446764Y-97824809D01*
X104395204Y-97847441D01*
X104389099Y-97849932D01*
X104336456Y-97869825D01*
X104336452Y-97869827D01*
X104329344Y-97872513D01*
X104323083Y-97876816D01*
X104320717Y-97878053D01*
X104305937Y-97886280D01*
X104303652Y-97887631D01*
X104296695Y-97890685D01*
X104290675Y-97895305D01*
X104290669Y-97895308D01*
X104259542Y-97919194D01*
X104245998Y-97929587D01*
X104240668Y-97933459D01*
X104194280Y-97965339D01*
X104194275Y-97965344D01*
X104188019Y-97969643D01*
X104182968Y-97975313D01*
X104182966Y-97975314D01*
X104146565Y-98016170D01*
X104141584Y-98021446D01*
X100633595Y-101529435D01*
X100571283Y-101563461D01*
X100500468Y-101558396D01*
X100443632Y-101515849D01*
X100418821Y-101449329D01*
X100418500Y-101440340D01*
X100418500Y-101425660D01*
X100438502Y-101357539D01*
X100455405Y-101336565D01*
X104516565Y-97275405D01*
X104578877Y-97241379D01*
X104605660Y-97238500D01*
X125584210Y-97238500D01*
X125654914Y-97260658D01*
X125656650Y-97262136D01*
X125662023Y-97265139D01*
X125662026Y-97265141D01*
X125755522Y-97317394D01*
X125829294Y-97358624D01*
X126017392Y-97419740D01*
X126213777Y-97443158D01*
X126219912Y-97442686D01*
X126219914Y-97442686D01*
X126404830Y-97428457D01*
X126404834Y-97428456D01*
X126410972Y-97427984D01*
X126601463Y-97374798D01*
X126606967Y-97372018D01*
X126606969Y-97372017D01*
X126772495Y-97288404D01*
X126772497Y-97288403D01*
X126777996Y-97285625D01*
X126933847Y-97163861D01*
X127063078Y-97014145D01*
X127160769Y-96842179D01*
X127223197Y-96654513D01*
X127247985Y-96458295D01*
X127248380Y-96430000D01*
X127229080Y-96233167D01*
X127171916Y-96043831D01*
X127079066Y-95869204D01*
X126982760Y-95751121D01*
X126957960Y-95720713D01*
X126957957Y-95720710D01*
X126954065Y-95715938D01*
X126947726Y-95710694D01*
X126806425Y-95593799D01*
X126806421Y-95593797D01*
X126801675Y-95589870D01*
X126627701Y-95495802D01*
X126438768Y-95437318D01*
X126432643Y-95436674D01*
X126432642Y-95436674D01*
X126248204Y-95417289D01*
X126248202Y-95417289D01*
X126242075Y-95416645D01*
X126159576Y-95424153D01*
X126051251Y-95434011D01*
X126051248Y-95434012D01*
X126045112Y-95434570D01*
X126039206Y-95436308D01*
X126039202Y-95436309D01*
X125934076Y-95467249D01*
X125855381Y-95490410D01*
X125849923Y-95493263D01*
X125849919Y-95493265D01*
X125820707Y-95508537D01*
X125680110Y-95582040D01*
X125525975Y-95705968D01*
X125522016Y-95710686D01*
X125522008Y-95710694D01*
X125466798Y-95776491D01*
X125407689Y-95815818D01*
X125370277Y-95821500D01*
X104288927Y-95821500D01*
X104280358Y-95821208D01*
X104230225Y-95817790D01*
X104230221Y-95817790D01*
X104222648Y-95817274D01*
X104159681Y-95828264D01*
X104153169Y-95829224D01*
X104089758Y-95836898D01*
X104082657Y-95839581D01*
X104080048Y-95840222D01*
X104063715Y-95844691D01*
X104061195Y-95845452D01*
X104053717Y-95846757D01*
X104046765Y-95849809D01*
X104046764Y-95849809D01*
X103995204Y-95872441D01*
X103989099Y-95874932D01*
X103936456Y-95894825D01*
X103936452Y-95894827D01*
X103929344Y-95897513D01*
X103923083Y-95901816D01*
X103920717Y-95903053D01*
X103905937Y-95911280D01*
X103903652Y-95912631D01*
X103896695Y-95915685D01*
X103890675Y-95920305D01*
X103890669Y-95920308D01*
X103859542Y-95944194D01*
X103845998Y-95954587D01*
X103840668Y-95958459D01*
X103794280Y-95990339D01*
X103794275Y-95990344D01*
X103788019Y-95994643D01*
X103782968Y-96000313D01*
X103782966Y-96000314D01*
X103746565Y-96041170D01*
X103741584Y-96046446D01*
X99229480Y-100558550D01*
X99223215Y-100564404D01*
X99179615Y-100602439D01*
X99175248Y-100608653D01*
X99142872Y-100654719D01*
X99138939Y-100660014D01*
X99099524Y-100710282D01*
X99096401Y-100717198D01*
X99095017Y-100719484D01*
X99086643Y-100734165D01*
X99085378Y-100736525D01*
X99081010Y-100742739D01*
X99078250Y-100749818D01*
X99078249Y-100749820D01*
X99057798Y-100802275D01*
X99055247Y-100808344D01*
X99028955Y-100866573D01*
X99027571Y-100874040D01*
X99026770Y-100876595D01*
X99022141Y-100892848D01*
X99021478Y-100895428D01*
X99018718Y-100902509D01*
X99010971Y-100961358D01*
X99010379Y-100965852D01*
X99009348Y-100972359D01*
X98997704Y-101035186D01*
X98998141Y-101042766D01*
X98998141Y-101042767D01*
X99001291Y-101097392D01*
X99001500Y-101104646D01*
X99001500Y-112101088D01*
X99001208Y-112109658D01*
X98997275Y-112167352D01*
X98998580Y-112174829D01*
X98998580Y-112174830D01*
X99008261Y-112230299D01*
X99009223Y-112236821D01*
X99016898Y-112300242D01*
X99019581Y-112307343D01*
X99020222Y-112309952D01*
X99024685Y-112326262D01*
X99025450Y-112328798D01*
X99026757Y-112336284D01*
X99029811Y-112343241D01*
X99052442Y-112394795D01*
X99054933Y-112400899D01*
X99077513Y-112460656D01*
X99081817Y-112466919D01*
X99083054Y-112469285D01*
X99091299Y-112484097D01*
X99092632Y-112486351D01*
X99095685Y-112493305D01*
X99124022Y-112530233D01*
X99134579Y-112543991D01*
X99138459Y-112549332D01*
X99170339Y-112595720D01*
X99170344Y-112595725D01*
X99174643Y-112601981D01*
X99180313Y-112607032D01*
X99180314Y-112607034D01*
X99221170Y-112643435D01*
X99226446Y-112648416D01*
X101263557Y-114685528D01*
X101269411Y-114691793D01*
X101296978Y-114723393D01*
X101307439Y-114735385D01*
X101359729Y-114772136D01*
X101364971Y-114776028D01*
X101415282Y-114815476D01*
X101422201Y-114818600D01*
X101424493Y-114819988D01*
X101439165Y-114828356D01*
X101441519Y-114829618D01*
X101447739Y-114833990D01*
X101454821Y-114836751D01*
X101461512Y-114840339D01*
X101460415Y-114842384D01*
X101503491Y-114874201D01*
X101531035Y-114908953D01*
X101535728Y-114912947D01*
X101535729Y-114912948D01*
X101540701Y-114917179D01*
X101681650Y-115037136D01*
X101854294Y-115133624D01*
X102042392Y-115194740D01*
X102238777Y-115218158D01*
X102244912Y-115217686D01*
X102244914Y-115217686D01*
X102429830Y-115203457D01*
X102429834Y-115203456D01*
X102435972Y-115202984D01*
X102626463Y-115149798D01*
X102631967Y-115147018D01*
X102631969Y-115147017D01*
X102797495Y-115063404D01*
X102797497Y-115063403D01*
X102802996Y-115060625D01*
X102958847Y-114938861D01*
X103088078Y-114789145D01*
X103185769Y-114617179D01*
X103248197Y-114429513D01*
X103272985Y-114233295D01*
X103273380Y-114205000D01*
X103254080Y-114008167D01*
X103249261Y-113992204D01*
X103221388Y-113899886D01*
X103196916Y-113818831D01*
X103104066Y-113644204D01*
X102998584Y-113514870D01*
X102982960Y-113495713D01*
X102982957Y-113495710D01*
X102979065Y-113490938D01*
X102974316Y-113487009D01*
X102831425Y-113368799D01*
X102831421Y-113368797D01*
X102826675Y-113364870D01*
X102652701Y-113270802D01*
X102463768Y-113212318D01*
X102457643Y-113211674D01*
X102457642Y-113211674D01*
X102273204Y-113192289D01*
X102273202Y-113192289D01*
X102267075Y-113191645D01*
X102184576Y-113199153D01*
X102076251Y-113209011D01*
X102076248Y-113209012D01*
X102070112Y-113209570D01*
X102064206Y-113211308D01*
X102064202Y-113211309D01*
X101995203Y-113231616D01*
X101926652Y-113251792D01*
X101855656Y-113251837D01*
X101801983Y-113220013D01*
X100455405Y-111873435D01*
X100421379Y-111811123D01*
X100418500Y-111784340D01*
X100418500Y-110872558D01*
X100438502Y-110804437D01*
X100492158Y-110757944D01*
X100562432Y-110747840D01*
X100627012Y-110777334D01*
X100633595Y-110783463D01*
X103298608Y-113448477D01*
X105960659Y-116110528D01*
X105966513Y-116116793D01*
X106004541Y-116160385D01*
X106056831Y-116197136D01*
X106062073Y-116201028D01*
X106112384Y-116240476D01*
X106119303Y-116243600D01*
X106121595Y-116244988D01*
X106136267Y-116253357D01*
X106138627Y-116254622D01*
X106144841Y-116258990D01*
X106151920Y-116261750D01*
X106151922Y-116261751D01*
X106204377Y-116282202D01*
X106210446Y-116284753D01*
X106268675Y-116311045D01*
X106276148Y-116312430D01*
X106278714Y-116313234D01*
X106294937Y-116317855D01*
X106297529Y-116318520D01*
X106304611Y-116321282D01*
X106312146Y-116322274D01*
X106367963Y-116329622D01*
X106374479Y-116330654D01*
X106388038Y-116333167D01*
X106437288Y-116342295D01*
X106444868Y-116341858D01*
X106444869Y-116341858D01*
X106499482Y-116338709D01*
X106506735Y-116338500D01*
X108725500Y-116338500D01*
X108793621Y-116358502D01*
X108840114Y-116412158D01*
X108851500Y-116464500D01*
X108851500Y-116753134D01*
X108851869Y-116756531D01*
X108858255Y-116815316D01*
X108855826Y-116815580D01*
X108855826Y-116844420D01*
X108858255Y-116844684D01*
X108851500Y-116906866D01*
X108851500Y-117195500D01*
X108831498Y-117263621D01*
X108777842Y-117310114D01*
X108725500Y-117321500D01*
X106238911Y-117321500D01*
X106230342Y-117321208D01*
X106180223Y-117317791D01*
X106180219Y-117317791D01*
X106172647Y-117317275D01*
X106109685Y-117328264D01*
X106103195Y-117329221D01*
X106039758Y-117336898D01*
X106032649Y-117339584D01*
X106030078Y-117340216D01*
X106013772Y-117344676D01*
X106011204Y-117345451D01*
X106003716Y-117346758D01*
X105976028Y-117358912D01*
X105945212Y-117372439D01*
X105939105Y-117374931D01*
X105934953Y-117376500D01*
X105879344Y-117397513D01*
X105873083Y-117401816D01*
X105870717Y-117403053D01*
X105855937Y-117411280D01*
X105853652Y-117412631D01*
X105846695Y-117415685D01*
X105840675Y-117420305D01*
X105840669Y-117420308D01*
X105809542Y-117444194D01*
X105795998Y-117454587D01*
X105790668Y-117458459D01*
X105744280Y-117490339D01*
X105744275Y-117490344D01*
X105738019Y-117494643D01*
X105707568Y-117528821D01*
X105647317Y-117566376D01*
X105624912Y-117570482D01*
X105476251Y-117584011D01*
X105476248Y-117584012D01*
X105470112Y-117584570D01*
X105464206Y-117586308D01*
X105464202Y-117586309D01*
X105392232Y-117607491D01*
X105280381Y-117640410D01*
X105274923Y-117643263D01*
X105274919Y-117643265D01*
X105261371Y-117650348D01*
X105105110Y-117732040D01*
X104950975Y-117855968D01*
X104823846Y-118007474D01*
X104820879Y-118012872D01*
X104820875Y-118012877D01*
X104767192Y-118110528D01*
X104728567Y-118180787D01*
X104726706Y-118186654D01*
X104726705Y-118186656D01*
X104680466Y-118332421D01*
X104668765Y-118369306D01*
X104646719Y-118565851D01*
X104647235Y-118571995D01*
X104662505Y-118753844D01*
X104663268Y-118762934D01*
X104685397Y-118840108D01*
X104716052Y-118947012D01*
X104717783Y-118953050D01*
X104734883Y-118986323D01*
X104793161Y-119099718D01*
X104808187Y-119128956D01*
X104931035Y-119283953D01*
X105081650Y-119412136D01*
X105254294Y-119508624D01*
X105442392Y-119569740D01*
X105638777Y-119593158D01*
X105644912Y-119592686D01*
X105644914Y-119592686D01*
X105829830Y-119578457D01*
X105829834Y-119578456D01*
X105835972Y-119577984D01*
X106026463Y-119524798D01*
X106031967Y-119522018D01*
X106031969Y-119522017D01*
X106197495Y-119438404D01*
X106197497Y-119438403D01*
X106202996Y-119435625D01*
X106358847Y-119313861D01*
X106488078Y-119164145D01*
X106585769Y-118992179D01*
X106641472Y-118824729D01*
X106681953Y-118766404D01*
X106747541Y-118739224D01*
X106761030Y-118738500D01*
X107195340Y-118738500D01*
X107263461Y-118758502D01*
X107309954Y-118812158D01*
X107320058Y-118882432D01*
X107290564Y-118947012D01*
X107284435Y-118953595D01*
X105704069Y-120533961D01*
X105641757Y-120567987D01*
X105626394Y-120570347D01*
X105476251Y-120584011D01*
X105476248Y-120584012D01*
X105470112Y-120584570D01*
X105464206Y-120586308D01*
X105464202Y-120586309D01*
X105388725Y-120608523D01*
X105280381Y-120640410D01*
X105274923Y-120643263D01*
X105274919Y-120643265D01*
X105184147Y-120690720D01*
X105105110Y-120732040D01*
X104950975Y-120855968D01*
X104823846Y-121007474D01*
X104820879Y-121012872D01*
X104820875Y-121012877D01*
X104805672Y-121040532D01*
X104728567Y-121180787D01*
X104668765Y-121369306D01*
X104646719Y-121565851D01*
X104663268Y-121762934D01*
X104673436Y-121798393D01*
X104714004Y-121939870D01*
X104717783Y-121953050D01*
X104720602Y-121958535D01*
X104764370Y-122043697D01*
X104808187Y-122128956D01*
X104931035Y-122283953D01*
X104935728Y-122287947D01*
X104935729Y-122287948D01*
X105060142Y-122393831D01*
X105081650Y-122412136D01*
X105254294Y-122508624D01*
X105442392Y-122569740D01*
X105638777Y-122593158D01*
X105644912Y-122592686D01*
X105644914Y-122592686D01*
X105829830Y-122578457D01*
X105829834Y-122578456D01*
X105835972Y-122577984D01*
X106026463Y-122524798D01*
X106031967Y-122522018D01*
X106031969Y-122522017D01*
X106197495Y-122438404D01*
X106197497Y-122438403D01*
X106202996Y-122435625D01*
X106358847Y-122313861D01*
X106488078Y-122164145D01*
X106585769Y-121992179D01*
X106648197Y-121804513D01*
X106672985Y-121608295D01*
X106674221Y-121608451D01*
X106697140Y-121546685D01*
X106709040Y-121532930D01*
X108032169Y-120209802D01*
X108094481Y-120175776D01*
X108165297Y-120180841D01*
X108222132Y-120223388D01*
X108246943Y-120289908D01*
X108236100Y-120350749D01*
X108228955Y-120366573D01*
X108227571Y-120374040D01*
X108226770Y-120376595D01*
X108222141Y-120392848D01*
X108221478Y-120395428D01*
X108218718Y-120402509D01*
X108217727Y-120410040D01*
X108217726Y-120410042D01*
X108210379Y-120465852D01*
X108209348Y-120472359D01*
X108197704Y-120535186D01*
X108198141Y-120542766D01*
X108198141Y-120542767D01*
X108201291Y-120597392D01*
X108201500Y-120604646D01*
X108201500Y-125509340D01*
X108181498Y-125577461D01*
X108164595Y-125598435D01*
X107829069Y-125933961D01*
X107766757Y-125967987D01*
X107751394Y-125970347D01*
X107601251Y-125984011D01*
X107601248Y-125984012D01*
X107595112Y-125984570D01*
X107589206Y-125986308D01*
X107589202Y-125986309D01*
X107506427Y-126010671D01*
X107405381Y-126040410D01*
X107399923Y-126043263D01*
X107399919Y-126043265D01*
X107322478Y-126083751D01*
X107230110Y-126132040D01*
X107075975Y-126255968D01*
X107072011Y-126260692D01*
X107066343Y-126267447D01*
X106948846Y-126407474D01*
X106945879Y-126412872D01*
X106945875Y-126412877D01*
X106867731Y-126555023D01*
X106853567Y-126580787D01*
X106851705Y-126586656D01*
X106851704Y-126586659D01*
X106829549Y-126656501D01*
X106789886Y-126715385D01*
X106724684Y-126743478D01*
X106654644Y-126731861D01*
X106611804Y-126698039D01*
X106598956Y-126682285D01*
X106558911Y-126633186D01*
X106507960Y-126570713D01*
X106507957Y-126570710D01*
X106504065Y-126565938D01*
X106497724Y-126560692D01*
X106356425Y-126443799D01*
X106356421Y-126443797D01*
X106351675Y-126439870D01*
X106177701Y-126345802D01*
X105988768Y-126287318D01*
X105982643Y-126286674D01*
X105982642Y-126286674D01*
X105798204Y-126267289D01*
X105798202Y-126267289D01*
X105792075Y-126266645D01*
X105728410Y-126272439D01*
X105601251Y-126284011D01*
X105601248Y-126284012D01*
X105595112Y-126284570D01*
X105589206Y-126286308D01*
X105589202Y-126286309D01*
X105487495Y-126316243D01*
X105405381Y-126340410D01*
X105399923Y-126343263D01*
X105399919Y-126343265D01*
X105342281Y-126373398D01*
X105230110Y-126432040D01*
X105075975Y-126555968D01*
X105072011Y-126560692D01*
X105063602Y-126570713D01*
X104948846Y-126707474D01*
X104945879Y-126712872D01*
X104945875Y-126712877D01*
X104911918Y-126774646D01*
X104853567Y-126880787D01*
X104851706Y-126886654D01*
X104851705Y-126886656D01*
X104812678Y-127009686D01*
X104793765Y-127069306D01*
X104771719Y-127265851D01*
X104772235Y-127271995D01*
X104787492Y-127453689D01*
X104788268Y-127462934D01*
X104795599Y-127488499D01*
X104827400Y-127599402D01*
X104842783Y-127653050D01*
X104845602Y-127658535D01*
X104897633Y-127759775D01*
X104933187Y-127828956D01*
X105056035Y-127983953D01*
X105060728Y-127987947D01*
X105060729Y-127987948D01*
X105191728Y-128099436D01*
X105206650Y-128112136D01*
X105379294Y-128208624D01*
X105567392Y-128269740D01*
X105744355Y-128290842D01*
X105757253Y-128292380D01*
X105822526Y-128320308D01*
X105831429Y-128328399D01*
X106413550Y-128910520D01*
X106419404Y-128916785D01*
X106457439Y-128960385D01*
X106505093Y-128993876D01*
X106509697Y-128997112D01*
X106514993Y-129001045D01*
X106565282Y-129040477D01*
X106572204Y-129043602D01*
X106574452Y-129044964D01*
X106589185Y-129053368D01*
X106591524Y-129054622D01*
X106597739Y-129058990D01*
X106604815Y-129061749D01*
X106604819Y-129061751D01*
X106657274Y-129082202D01*
X106663352Y-129084757D01*
X106721574Y-129111045D01*
X106729045Y-129112429D01*
X106731599Y-129113230D01*
X106747878Y-129117867D01*
X106750433Y-129118523D01*
X106757509Y-129121282D01*
X106778262Y-129124014D01*
X106820851Y-129129621D01*
X106827367Y-129130653D01*
X106877551Y-129139954D01*
X106890187Y-129142296D01*
X106897767Y-129141859D01*
X106897768Y-129141859D01*
X106952398Y-129138709D01*
X106959651Y-129138500D01*
X114056088Y-129138500D01*
X114064658Y-129138792D01*
X114114776Y-129142209D01*
X114114780Y-129142209D01*
X114122352Y-129142725D01*
X114129829Y-129141420D01*
X114129830Y-129141420D01*
X114156308Y-129136799D01*
X114185303Y-129131738D01*
X114191821Y-129130777D01*
X114255242Y-129123102D01*
X114262343Y-129120419D01*
X114264952Y-129119778D01*
X114281262Y-129115315D01*
X114283798Y-129114550D01*
X114291284Y-129113243D01*
X114349800Y-129087556D01*
X114355904Y-129085065D01*
X114356717Y-129084758D01*
X114415656Y-129062487D01*
X114421919Y-129058183D01*
X114424285Y-129056946D01*
X114439097Y-129048701D01*
X114441351Y-129047368D01*
X114448305Y-129044315D01*
X114499002Y-129005413D01*
X114504332Y-129001541D01*
X114550720Y-128969661D01*
X114550725Y-128969656D01*
X114556981Y-128965357D01*
X114598436Y-128918829D01*
X114603416Y-128913554D01*
X116016566Y-127500405D01*
X116078878Y-127466379D01*
X116105661Y-127463500D01*
X116239572Y-127463500D01*
X116242818Y-127463163D01*
X116242822Y-127463163D01*
X116276603Y-127459658D01*
X116340982Y-127452978D01*
X116501849Y-127399308D01*
X116646055Y-127310071D01*
X116690198Y-127265851D01*
X116730497Y-127225482D01*
X116792780Y-127191403D01*
X116819670Y-127188500D01*
X117731088Y-127188500D01*
X117739658Y-127188792D01*
X117789776Y-127192209D01*
X117789780Y-127192209D01*
X117797352Y-127192725D01*
X117804829Y-127191420D01*
X117804830Y-127191420D01*
X117831308Y-127186799D01*
X117860303Y-127181738D01*
X117866821Y-127180777D01*
X117930242Y-127173102D01*
X117937343Y-127170419D01*
X117939952Y-127169778D01*
X117956262Y-127165315D01*
X117958798Y-127164550D01*
X117966284Y-127163243D01*
X118024800Y-127137556D01*
X118030904Y-127135065D01*
X118083548Y-127115173D01*
X118083549Y-127115172D01*
X118090656Y-127112487D01*
X118096919Y-127108183D01*
X118099285Y-127106946D01*
X118114097Y-127098701D01*
X118116351Y-127097368D01*
X118123305Y-127094315D01*
X118174002Y-127055413D01*
X118179332Y-127051541D01*
X118225720Y-127019661D01*
X118225725Y-127019656D01*
X118231981Y-127015357D01*
X118237700Y-127008939D01*
X118273435Y-126968830D01*
X118278416Y-126963554D01*
X119670905Y-125571065D01*
X119733217Y-125537039D01*
X119804032Y-125542104D01*
X119849095Y-125571065D01*
X120083935Y-125805905D01*
X120117961Y-125868217D01*
X120112896Y-125939032D01*
X120083935Y-125984095D01*
X119839480Y-126228550D01*
X119833215Y-126234404D01*
X119789615Y-126272439D01*
X119758829Y-126316243D01*
X119752872Y-126324719D01*
X119748939Y-126330014D01*
X119709524Y-126380282D01*
X119706401Y-126387198D01*
X119705017Y-126389484D01*
X119696643Y-126404165D01*
X119695378Y-126406525D01*
X119691010Y-126412739D01*
X119688250Y-126419818D01*
X119688249Y-126419820D01*
X119667798Y-126472275D01*
X119665247Y-126478344D01*
X119638955Y-126536573D01*
X119637571Y-126544040D01*
X119636770Y-126546595D01*
X119632141Y-126562848D01*
X119631478Y-126565428D01*
X119628718Y-126572509D01*
X119627727Y-126580040D01*
X119627726Y-126580042D01*
X119620379Y-126635852D01*
X119619348Y-126642359D01*
X119607704Y-126705186D01*
X119608141Y-126712766D01*
X119608141Y-126712767D01*
X119611291Y-126767392D01*
X119611500Y-126774646D01*
X119611500Y-127575794D01*
X119609829Y-127593472D01*
X119608938Y-127596265D01*
X119608421Y-127603846D01*
X119608421Y-127603847D01*
X119597791Y-127759775D01*
X119597791Y-127759779D01*
X119597275Y-127767352D01*
X119598580Y-127774829D01*
X119598580Y-127774832D01*
X119609624Y-127838112D01*
X119611500Y-127859774D01*
X119611500Y-128131487D01*
X119603482Y-128175716D01*
X119571029Y-128262285D01*
X119568255Y-128269684D01*
X119567402Y-128277532D01*
X119567402Y-128277534D01*
X119561877Y-128328399D01*
X119561500Y-128331866D01*
X119561500Y-129272513D01*
X119541498Y-129340634D01*
X119487842Y-129387127D01*
X119417568Y-129397231D01*
X119352988Y-129367737D01*
X119346405Y-129361608D01*
X119015405Y-129030608D01*
X118981379Y-128968296D01*
X118978500Y-128941513D01*
X118978500Y-128581866D01*
X118971745Y-128519684D01*
X118920615Y-128383295D01*
X118833261Y-128266739D01*
X118716705Y-128179385D01*
X118580316Y-128128255D01*
X118518134Y-128121500D01*
X116421866Y-128121500D01*
X116359684Y-128128255D01*
X116223295Y-128179385D01*
X116106739Y-128266739D01*
X116019385Y-128383295D01*
X115968255Y-128519684D01*
X115961500Y-128581866D01*
X115961500Y-130378134D01*
X115968255Y-130440316D01*
X116019385Y-130576705D01*
X116106739Y-130693261D01*
X116223295Y-130780615D01*
X116359684Y-130831745D01*
X116421866Y-130838500D01*
X116635500Y-130838500D01*
X116703621Y-130858502D01*
X116750114Y-130912158D01*
X116761500Y-130964500D01*
X116761500Y-133445500D01*
X116741498Y-133513621D01*
X116687842Y-133560114D01*
X116635500Y-133571500D01*
X116421866Y-133571500D01*
X116359684Y-133578255D01*
X116223295Y-133629385D01*
X116106739Y-133716739D01*
X116019385Y-133833295D01*
X115968255Y-133969684D01*
X115961500Y-134031866D01*
X115961500Y-135828134D01*
X115968255Y-135890316D01*
X116019385Y-136026705D01*
X116106739Y-136143261D01*
X116223295Y-136230615D01*
X116359684Y-136281745D01*
X116421866Y-136288500D01*
X118518134Y-136288500D01*
X118580316Y-136281745D01*
X118716705Y-136230615D01*
X118833261Y-136143261D01*
X118920615Y-136026705D01*
X118971745Y-135890316D01*
X118978500Y-135828134D01*
X118978500Y-135764500D01*
X118998502Y-135696379D01*
X119052158Y-135649886D01*
X119104500Y-135638500D01*
X124735500Y-135638500D01*
X124803621Y-135658502D01*
X124850114Y-135712158D01*
X124861500Y-135764500D01*
X124861500Y-135828134D01*
X124868255Y-135890316D01*
X124919385Y-136026705D01*
X125006739Y-136143261D01*
X125123295Y-136230615D01*
X125259684Y-136281745D01*
X125321866Y-136288500D01*
X127418134Y-136288500D01*
X127480316Y-136281745D01*
X127616705Y-136230615D01*
X127733261Y-136143261D01*
X127820615Y-136026705D01*
X127871745Y-135890316D01*
X127878500Y-135828134D01*
X127878500Y-134031866D01*
X127871745Y-133969684D01*
X127820615Y-133833295D01*
X127733261Y-133716739D01*
X127616705Y-133629385D01*
X127480316Y-133578255D01*
X127418134Y-133571500D01*
X127204500Y-133571500D01*
X127136379Y-133551498D01*
X127089886Y-133497842D01*
X127078500Y-133445500D01*
X127078500Y-130964500D01*
X127098502Y-130896379D01*
X127152158Y-130849886D01*
X127204500Y-130838500D01*
X127418134Y-130838500D01*
X127480316Y-130831745D01*
X127616705Y-130780615D01*
X127733261Y-130693261D01*
X127820615Y-130576705D01*
X127871745Y-130440316D01*
X127878500Y-130378134D01*
X127878500Y-128754660D01*
X127898502Y-128686539D01*
X127952158Y-128640046D01*
X128022432Y-128629942D01*
X128087012Y-128659436D01*
X128093595Y-128665565D01*
X130763550Y-131335520D01*
X130769404Y-131341785D01*
X130807439Y-131385385D01*
X130813653Y-131389752D01*
X130859719Y-131422128D01*
X130865014Y-131426061D01*
X130915282Y-131465476D01*
X130922198Y-131468599D01*
X130924484Y-131469983D01*
X130939180Y-131478365D01*
X130941525Y-131479622D01*
X130947739Y-131483990D01*
X130951956Y-131485634D01*
X130999174Y-131530443D01*
X131023361Y-131570381D01*
X131039595Y-131586615D01*
X131073621Y-131648927D01*
X131076500Y-131675710D01*
X131076500Y-134301088D01*
X131076208Y-134309658D01*
X131072799Y-134359672D01*
X131072275Y-134367352D01*
X131073580Y-134374829D01*
X131073580Y-134374830D01*
X131083261Y-134430299D01*
X131084223Y-134436821D01*
X131091898Y-134500242D01*
X131094581Y-134507343D01*
X131095222Y-134509952D01*
X131099685Y-134526262D01*
X131100450Y-134528798D01*
X131101757Y-134536284D01*
X131108426Y-134551475D01*
X131127442Y-134594795D01*
X131129933Y-134600899D01*
X131152513Y-134660656D01*
X131156817Y-134666919D01*
X131158054Y-134669285D01*
X131166299Y-134684097D01*
X131167632Y-134686351D01*
X131170685Y-134693305D01*
X131175307Y-134699328D01*
X131209579Y-134743991D01*
X131213459Y-134749332D01*
X131245339Y-134795720D01*
X131245344Y-134795725D01*
X131249643Y-134801981D01*
X131255313Y-134807032D01*
X131255314Y-134807034D01*
X131296170Y-134843435D01*
X131301446Y-134848416D01*
X134413434Y-137960405D01*
X134447460Y-138022717D01*
X134442395Y-138093533D01*
X134399848Y-138150368D01*
X134333328Y-138175179D01*
X134324339Y-138175500D01*
X97408500Y-138175500D01*
X97340379Y-138155498D01*
X97293886Y-138101842D01*
X97282500Y-138049500D01*
X97282500Y-131289695D01*
X104570251Y-131289695D01*
X104570548Y-131294848D01*
X104570548Y-131294851D01*
X104576011Y-131389590D01*
X104583110Y-131512715D01*
X104584247Y-131517761D01*
X104584248Y-131517767D01*
X104587133Y-131530568D01*
X104632222Y-131730639D01*
X104683614Y-131857204D01*
X104707838Y-131916859D01*
X104716266Y-131937616D01*
X104767019Y-132020438D01*
X104830291Y-132123688D01*
X104832987Y-132128088D01*
X104979250Y-132296938D01*
X104983230Y-132300242D01*
X104987981Y-132304187D01*
X105027616Y-132363090D01*
X105029113Y-132434071D01*
X104991997Y-132494593D01*
X104951725Y-132519112D01*
X104910913Y-132534412D01*
X104836295Y-132562385D01*
X104719739Y-132649739D01*
X104632385Y-132766295D01*
X104581255Y-132902684D01*
X104574500Y-132964866D01*
X104574500Y-134761134D01*
X104581255Y-134823316D01*
X104632385Y-134959705D01*
X104719739Y-135076261D01*
X104836295Y-135163615D01*
X104972684Y-135214745D01*
X105034866Y-135221500D01*
X106831134Y-135221500D01*
X106893316Y-135214745D01*
X107029705Y-135163615D01*
X107146261Y-135076261D01*
X107233615Y-134959705D01*
X107255799Y-134900529D01*
X107277598Y-134842382D01*
X107320240Y-134785618D01*
X107386802Y-134760918D01*
X107456150Y-134776126D01*
X107490817Y-134804114D01*
X107519250Y-134836938D01*
X107691126Y-134979632D01*
X107884000Y-135092338D01*
X108092692Y-135172030D01*
X108097760Y-135173061D01*
X108097763Y-135173062D01*
X108192862Y-135192410D01*
X108311597Y-135216567D01*
X108316772Y-135216757D01*
X108316774Y-135216757D01*
X108529673Y-135224564D01*
X108529677Y-135224564D01*
X108534837Y-135224753D01*
X108539957Y-135224097D01*
X108539959Y-135224097D01*
X108751288Y-135197025D01*
X108751289Y-135197025D01*
X108756416Y-135196368D01*
X108761366Y-135194883D01*
X108965429Y-135133661D01*
X108965434Y-135133659D01*
X108970384Y-135132174D01*
X109170994Y-135033896D01*
X109352860Y-134904173D01*
X109511096Y-134746489D01*
X109544985Y-134699328D01*
X109641453Y-134565077D01*
X109642640Y-134565930D01*
X109689960Y-134522362D01*
X109759897Y-134510145D01*
X109825338Y-134537678D01*
X109853166Y-134569511D01*
X109910694Y-134663388D01*
X109916777Y-134671699D01*
X110056213Y-134832667D01*
X110063580Y-134839883D01*
X110227434Y-134975916D01*
X110235881Y-134981831D01*
X110419756Y-135089279D01*
X110429042Y-135093729D01*
X110628001Y-135169703D01*
X110637899Y-135172579D01*
X110741250Y-135193606D01*
X110755299Y-135192410D01*
X110759000Y-135182065D01*
X110759000Y-135181517D01*
X111267000Y-135181517D01*
X111271064Y-135195359D01*
X111284478Y-135197393D01*
X111291184Y-135196534D01*
X111301262Y-135194392D01*
X111505255Y-135133191D01*
X111514842Y-135129433D01*
X111706095Y-135035739D01*
X111714945Y-135030464D01*
X111888328Y-134906792D01*
X111896200Y-134900139D01*
X112047052Y-134749812D01*
X112053730Y-134741965D01*
X112178003Y-134569020D01*
X112183313Y-134560183D01*
X112277670Y-134369267D01*
X112281469Y-134359672D01*
X112343377Y-134155910D01*
X112345555Y-134145837D01*
X112346986Y-134134962D01*
X112344775Y-134120778D01*
X112331617Y-134117000D01*
X111285115Y-134117000D01*
X111269876Y-134121475D01*
X111268671Y-134122865D01*
X111267000Y-134130548D01*
X111267000Y-135181517D01*
X110759000Y-135181517D01*
X110759000Y-133735000D01*
X110779002Y-133666879D01*
X110832658Y-133620386D01*
X110885000Y-133609000D01*
X112331344Y-133609000D01*
X112344875Y-133605027D01*
X112346180Y-133595947D01*
X112304214Y-133428875D01*
X112300894Y-133419124D01*
X112215972Y-133223814D01*
X112211105Y-133214739D01*
X112095426Y-133035926D01*
X112089136Y-133027757D01*
X111945806Y-132870240D01*
X111938273Y-132863215D01*
X111771139Y-132731222D01*
X111762556Y-132725520D01*
X111725602Y-132705120D01*
X111675631Y-132654687D01*
X111660859Y-132585245D01*
X111685975Y-132518839D01*
X111713327Y-132492232D01*
X111759049Y-132459619D01*
X111892860Y-132364173D01*
X112051096Y-132206489D01*
X112059861Y-132194292D01*
X112178435Y-132029277D01*
X112181453Y-132025077D01*
X112196185Y-131995270D01*
X112278136Y-131829453D01*
X112278137Y-131829451D01*
X112280430Y-131824811D01*
X112320891Y-131691639D01*
X112343865Y-131616023D01*
X112343865Y-131616021D01*
X112345370Y-131611069D01*
X112374529Y-131389590D01*
X112374772Y-131379662D01*
X112376074Y-131326365D01*
X112376074Y-131326361D01*
X112376156Y-131323000D01*
X112357852Y-131100361D01*
X112303431Y-130883702D01*
X112214354Y-130678840D01*
X112148280Y-130576705D01*
X112095822Y-130495617D01*
X112095820Y-130495614D01*
X112093014Y-130491277D01*
X111942670Y-130326051D01*
X111938619Y-130322852D01*
X111938615Y-130322848D01*
X111771414Y-130190800D01*
X111771410Y-130190798D01*
X111767359Y-130187598D01*
X111571789Y-130079638D01*
X111566920Y-130077914D01*
X111566916Y-130077912D01*
X111366087Y-130006795D01*
X111366083Y-130006794D01*
X111361212Y-130005069D01*
X111356119Y-130004162D01*
X111356116Y-130004161D01*
X111146373Y-129966800D01*
X111146367Y-129966799D01*
X111141284Y-129965894D01*
X111067452Y-129964992D01*
X110923081Y-129963228D01*
X110923079Y-129963228D01*
X110917911Y-129963165D01*
X110697091Y-129996955D01*
X110484756Y-130066357D01*
X110286607Y-130169507D01*
X110282474Y-130172610D01*
X110282471Y-130172612D01*
X110112100Y-130300530D01*
X110107965Y-130303635D01*
X109953629Y-130465138D01*
X109846201Y-130622621D01*
X109791293Y-130667621D01*
X109720768Y-130675792D01*
X109657021Y-130644538D01*
X109636324Y-130620054D01*
X109555822Y-130495617D01*
X109555820Y-130495614D01*
X109553014Y-130491277D01*
X109402670Y-130326051D01*
X109398619Y-130322852D01*
X109398615Y-130322848D01*
X109231414Y-130190800D01*
X109231410Y-130190798D01*
X109227359Y-130187598D01*
X109031789Y-130079638D01*
X109026920Y-130077914D01*
X109026916Y-130077912D01*
X108826087Y-130006795D01*
X108826083Y-130006794D01*
X108821212Y-130005069D01*
X108816119Y-130004162D01*
X108816116Y-130004161D01*
X108606373Y-129966800D01*
X108606367Y-129966799D01*
X108601284Y-129965894D01*
X108527452Y-129964992D01*
X108383081Y-129963228D01*
X108383079Y-129963228D01*
X108377911Y-129963165D01*
X108157091Y-129996955D01*
X107944756Y-130066357D01*
X107746607Y-130169507D01*
X107742474Y-130172610D01*
X107742471Y-130172612D01*
X107572100Y-130300530D01*
X107567965Y-130303635D01*
X107413629Y-130465138D01*
X107306201Y-130622621D01*
X107251293Y-130667621D01*
X107180768Y-130675792D01*
X107117021Y-130644538D01*
X107096324Y-130620054D01*
X107015822Y-130495617D01*
X107015820Y-130495614D01*
X107013014Y-130491277D01*
X106862670Y-130326051D01*
X106858619Y-130322852D01*
X106858615Y-130322848D01*
X106691414Y-130190800D01*
X106691410Y-130190798D01*
X106687359Y-130187598D01*
X106491789Y-130079638D01*
X106486920Y-130077914D01*
X106486916Y-130077912D01*
X106286087Y-130006795D01*
X106286083Y-130006794D01*
X106281212Y-130005069D01*
X106276119Y-130004162D01*
X106276116Y-130004161D01*
X106066373Y-129966800D01*
X106066367Y-129966799D01*
X106061284Y-129965894D01*
X105987452Y-129964992D01*
X105843081Y-129963228D01*
X105843079Y-129963228D01*
X105837911Y-129963165D01*
X105617091Y-129996955D01*
X105404756Y-130066357D01*
X105206607Y-130169507D01*
X105202474Y-130172610D01*
X105202471Y-130172612D01*
X105032100Y-130300530D01*
X105027965Y-130303635D01*
X104873629Y-130465138D01*
X104747743Y-130649680D01*
X104725016Y-130698642D01*
X104662836Y-130832598D01*
X104653688Y-130852305D01*
X104593989Y-131067570D01*
X104570251Y-131289695D01*
X97282500Y-131289695D01*
X97282500Y-80010000D01*
X106575193Y-80010000D01*
X106594385Y-80229371D01*
X106651380Y-80442076D01*
X106653705Y-80447061D01*
X106742118Y-80636666D01*
X106742121Y-80636671D01*
X106744444Y-80641653D01*
X106870751Y-80822038D01*
X107026462Y-80977749D01*
X107206846Y-81104056D01*
X107406424Y-81197120D01*
X107619129Y-81254115D01*
X107838500Y-81273307D01*
X108057871Y-81254115D01*
X108270576Y-81197120D01*
X108470154Y-81104056D01*
X108650538Y-80977749D01*
X108806249Y-80822038D01*
X108932556Y-80641653D01*
X108934879Y-80636671D01*
X108934882Y-80636666D01*
X109023295Y-80447061D01*
X109025620Y-80442076D01*
X109082615Y-80229371D01*
X109101807Y-80010000D01*
X121815193Y-80010000D01*
X121834385Y-80229371D01*
X121891380Y-80442076D01*
X121893705Y-80447061D01*
X121982118Y-80636666D01*
X121982121Y-80636671D01*
X121984444Y-80641653D01*
X122110751Y-80822038D01*
X122266462Y-80977749D01*
X122446846Y-81104056D01*
X122646424Y-81197120D01*
X122859129Y-81254115D01*
X123078500Y-81273307D01*
X123297871Y-81254115D01*
X123510576Y-81197120D01*
X123710154Y-81104056D01*
X123890538Y-80977749D01*
X124046249Y-80822038D01*
X124172556Y-80641653D01*
X124174879Y-80636671D01*
X124174882Y-80636666D01*
X124263295Y-80447061D01*
X124265620Y-80442076D01*
X124322615Y-80229371D01*
X124341807Y-80010000D01*
X124322615Y-79790629D01*
X124265620Y-79577924D01*
X124222085Y-79484562D01*
X124174882Y-79383334D01*
X124174879Y-79383329D01*
X124172556Y-79378347D01*
X124046249Y-79197962D01*
X123890538Y-79042251D01*
X123710154Y-78915944D01*
X123705172Y-78913621D01*
X123705167Y-78913618D01*
X123577732Y-78854195D01*
X123524447Y-78807278D01*
X123504986Y-78739001D01*
X123525528Y-78671041D01*
X123577732Y-78625805D01*
X123705167Y-78566382D01*
X123705172Y-78566379D01*
X123710154Y-78564056D01*
X123890538Y-78437749D01*
X124046249Y-78282038D01*
X124172556Y-78101653D01*
X124174879Y-78096671D01*
X124174882Y-78096666D01*
X124263295Y-77907061D01*
X124265620Y-77902076D01*
X124322615Y-77689371D01*
X124341807Y-77470000D01*
X124322615Y-77250629D01*
X124265620Y-77037924D01*
X124222085Y-76944562D01*
X124174882Y-76843334D01*
X124174879Y-76843329D01*
X124172556Y-76838347D01*
X124046249Y-76657962D01*
X123890538Y-76502251D01*
X123710154Y-76375944D01*
X123705172Y-76373621D01*
X123705167Y-76373618D01*
X123577732Y-76314195D01*
X123524447Y-76267278D01*
X123504986Y-76199001D01*
X123525528Y-76131041D01*
X123577732Y-76085805D01*
X123705167Y-76026382D01*
X123705172Y-76026379D01*
X123710154Y-76024056D01*
X123890538Y-75897749D01*
X124046249Y-75742038D01*
X124172556Y-75561653D01*
X124174879Y-75556671D01*
X124174882Y-75556666D01*
X124263295Y-75367061D01*
X124265620Y-75362076D01*
X124322615Y-75149371D01*
X124341807Y-74930000D01*
X124322615Y-74710629D01*
X124265620Y-74497924D01*
X124222085Y-74404562D01*
X124174882Y-74303334D01*
X124174879Y-74303329D01*
X124172556Y-74298347D01*
X124046249Y-74117962D01*
X123890538Y-73962251D01*
X123710154Y-73835944D01*
X123705172Y-73833621D01*
X123705167Y-73833618D01*
X123577732Y-73774195D01*
X123524447Y-73727278D01*
X123504986Y-73659001D01*
X123525528Y-73591041D01*
X123577732Y-73545805D01*
X123705167Y-73486382D01*
X123705172Y-73486379D01*
X123710154Y-73484056D01*
X123890538Y-73357749D01*
X124046249Y-73202038D01*
X124172556Y-73021653D01*
X124174879Y-73016671D01*
X124174882Y-73016666D01*
X124263295Y-72827061D01*
X124265620Y-72822076D01*
X124322615Y-72609371D01*
X124341807Y-72390000D01*
X124322615Y-72170629D01*
X124265620Y-71957924D01*
X124222085Y-71864562D01*
X124174882Y-71763334D01*
X124174879Y-71763329D01*
X124172556Y-71758347D01*
X124046249Y-71577962D01*
X123890538Y-71422251D01*
X123710154Y-71295944D01*
X123705172Y-71293621D01*
X123705167Y-71293618D01*
X123577732Y-71234195D01*
X123524447Y-71187278D01*
X123504986Y-71119001D01*
X123525528Y-71051041D01*
X123577732Y-71005805D01*
X123705167Y-70946382D01*
X123705172Y-70946379D01*
X123710154Y-70944056D01*
X123890538Y-70817749D01*
X124046249Y-70662038D01*
X124172556Y-70481653D01*
X124174879Y-70476671D01*
X124174882Y-70476666D01*
X124263295Y-70287061D01*
X124265620Y-70282076D01*
X124322615Y-70069371D01*
X124341807Y-69850000D01*
X124322615Y-69630629D01*
X124265620Y-69417924D01*
X124222085Y-69324562D01*
X124174882Y-69223334D01*
X124174879Y-69223329D01*
X124172556Y-69218347D01*
X124046249Y-69037962D01*
X123890538Y-68882251D01*
X123710154Y-68755944D01*
X123705172Y-68753621D01*
X123705167Y-68753618D01*
X123577732Y-68694195D01*
X123524447Y-68647278D01*
X123504986Y-68579001D01*
X123525528Y-68511041D01*
X123577732Y-68465805D01*
X123705167Y-68406382D01*
X123705172Y-68406379D01*
X123710154Y-68404056D01*
X123890538Y-68277749D01*
X124046249Y-68122038D01*
X124058378Y-68104717D01*
X124169399Y-67946162D01*
X124169400Y-67946160D01*
X124172556Y-67941653D01*
X124174879Y-67936671D01*
X124174882Y-67936666D01*
X124263295Y-67747061D01*
X124265620Y-67742076D01*
X124322615Y-67529371D01*
X124341807Y-67310000D01*
X124322615Y-67090629D01*
X124265620Y-66877924D01*
X124222085Y-66784562D01*
X124174882Y-66683334D01*
X124174879Y-66683329D01*
X124172556Y-66678347D01*
X124169399Y-66673838D01*
X124049408Y-66502473D01*
X124049406Y-66502470D01*
X124046249Y-66497962D01*
X123890538Y-66342251D01*
X123710154Y-66215944D01*
X123510576Y-66122880D01*
X123297871Y-66065885D01*
X123078500Y-66046693D01*
X122859129Y-66065885D01*
X122646424Y-66122880D01*
X122553062Y-66166415D01*
X122451834Y-66213618D01*
X122451829Y-66213621D01*
X122446847Y-66215944D01*
X122442340Y-66219100D01*
X122442338Y-66219101D01*
X122270973Y-66339092D01*
X122270970Y-66339094D01*
X122266462Y-66342251D01*
X122110751Y-66497962D01*
X122107594Y-66502470D01*
X122107592Y-66502473D01*
X121987601Y-66673838D01*
X121984444Y-66678347D01*
X121982121Y-66683329D01*
X121982118Y-66683334D01*
X121934915Y-66784562D01*
X121891380Y-66877924D01*
X121834385Y-67090629D01*
X121815193Y-67310000D01*
X121834385Y-67529371D01*
X121891380Y-67742076D01*
X121893705Y-67747061D01*
X121982118Y-67936666D01*
X121982121Y-67936671D01*
X121984444Y-67941653D01*
X121987600Y-67946160D01*
X121987601Y-67946162D01*
X122098623Y-68104717D01*
X122110751Y-68122038D01*
X122266462Y-68277749D01*
X122446846Y-68404056D01*
X122451828Y-68406379D01*
X122451833Y-68406382D01*
X122579268Y-68465805D01*
X122632553Y-68512722D01*
X122652014Y-68580999D01*
X122631472Y-68648959D01*
X122579268Y-68694195D01*
X122451834Y-68753618D01*
X122451829Y-68753621D01*
X122446847Y-68755944D01*
X122442340Y-68759100D01*
X122442338Y-68759101D01*
X122270973Y-68879092D01*
X122270970Y-68879094D01*
X122266462Y-68882251D01*
X122110751Y-69037962D01*
X121984444Y-69218347D01*
X121982121Y-69223329D01*
X121982118Y-69223334D01*
X121934915Y-69324562D01*
X121891380Y-69417924D01*
X121834385Y-69630629D01*
X121815193Y-69850000D01*
X121834385Y-70069371D01*
X121891380Y-70282076D01*
X121893705Y-70287061D01*
X121982118Y-70476666D01*
X121982121Y-70476671D01*
X121984444Y-70481653D01*
X122110751Y-70662038D01*
X122266462Y-70817749D01*
X122446846Y-70944056D01*
X122451828Y-70946379D01*
X122451833Y-70946382D01*
X122579268Y-71005805D01*
X122632553Y-71052722D01*
X122652014Y-71120999D01*
X122631472Y-71188959D01*
X122579268Y-71234195D01*
X122451834Y-71293618D01*
X122451829Y-71293621D01*
X122446847Y-71295944D01*
X122442340Y-71299100D01*
X122442338Y-71299101D01*
X122270973Y-71419092D01*
X122270970Y-71419094D01*
X122266462Y-71422251D01*
X122110751Y-71577962D01*
X121984444Y-71758347D01*
X121982121Y-71763329D01*
X121982118Y-71763334D01*
X121934915Y-71864562D01*
X121891380Y-71957924D01*
X121834385Y-72170629D01*
X121815193Y-72390000D01*
X121834385Y-72609371D01*
X121891380Y-72822076D01*
X121893705Y-72827061D01*
X121982118Y-73016666D01*
X121982121Y-73016671D01*
X121984444Y-73021653D01*
X122110751Y-73202038D01*
X122266462Y-73357749D01*
X122446846Y-73484056D01*
X122451828Y-73486379D01*
X122451833Y-73486382D01*
X122579268Y-73545805D01*
X122632553Y-73592722D01*
X122652014Y-73660999D01*
X122631472Y-73728959D01*
X122579268Y-73774195D01*
X122451834Y-73833618D01*
X122451829Y-73833621D01*
X122446847Y-73835944D01*
X122442340Y-73839100D01*
X122442338Y-73839101D01*
X122270973Y-73959092D01*
X122270970Y-73959094D01*
X122266462Y-73962251D01*
X122110751Y-74117962D01*
X121984444Y-74298347D01*
X121982121Y-74303329D01*
X121982118Y-74303334D01*
X121934915Y-74404562D01*
X121891380Y-74497924D01*
X121834385Y-74710629D01*
X121815193Y-74930000D01*
X121834385Y-75149371D01*
X121891380Y-75362076D01*
X121893705Y-75367061D01*
X121982118Y-75556666D01*
X121982121Y-75556671D01*
X121984444Y-75561653D01*
X122110751Y-75742038D01*
X122266462Y-75897749D01*
X122446846Y-76024056D01*
X122451828Y-76026379D01*
X122451833Y-76026382D01*
X122579268Y-76085805D01*
X122632553Y-76132722D01*
X122652014Y-76200999D01*
X122631472Y-76268959D01*
X122579268Y-76314195D01*
X122451834Y-76373618D01*
X122451829Y-76373621D01*
X122446847Y-76375944D01*
X122442340Y-76379100D01*
X122442338Y-76379101D01*
X122270973Y-76499092D01*
X122270970Y-76499094D01*
X122266462Y-76502251D01*
X122110751Y-76657962D01*
X121984444Y-76838347D01*
X121982121Y-76843329D01*
X121982118Y-76843334D01*
X121934915Y-76944562D01*
X121891380Y-77037924D01*
X121834385Y-77250629D01*
X121815193Y-77470000D01*
X121834385Y-77689371D01*
X121891380Y-77902076D01*
X121893705Y-77907061D01*
X121982118Y-78096666D01*
X121982121Y-78096671D01*
X121984444Y-78101653D01*
X122110751Y-78282038D01*
X122266462Y-78437749D01*
X122446846Y-78564056D01*
X122451828Y-78566379D01*
X122451833Y-78566382D01*
X122579268Y-78625805D01*
X122632553Y-78672722D01*
X122652014Y-78740999D01*
X122631472Y-78808959D01*
X122579268Y-78854195D01*
X122451834Y-78913618D01*
X122451829Y-78913621D01*
X122446847Y-78915944D01*
X122442340Y-78919100D01*
X122442338Y-78919101D01*
X122270973Y-79039092D01*
X122270970Y-79039094D01*
X122266462Y-79042251D01*
X122110751Y-79197962D01*
X121984444Y-79378347D01*
X121982121Y-79383329D01*
X121982118Y-79383334D01*
X121934915Y-79484562D01*
X121891380Y-79577924D01*
X121834385Y-79790629D01*
X121815193Y-80010000D01*
X109101807Y-80010000D01*
X109082615Y-79790629D01*
X109025620Y-79577924D01*
X108982085Y-79484562D01*
X108934882Y-79383334D01*
X108934879Y-79383329D01*
X108932556Y-79378347D01*
X108806249Y-79197962D01*
X108650538Y-79042251D01*
X108470154Y-78915944D01*
X108465172Y-78913621D01*
X108465167Y-78913618D01*
X108337732Y-78854195D01*
X108284447Y-78807278D01*
X108264986Y-78739001D01*
X108285528Y-78671041D01*
X108337732Y-78625805D01*
X108465167Y-78566382D01*
X108465172Y-78566379D01*
X108470154Y-78564056D01*
X108650538Y-78437749D01*
X108806249Y-78282038D01*
X108932556Y-78101653D01*
X108934879Y-78096671D01*
X108934882Y-78096666D01*
X109023295Y-77907061D01*
X109025620Y-77902076D01*
X109082615Y-77689371D01*
X109101807Y-77470000D01*
X109082615Y-77250629D01*
X109025620Y-77037924D01*
X108982085Y-76944562D01*
X108934882Y-76843334D01*
X108934879Y-76843329D01*
X108932556Y-76838347D01*
X108806249Y-76657962D01*
X108650538Y-76502251D01*
X108470154Y-76375944D01*
X108465172Y-76373621D01*
X108465167Y-76373618D01*
X108337732Y-76314195D01*
X108284447Y-76267278D01*
X108264986Y-76199001D01*
X108285528Y-76131041D01*
X108337732Y-76085805D01*
X108465167Y-76026382D01*
X108465172Y-76026379D01*
X108470154Y-76024056D01*
X108650538Y-75897749D01*
X108806249Y-75742038D01*
X108932556Y-75561653D01*
X108934879Y-75556671D01*
X108934882Y-75556666D01*
X109023295Y-75367061D01*
X109025620Y-75362076D01*
X109082615Y-75149371D01*
X109101807Y-74930000D01*
X109082615Y-74710629D01*
X109025620Y-74497924D01*
X108982085Y-74404562D01*
X108934882Y-74303334D01*
X108934879Y-74303329D01*
X108932556Y-74298347D01*
X108806249Y-74117962D01*
X108650538Y-73962251D01*
X108470154Y-73835944D01*
X108465172Y-73833621D01*
X108465167Y-73833618D01*
X108337732Y-73774195D01*
X108284447Y-73727278D01*
X108264986Y-73659001D01*
X108285528Y-73591041D01*
X108337732Y-73545805D01*
X108465167Y-73486382D01*
X108465172Y-73486379D01*
X108470154Y-73484056D01*
X108650538Y-73357749D01*
X108806249Y-73202038D01*
X108932556Y-73021653D01*
X108934879Y-73016671D01*
X108934882Y-73016666D01*
X109023295Y-72827061D01*
X109025620Y-72822076D01*
X109082615Y-72609371D01*
X109101807Y-72390000D01*
X109082615Y-72170629D01*
X109025620Y-71957924D01*
X108982085Y-71864562D01*
X108934882Y-71763334D01*
X108934879Y-71763329D01*
X108932556Y-71758347D01*
X108806249Y-71577962D01*
X108650538Y-71422251D01*
X108470154Y-71295944D01*
X108465172Y-71293621D01*
X108465167Y-71293618D01*
X108337732Y-71234195D01*
X108284447Y-71187278D01*
X108264986Y-71119001D01*
X108285528Y-71051041D01*
X108337732Y-71005805D01*
X108465167Y-70946382D01*
X108465172Y-70946379D01*
X108470154Y-70944056D01*
X108650538Y-70817749D01*
X108806249Y-70662038D01*
X108932556Y-70481653D01*
X108934879Y-70476671D01*
X108934882Y-70476666D01*
X109023295Y-70287061D01*
X109025620Y-70282076D01*
X109082615Y-70069371D01*
X109101807Y-69850000D01*
X109082615Y-69630629D01*
X109025620Y-69417924D01*
X108982085Y-69324562D01*
X108934882Y-69223334D01*
X108934879Y-69223329D01*
X108932556Y-69218347D01*
X108806249Y-69037962D01*
X108650538Y-68882251D01*
X108529806Y-68797713D01*
X108485478Y-68742256D01*
X108478169Y-68671636D01*
X108510200Y-68608276D01*
X108571401Y-68572291D01*
X108602077Y-68568500D01*
X108636634Y-68568500D01*
X108698816Y-68561745D01*
X108835205Y-68510615D01*
X108951761Y-68423261D01*
X109039115Y-68306705D01*
X109090245Y-68170316D01*
X109097000Y-68108134D01*
X109097000Y-66511866D01*
X109090245Y-66449684D01*
X109039115Y-66313295D01*
X108951761Y-66196739D01*
X108835205Y-66109385D01*
X108698816Y-66058255D01*
X108636634Y-66051500D01*
X107040366Y-66051500D01*
X106978184Y-66058255D01*
X106841795Y-66109385D01*
X106725239Y-66196739D01*
X106637885Y-66313295D01*
X106586755Y-66449684D01*
X106580000Y-66511866D01*
X106580000Y-68108134D01*
X106586755Y-68170316D01*
X106637885Y-68306705D01*
X106725239Y-68423261D01*
X106841795Y-68510615D01*
X106978184Y-68561745D01*
X107040366Y-68568500D01*
X107074924Y-68568500D01*
X107143045Y-68588502D01*
X107189538Y-68642158D01*
X107199642Y-68712432D01*
X107170148Y-68777012D01*
X107147195Y-68797713D01*
X107030973Y-68879092D01*
X107030970Y-68879094D01*
X107026462Y-68882251D01*
X106870751Y-69037962D01*
X106744444Y-69218347D01*
X106742121Y-69223329D01*
X106742118Y-69223334D01*
X106694915Y-69324562D01*
X106651380Y-69417924D01*
X106594385Y-69630629D01*
X106575193Y-69850000D01*
X106594385Y-70069371D01*
X106651380Y-70282076D01*
X106653705Y-70287061D01*
X106742118Y-70476666D01*
X106742121Y-70476671D01*
X106744444Y-70481653D01*
X106870751Y-70662038D01*
X107026462Y-70817749D01*
X107206846Y-70944056D01*
X107211828Y-70946379D01*
X107211833Y-70946382D01*
X107339268Y-71005805D01*
X107392553Y-71052722D01*
X107412014Y-71120999D01*
X107391472Y-71188959D01*
X107339268Y-71234195D01*
X107211834Y-71293618D01*
X107211829Y-71293621D01*
X107206847Y-71295944D01*
X107202340Y-71299100D01*
X107202338Y-71299101D01*
X107030973Y-71419092D01*
X107030970Y-71419094D01*
X107026462Y-71422251D01*
X106870751Y-71577962D01*
X106744444Y-71758347D01*
X106742121Y-71763329D01*
X106742118Y-71763334D01*
X106694915Y-71864562D01*
X106651380Y-71957924D01*
X106594385Y-72170629D01*
X106575193Y-72390000D01*
X106594385Y-72609371D01*
X106651380Y-72822076D01*
X106653705Y-72827061D01*
X106742118Y-73016666D01*
X106742121Y-73016671D01*
X106744444Y-73021653D01*
X106870751Y-73202038D01*
X107026462Y-73357749D01*
X107206846Y-73484056D01*
X107211828Y-73486379D01*
X107211833Y-73486382D01*
X107339268Y-73545805D01*
X107392553Y-73592722D01*
X107412014Y-73660999D01*
X107391472Y-73728959D01*
X107339268Y-73774195D01*
X107211834Y-73833618D01*
X107211829Y-73833621D01*
X107206847Y-73835944D01*
X107202340Y-73839100D01*
X107202338Y-73839101D01*
X107030973Y-73959092D01*
X107030970Y-73959094D01*
X107026462Y-73962251D01*
X106870751Y-74117962D01*
X106744444Y-74298347D01*
X106742121Y-74303329D01*
X106742118Y-74303334D01*
X106694915Y-74404562D01*
X106651380Y-74497924D01*
X106594385Y-74710629D01*
X106575193Y-74930000D01*
X106594385Y-75149371D01*
X106651380Y-75362076D01*
X106653705Y-75367061D01*
X106742118Y-75556666D01*
X106742121Y-75556671D01*
X106744444Y-75561653D01*
X106870751Y-75742038D01*
X107026462Y-75897749D01*
X107206846Y-76024056D01*
X107211828Y-76026379D01*
X107211833Y-76026382D01*
X107339268Y-76085805D01*
X107392553Y-76132722D01*
X107412014Y-76200999D01*
X107391472Y-76268959D01*
X107339268Y-76314195D01*
X107211834Y-76373618D01*
X107211829Y-76373621D01*
X107206847Y-76375944D01*
X107202340Y-76379100D01*
X107202338Y-76379101D01*
X107030973Y-76499092D01*
X107030970Y-76499094D01*
X107026462Y-76502251D01*
X106870751Y-76657962D01*
X106744444Y-76838347D01*
X106742121Y-76843329D01*
X106742118Y-76843334D01*
X106694915Y-76944562D01*
X106651380Y-77037924D01*
X106594385Y-77250629D01*
X106575193Y-77470000D01*
X106594385Y-77689371D01*
X106651380Y-77902076D01*
X106653705Y-77907061D01*
X106742118Y-78096666D01*
X106742121Y-78096671D01*
X106744444Y-78101653D01*
X106870751Y-78282038D01*
X107026462Y-78437749D01*
X107206846Y-78564056D01*
X107211828Y-78566379D01*
X107211833Y-78566382D01*
X107339268Y-78625805D01*
X107392553Y-78672722D01*
X107412014Y-78740999D01*
X107391472Y-78808959D01*
X107339268Y-78854195D01*
X107211834Y-78913618D01*
X107211829Y-78913621D01*
X107206847Y-78915944D01*
X107202340Y-78919100D01*
X107202338Y-78919101D01*
X107030973Y-79039092D01*
X107030970Y-79039094D01*
X107026462Y-79042251D01*
X106870751Y-79197962D01*
X106744444Y-79378347D01*
X106742121Y-79383329D01*
X106742118Y-79383334D01*
X106694915Y-79484562D01*
X106651380Y-79577924D01*
X106594385Y-79790629D01*
X106575193Y-80010000D01*
X97282500Y-80010000D01*
X97282500Y-47116500D01*
X97302502Y-47048379D01*
X97356158Y-47001886D01*
X97408500Y-46990500D01*
X146685500Y-46990500D01*
X146753621Y-47010502D01*
G37*
%TD.AperFunction*%
%TA.AperFunction,Conductor*%
G36*
X132702012Y-131599486D02*
G01*
X132708595Y-131605615D01*
X132794619Y-131691639D01*
X132941301Y-131780472D01*
X132948548Y-131782743D01*
X132948550Y-131782744D01*
X133014836Y-131803517D01*
X133104938Y-131831753D01*
X133178365Y-131838500D01*
X133208980Y-131838500D01*
X133435609Y-131838499D01*
X133481381Y-131847107D01*
X133507277Y-131857204D01*
X133513355Y-131859759D01*
X133564651Y-131882920D01*
X133564654Y-131882921D01*
X133571573Y-131886045D01*
X133579038Y-131887429D01*
X133581582Y-131888226D01*
X133597848Y-131892859D01*
X133600428Y-131893521D01*
X133607509Y-131896282D01*
X133615042Y-131897274D01*
X133615043Y-131897274D01*
X133647699Y-131901573D01*
X133670857Y-131904622D01*
X133677355Y-131905650D01*
X133740187Y-131917296D01*
X133747767Y-131916859D01*
X133747768Y-131916859D01*
X133802393Y-131913709D01*
X133809647Y-131913500D01*
X135001502Y-131913500D01*
X135069623Y-131933502D01*
X135116116Y-131987158D01*
X135119484Y-131995270D01*
X135128919Y-132020438D01*
X135159385Y-132101705D01*
X135246739Y-132218261D01*
X135363295Y-132305615D01*
X135499684Y-132356745D01*
X135561866Y-132363500D01*
X137208134Y-132363500D01*
X137270316Y-132356745D01*
X137406705Y-132305615D01*
X137523261Y-132218261D01*
X137610615Y-132101705D01*
X137641081Y-132020438D01*
X137650516Y-131995270D01*
X137693158Y-131938506D01*
X137759719Y-131913806D01*
X137768498Y-131913500D01*
X142951502Y-131913500D01*
X143019623Y-131933502D01*
X143066116Y-131987158D01*
X143069484Y-131995270D01*
X143078919Y-132020438D01*
X143109385Y-132101705D01*
X143196739Y-132218261D01*
X143313295Y-132305615D01*
X143449684Y-132356745D01*
X143511866Y-132363500D01*
X145158134Y-132363500D01*
X145220316Y-132356745D01*
X145356705Y-132305615D01*
X145473261Y-132218261D01*
X145475166Y-132220803D01*
X145523717Y-132194292D01*
X145594532Y-132199357D01*
X145651368Y-132241904D01*
X145676179Y-132308424D01*
X145676500Y-132317413D01*
X145676500Y-134593301D01*
X145656498Y-134661422D01*
X145602842Y-134707915D01*
X145532568Y-134718019D01*
X145473644Y-134691108D01*
X145472904Y-134692096D01*
X145468375Y-134688702D01*
X145467988Y-134688525D01*
X145467364Y-134687944D01*
X145363649Y-134610214D01*
X145348054Y-134601676D01*
X145227606Y-134556522D01*
X145212351Y-134552895D01*
X145161486Y-134547369D01*
X145154672Y-134547000D01*
X144607115Y-134547000D01*
X144591876Y-134551475D01*
X144590671Y-134552865D01*
X144589000Y-134560548D01*
X144589000Y-136844884D01*
X144593475Y-136860123D01*
X144594865Y-136861328D01*
X144602548Y-136862999D01*
X145154669Y-136862999D01*
X145161490Y-136862629D01*
X145212352Y-136857105D01*
X145227604Y-136853479D01*
X145348054Y-136808324D01*
X145363649Y-136799786D01*
X145472904Y-136717904D01*
X145474723Y-136720331D01*
X145523717Y-136693578D01*
X145594532Y-136698643D01*
X145651368Y-136741190D01*
X145676179Y-136807710D01*
X145676500Y-136816699D01*
X145676500Y-136995500D01*
X145656498Y-137063621D01*
X145602842Y-137110114D01*
X145550500Y-137121500D01*
X135630660Y-137121500D01*
X135562539Y-137101498D01*
X135541565Y-137084595D01*
X135535065Y-137078095D01*
X135501039Y-137015783D01*
X135506104Y-136944968D01*
X135548651Y-136888132D01*
X135615171Y-136863321D01*
X135624160Y-136863000D01*
X136112885Y-136863000D01*
X136128124Y-136858525D01*
X136129329Y-136857135D01*
X136131000Y-136849452D01*
X136131000Y-136844884D01*
X136639000Y-136844884D01*
X136643475Y-136860123D01*
X136644865Y-136861328D01*
X136652548Y-136862999D01*
X137204669Y-136862999D01*
X137211490Y-136862629D01*
X137262352Y-136857105D01*
X137277604Y-136853479D01*
X137398054Y-136808324D01*
X137413649Y-136799786D01*
X137515724Y-136723285D01*
X137528285Y-136710724D01*
X137604786Y-136608649D01*
X137613324Y-136593054D01*
X137658478Y-136472606D01*
X137662105Y-136457351D01*
X137667631Y-136406486D01*
X137668000Y-136399672D01*
X137668000Y-136399669D01*
X143052001Y-136399669D01*
X143052371Y-136406490D01*
X143057895Y-136457352D01*
X143061521Y-136472604D01*
X143106676Y-136593054D01*
X143115214Y-136608649D01*
X143191715Y-136710724D01*
X143204276Y-136723285D01*
X143306351Y-136799786D01*
X143321946Y-136808324D01*
X143442394Y-136853478D01*
X143457649Y-136857105D01*
X143508514Y-136862631D01*
X143515328Y-136863000D01*
X144062885Y-136863000D01*
X144078124Y-136858525D01*
X144079329Y-136857135D01*
X144081000Y-136849452D01*
X144081000Y-135977115D01*
X144076525Y-135961876D01*
X144075135Y-135960671D01*
X144067452Y-135959000D01*
X143070116Y-135959000D01*
X143054877Y-135963475D01*
X143053672Y-135964865D01*
X143052001Y-135972548D01*
X143052001Y-136399669D01*
X137668000Y-136399669D01*
X137668000Y-135977115D01*
X137663525Y-135961876D01*
X137662135Y-135960671D01*
X137654452Y-135959000D01*
X136657115Y-135959000D01*
X136641876Y-135963475D01*
X136640671Y-135964865D01*
X136639000Y-135972548D01*
X136639000Y-136844884D01*
X136131000Y-136844884D01*
X136131000Y-135977115D01*
X136126525Y-135961876D01*
X136125135Y-135960671D01*
X136117452Y-135959000D01*
X135120116Y-135959000D01*
X135104877Y-135963475D01*
X135103672Y-135964865D01*
X135102001Y-135972548D01*
X135102001Y-136340841D01*
X135081999Y-136408962D01*
X135028343Y-136455455D01*
X134958069Y-136465559D01*
X134893489Y-136436065D01*
X134886906Y-136429936D01*
X133889855Y-135432885D01*
X135102000Y-135432885D01*
X135106475Y-135448124D01*
X135107865Y-135449329D01*
X135115548Y-135451000D01*
X136112885Y-135451000D01*
X136128124Y-135446525D01*
X136129329Y-135445135D01*
X136131000Y-135437452D01*
X136131000Y-135432885D01*
X136639000Y-135432885D01*
X136643475Y-135448124D01*
X136644865Y-135449329D01*
X136652548Y-135451000D01*
X137649884Y-135451000D01*
X137665123Y-135446525D01*
X137666328Y-135445135D01*
X137667999Y-135437452D01*
X137667999Y-135432885D01*
X143052000Y-135432885D01*
X143056475Y-135448124D01*
X143057865Y-135449329D01*
X143065548Y-135451000D01*
X144062885Y-135451000D01*
X144078124Y-135446525D01*
X144079329Y-135445135D01*
X144081000Y-135437452D01*
X144081000Y-134565116D01*
X144076525Y-134549877D01*
X144075135Y-134548672D01*
X144067452Y-134547001D01*
X143515331Y-134547001D01*
X143508510Y-134547371D01*
X143457648Y-134552895D01*
X143442396Y-134556521D01*
X143321946Y-134601676D01*
X143306351Y-134610214D01*
X143204276Y-134686715D01*
X143191715Y-134699276D01*
X143115214Y-134801351D01*
X143106676Y-134816946D01*
X143061522Y-134937394D01*
X143057895Y-134952649D01*
X143052369Y-135003514D01*
X143052000Y-135010328D01*
X143052000Y-135432885D01*
X137667999Y-135432885D01*
X137667999Y-135010331D01*
X137667629Y-135003510D01*
X137662105Y-134952648D01*
X137658479Y-134937396D01*
X137613324Y-134816946D01*
X137604786Y-134801351D01*
X137528285Y-134699276D01*
X137515724Y-134686715D01*
X137413649Y-134610214D01*
X137398054Y-134601676D01*
X137277606Y-134556522D01*
X137262351Y-134552895D01*
X137211486Y-134547369D01*
X137204672Y-134547000D01*
X136657115Y-134547000D01*
X136641876Y-134551475D01*
X136640671Y-134552865D01*
X136639000Y-134560548D01*
X136639000Y-135432885D01*
X136131000Y-135432885D01*
X136131000Y-134565116D01*
X136126525Y-134549877D01*
X136125135Y-134548672D01*
X136117452Y-134547001D01*
X135565331Y-134547001D01*
X135558510Y-134547371D01*
X135507648Y-134552895D01*
X135492396Y-134556521D01*
X135371946Y-134601676D01*
X135356351Y-134610214D01*
X135254276Y-134686715D01*
X135241715Y-134699276D01*
X135165214Y-134801351D01*
X135156676Y-134816946D01*
X135111522Y-134937394D01*
X135107895Y-134952649D01*
X135102369Y-135003514D01*
X135102000Y-135010328D01*
X135102000Y-135432885D01*
X133889855Y-135432885D01*
X132530405Y-134073435D01*
X132496379Y-134011123D01*
X132493500Y-133984340D01*
X132493500Y-131694710D01*
X132513502Y-131626589D01*
X132567158Y-131580096D01*
X132637432Y-131569992D01*
X132702012Y-131599486D01*
G37*
%TD.AperFunction*%
%TA.AperFunction,Conductor*%
G36*
X127418621Y-126083502D02*
G01*
X127465114Y-126137158D01*
X127476500Y-126189500D01*
X127476500Y-127726088D01*
X127476208Y-127734658D01*
X127472275Y-127792352D01*
X127473580Y-127799829D01*
X127473580Y-127799830D01*
X127483261Y-127855299D01*
X127484223Y-127861821D01*
X127491898Y-127925242D01*
X127494581Y-127932343D01*
X127495222Y-127934952D01*
X127499685Y-127951263D01*
X127500451Y-127953800D01*
X127501757Y-127961284D01*
X127502068Y-127961993D01*
X127502585Y-128030079D01*
X127464656Y-128090095D01*
X127400301Y-128120078D01*
X127381423Y-128121500D01*
X125321866Y-128121500D01*
X125259684Y-128128255D01*
X125123295Y-128179385D01*
X125006739Y-128266739D01*
X124919385Y-128383295D01*
X124868255Y-128519684D01*
X124861500Y-128581866D01*
X124861500Y-128941513D01*
X124841498Y-129009634D01*
X124824595Y-129030608D01*
X124493095Y-129362108D01*
X124430783Y-129396134D01*
X124359968Y-129391069D01*
X124303132Y-129348522D01*
X124278321Y-129282002D01*
X124278000Y-129273013D01*
X124277999Y-128335331D01*
X124277629Y-128328510D01*
X124272105Y-128277648D01*
X124268479Y-128262396D01*
X124223324Y-128141946D01*
X124214786Y-128126351D01*
X124138285Y-128024276D01*
X124125724Y-128011715D01*
X124023649Y-127935214D01*
X124008054Y-127926676D01*
X123887606Y-127881522D01*
X123872351Y-127877895D01*
X123821486Y-127872369D01*
X123814672Y-127872000D01*
X123788115Y-127872000D01*
X123772876Y-127876475D01*
X123771671Y-127877865D01*
X123770000Y-127885548D01*
X123770000Y-129504000D01*
X123749998Y-129572121D01*
X123696342Y-129618614D01*
X123644000Y-129630000D01*
X123604500Y-129630000D01*
X123536379Y-129609998D01*
X123489886Y-129556342D01*
X123478500Y-129504000D01*
X123478500Y-128331866D01*
X123478124Y-128328399D01*
X123474295Y-128293158D01*
X123471745Y-128269684D01*
X123420615Y-128133295D01*
X123386292Y-128087498D01*
X123338645Y-128023922D01*
X123338642Y-128023919D01*
X123333261Y-128016739D01*
X123326081Y-128011358D01*
X123326078Y-128011355D01*
X123320436Y-128007127D01*
X123277921Y-127950269D01*
X123270000Y-127906300D01*
X123270000Y-127890116D01*
X123265525Y-127874877D01*
X123264135Y-127873672D01*
X123256452Y-127872001D01*
X123225331Y-127872001D01*
X123218510Y-127872371D01*
X123167651Y-127877895D01*
X123150236Y-127882035D01*
X123091942Y-127882034D01*
X123087716Y-127881029D01*
X123080316Y-127878255D01*
X123018134Y-127871500D01*
X122421866Y-127871500D01*
X122359684Y-127878255D01*
X122352285Y-127881029D01*
X122349146Y-127881775D01*
X122290854Y-127881775D01*
X122287715Y-127881029D01*
X122280316Y-127878255D01*
X122218134Y-127871500D01*
X121621866Y-127871500D01*
X121559684Y-127878255D01*
X121552285Y-127881029D01*
X121549146Y-127881775D01*
X121490854Y-127881775D01*
X121487715Y-127881029D01*
X121480316Y-127878255D01*
X121418134Y-127871500D01*
X121156096Y-127871500D01*
X121087975Y-127851498D01*
X121041482Y-127797842D01*
X121030388Y-127736930D01*
X121032209Y-127710225D01*
X121032209Y-127710221D01*
X121032725Y-127702648D01*
X121030376Y-127689188D01*
X121028500Y-127667526D01*
X121028500Y-127095660D01*
X121048502Y-127027539D01*
X121065405Y-127006565D01*
X121971565Y-126100405D01*
X122033877Y-126066379D01*
X122060660Y-126063500D01*
X127350500Y-126063500D01*
X127418621Y-126083502D01*
G37*
%TD.AperFunction*%
%TA.AperFunction,Conductor*%
G36*
X112855780Y-122385123D02*
G01*
X112886866Y-122388500D01*
X113175500Y-122388500D01*
X113243621Y-122408502D01*
X113290114Y-122462158D01*
X113301500Y-122514500D01*
X113301500Y-123751088D01*
X113301208Y-123759658D01*
X113297903Y-123808143D01*
X113297275Y-123817352D01*
X113298580Y-123824829D01*
X113298580Y-123824830D01*
X113308261Y-123880299D01*
X113309223Y-123886821D01*
X113316898Y-123950242D01*
X113319581Y-123957343D01*
X113320222Y-123959952D01*
X113324685Y-123976262D01*
X113325450Y-123978798D01*
X113326757Y-123986284D01*
X113329811Y-123993241D01*
X113352442Y-124044795D01*
X113354933Y-124050899D01*
X113377513Y-124110656D01*
X113381817Y-124116919D01*
X113383054Y-124119285D01*
X113391299Y-124134097D01*
X113392632Y-124136351D01*
X113395685Y-124143305D01*
X113431133Y-124189500D01*
X113434579Y-124193991D01*
X113438459Y-124199332D01*
X113470339Y-124245720D01*
X113470344Y-124245725D01*
X113474643Y-124251981D01*
X113520350Y-124292704D01*
X113521170Y-124293435D01*
X113526446Y-124298416D01*
X114509435Y-125281405D01*
X114543461Y-125343717D01*
X114538396Y-125414532D01*
X114495849Y-125471368D01*
X114429329Y-125496179D01*
X114420340Y-125496500D01*
X114130428Y-125496500D01*
X114127182Y-125496837D01*
X114127178Y-125496837D01*
X114093397Y-125500342D01*
X114029018Y-125507022D01*
X113868151Y-125560692D01*
X113723945Y-125649929D01*
X113639427Y-125734595D01*
X113614547Y-125759518D01*
X113552265Y-125793597D01*
X113525374Y-125796500D01*
X113180710Y-125796500D01*
X113112589Y-125776498D01*
X113091615Y-125759595D01*
X113000381Y-125668361D01*
X112853699Y-125579528D01*
X112846452Y-125577257D01*
X112846450Y-125577256D01*
X112780164Y-125556483D01*
X112690062Y-125528247D01*
X112616635Y-125521500D01*
X112613737Y-125521500D01*
X112359335Y-125521501D01*
X112103366Y-125521501D01*
X112100508Y-125521764D01*
X112100499Y-125521764D01*
X112066619Y-125524877D01*
X112029938Y-125528247D01*
X112023560Y-125530246D01*
X112023559Y-125530246D01*
X111873550Y-125577256D01*
X111873548Y-125577257D01*
X111866301Y-125579528D01*
X111719619Y-125668361D01*
X111623741Y-125764239D01*
X111561429Y-125798265D01*
X111490614Y-125793200D01*
X111445551Y-125764239D01*
X111355443Y-125674131D01*
X111343574Y-125664824D01*
X111209988Y-125583921D01*
X111196243Y-125577715D01*
X111046356Y-125530744D01*
X111033306Y-125528131D01*
X110978414Y-125523087D01*
X110966876Y-125526475D01*
X110965671Y-125527865D01*
X110964000Y-125535548D01*
X110964000Y-126633000D01*
X110943998Y-126701121D01*
X110890342Y-126747614D01*
X110838000Y-126759000D01*
X109820116Y-126759000D01*
X109804877Y-126763475D01*
X109803672Y-126764865D01*
X109802001Y-126772548D01*
X109802001Y-126833705D01*
X109802264Y-126839454D01*
X109808132Y-126903315D01*
X109810743Y-126916351D01*
X109857715Y-127066243D01*
X109863921Y-127079988D01*
X109944824Y-127213574D01*
X109954131Y-127225443D01*
X110064557Y-127335869D01*
X110076426Y-127345176D01*
X110210012Y-127426079D01*
X110223757Y-127432285D01*
X110360912Y-127475266D01*
X110419934Y-127514723D01*
X110448254Y-127579827D01*
X110436881Y-127649906D01*
X110389426Y-127702713D01*
X110323233Y-127721500D01*
X108740178Y-127721500D01*
X108672057Y-127701498D01*
X108625564Y-127647842D01*
X108615460Y-127577568D01*
X108630622Y-127533263D01*
X108705403Y-127401624D01*
X108710769Y-127392179D01*
X108773197Y-127204513D01*
X108797985Y-127008295D01*
X108799220Y-127008451D01*
X108822143Y-126946683D01*
X108834040Y-126932930D01*
X109110470Y-126656501D01*
X109390536Y-126376435D01*
X109396801Y-126370582D01*
X109434664Y-126337552D01*
X109434665Y-126337551D01*
X109440385Y-126332561D01*
X109477136Y-126280271D01*
X109481028Y-126275029D01*
X109520476Y-126224718D01*
X109523600Y-126217799D01*
X109524991Y-126215502D01*
X109533357Y-126200835D01*
X109534622Y-126198475D01*
X109538990Y-126192261D01*
X109558607Y-126141946D01*
X109601988Y-126085745D01*
X109668867Y-126061918D01*
X109738011Y-126078032D01*
X109787467Y-126128969D01*
X109802000Y-126187716D01*
X109802000Y-126232885D01*
X109806475Y-126248124D01*
X109807865Y-126249329D01*
X109815548Y-126251000D01*
X110437885Y-126251000D01*
X110453124Y-126246525D01*
X110454329Y-126245135D01*
X110456000Y-126237452D01*
X110456000Y-125540116D01*
X110451525Y-125524877D01*
X110450135Y-125523672D01*
X110445706Y-125522709D01*
X110386685Y-125528132D01*
X110373649Y-125530743D01*
X110223757Y-125577715D01*
X110210012Y-125583921D01*
X110076426Y-125664824D01*
X110064557Y-125674131D01*
X109954131Y-125784557D01*
X109944824Y-125796426D01*
X109863920Y-125930013D01*
X109862302Y-125933598D01*
X109860428Y-125935780D01*
X109859987Y-125936508D01*
X109859866Y-125936434D01*
X109816042Y-125987455D01*
X109748009Y-126007752D01*
X109679802Y-125988045D01*
X109633077Y-125934591D01*
X109621672Y-125889006D01*
X109618709Y-125837620D01*
X109618500Y-125830367D01*
X109618500Y-124482144D01*
X109638502Y-124414023D01*
X109692158Y-124367530D01*
X109762432Y-124357426D01*
X109826162Y-124386189D01*
X109830660Y-124390017D01*
X109856650Y-124412136D01*
X110029294Y-124508624D01*
X110217392Y-124569740D01*
X110413777Y-124593158D01*
X110419912Y-124592686D01*
X110419914Y-124592686D01*
X110604830Y-124578457D01*
X110604834Y-124578456D01*
X110610972Y-124577984D01*
X110801463Y-124524798D01*
X110806967Y-124522018D01*
X110806969Y-124522017D01*
X110972495Y-124438404D01*
X110972497Y-124438403D01*
X110977996Y-124435625D01*
X111133847Y-124313861D01*
X111227489Y-124205376D01*
X111259049Y-124168813D01*
X111259050Y-124168811D01*
X111263078Y-124164145D01*
X111360769Y-123992179D01*
X111423197Y-123804513D01*
X111447985Y-123608295D01*
X111449221Y-123608451D01*
X111472140Y-123546685D01*
X111484040Y-123532930D01*
X112090520Y-122926450D01*
X112096785Y-122920596D01*
X112104160Y-122914162D01*
X112140385Y-122882561D01*
X112177129Y-122830280D01*
X112181061Y-122824986D01*
X112206919Y-122792008D01*
X112220476Y-122774718D01*
X112223599Y-122767802D01*
X112224983Y-122765516D01*
X112233357Y-122750835D01*
X112234622Y-122748475D01*
X112238990Y-122742261D01*
X112244088Y-122729187D01*
X112262202Y-122682725D01*
X112264759Y-122676642D01*
X112271417Y-122661898D01*
X112291045Y-122618427D01*
X112292429Y-122610960D01*
X112293230Y-122608405D01*
X112297859Y-122592152D01*
X112298522Y-122589572D01*
X112301282Y-122582491D01*
X112302446Y-122573654D01*
X112308877Y-122524798D01*
X112309622Y-122519139D01*
X112310649Y-122512653D01*
X112314563Y-122491535D01*
X112346646Y-122428201D01*
X112407876Y-122392266D01*
X112438453Y-122388500D01*
X112733134Y-122388500D01*
X112764221Y-122385123D01*
X112795316Y-122381745D01*
X112795580Y-122384174D01*
X112824420Y-122384174D01*
X112824684Y-122381745D01*
X112855780Y-122385123D01*
G37*
%TD.AperFunction*%
%TA.AperFunction,Conductor*%
G36*
X145729202Y-116429908D02*
G01*
X145769906Y-116488078D01*
X145776500Y-116528305D01*
X145776500Y-122159339D01*
X145756498Y-122227460D01*
X145739595Y-122248434D01*
X140953435Y-127034595D01*
X140891123Y-127068621D01*
X140864340Y-127071500D01*
X136980660Y-127071500D01*
X136912539Y-127051498D01*
X136891565Y-127034595D01*
X135985565Y-126128595D01*
X135951539Y-126066283D01*
X135956604Y-125995468D01*
X135999151Y-125938632D01*
X136065671Y-125913821D01*
X136074660Y-125913500D01*
X136532034Y-125913499D01*
X136541634Y-125913499D01*
X136544492Y-125913236D01*
X136544501Y-125913236D01*
X136580004Y-125909974D01*
X136615062Y-125906753D01*
X136621441Y-125904754D01*
X136771450Y-125857744D01*
X136771452Y-125857743D01*
X136778699Y-125855472D01*
X136925381Y-125766639D01*
X136941615Y-125750405D01*
X137003927Y-125716379D01*
X137030710Y-125713500D01*
X137439340Y-125713500D01*
X137507461Y-125733502D01*
X137528435Y-125750405D01*
X137589596Y-125811566D01*
X137623622Y-125873878D01*
X137626501Y-125900661D01*
X137626501Y-126086634D01*
X137633247Y-126160062D01*
X137635246Y-126166440D01*
X137635246Y-126166441D01*
X137672811Y-126286309D01*
X137684528Y-126323699D01*
X137773361Y-126470381D01*
X137894619Y-126591639D01*
X138041301Y-126680472D01*
X138048548Y-126682743D01*
X138048550Y-126682744D01*
X138096339Y-126697720D01*
X138204938Y-126731753D01*
X138278365Y-126738500D01*
X138281263Y-126738500D01*
X138535665Y-126738499D01*
X138791634Y-126738499D01*
X138794492Y-126738236D01*
X138794501Y-126738236D01*
X138830004Y-126734974D01*
X138865062Y-126731753D01*
X138873030Y-126729256D01*
X139021450Y-126682744D01*
X139021452Y-126682743D01*
X139028699Y-126680472D01*
X139175381Y-126591639D01*
X139271259Y-126495761D01*
X139333571Y-126461735D01*
X139404386Y-126466800D01*
X139449449Y-126495761D01*
X139539557Y-126585869D01*
X139551426Y-126595176D01*
X139685012Y-126676079D01*
X139698757Y-126682285D01*
X139848644Y-126729256D01*
X139861694Y-126731869D01*
X139916586Y-126736913D01*
X139928124Y-126733525D01*
X139929329Y-126732135D01*
X139931000Y-126724452D01*
X139931000Y-126719884D01*
X140439000Y-126719884D01*
X140443475Y-126735123D01*
X140444865Y-126736328D01*
X140449294Y-126737291D01*
X140508315Y-126731868D01*
X140521351Y-126729257D01*
X140671243Y-126682285D01*
X140684988Y-126676079D01*
X140818574Y-126595176D01*
X140830443Y-126585869D01*
X140940869Y-126475443D01*
X140950176Y-126463574D01*
X141031079Y-126329988D01*
X141037285Y-126316243D01*
X141084256Y-126166356D01*
X141086869Y-126153306D01*
X141092734Y-126089479D01*
X141093000Y-126083691D01*
X141093000Y-126027115D01*
X141088525Y-126011876D01*
X141087135Y-126010671D01*
X141079452Y-126009000D01*
X140457115Y-126009000D01*
X140441876Y-126013475D01*
X140440671Y-126014865D01*
X140439000Y-126022548D01*
X140439000Y-126719884D01*
X139931000Y-126719884D01*
X139931000Y-125627000D01*
X139951002Y-125558879D01*
X140004658Y-125512386D01*
X140057000Y-125501000D01*
X141074884Y-125501000D01*
X141090123Y-125496525D01*
X141091328Y-125495135D01*
X141092999Y-125487452D01*
X141092999Y-125426295D01*
X141092736Y-125420546D01*
X141086868Y-125356685D01*
X141084257Y-125343649D01*
X141037285Y-125193757D01*
X141031079Y-125180012D01*
X140950176Y-125046426D01*
X140940869Y-125034557D01*
X140830443Y-124924131D01*
X140818571Y-124914821D01*
X140681099Y-124831566D01*
X140633192Y-124779169D01*
X140621219Y-124709189D01*
X140648980Y-124643845D01*
X140657275Y-124634695D01*
X142332245Y-122959726D01*
X145215528Y-120076443D01*
X145221793Y-120070589D01*
X145259664Y-120037552D01*
X145259665Y-120037551D01*
X145265385Y-120032561D01*
X145302136Y-119980271D01*
X145306028Y-119975029D01*
X145345476Y-119924718D01*
X145348600Y-119917799D01*
X145349988Y-119915507D01*
X145358357Y-119900835D01*
X145359622Y-119898475D01*
X145363990Y-119892261D01*
X145369711Y-119877589D01*
X145387202Y-119832725D01*
X145389759Y-119826642D01*
X145398350Y-119807617D01*
X145416045Y-119768427D01*
X145417430Y-119760954D01*
X145418234Y-119758388D01*
X145422855Y-119742165D01*
X145423520Y-119739573D01*
X145426282Y-119732491D01*
X145434622Y-119669139D01*
X145435654Y-119662623D01*
X145445911Y-119607281D01*
X145447295Y-119599814D01*
X145443709Y-119537620D01*
X145443500Y-119530367D01*
X145443500Y-117358912D01*
X145443792Y-117350342D01*
X145447209Y-117300224D01*
X145447209Y-117300220D01*
X145447725Y-117292648D01*
X145436738Y-117229697D01*
X145435776Y-117223175D01*
X145429014Y-117167298D01*
X145428102Y-117159758D01*
X145425419Y-117152657D01*
X145424778Y-117150048D01*
X145420315Y-117133738D01*
X145419550Y-117131202D01*
X145418243Y-117123716D01*
X145392556Y-117065200D01*
X145390065Y-117059096D01*
X145370173Y-117006452D01*
X145370172Y-117006451D01*
X145367487Y-116999344D01*
X145363183Y-116993081D01*
X145361946Y-116990715D01*
X145353701Y-116975903D01*
X145352368Y-116973649D01*
X145349315Y-116966695D01*
X145310413Y-116915998D01*
X145306541Y-116910668D01*
X145274661Y-116864280D01*
X145274656Y-116864275D01*
X145270357Y-116858019D01*
X145223829Y-116816564D01*
X145218554Y-116811584D01*
X145134100Y-116727130D01*
X145100074Y-116664818D01*
X145105139Y-116594003D01*
X145147686Y-116537167D01*
X145213528Y-116512406D01*
X145329830Y-116503457D01*
X145329834Y-116503456D01*
X145335972Y-116502984D01*
X145526463Y-116449798D01*
X145593691Y-116415839D01*
X145663511Y-116402979D01*
X145729202Y-116429908D01*
G37*
%TD.AperFunction*%
%TA.AperFunction,Conductor*%
G36*
X114927012Y-122188359D02*
G01*
X114945325Y-122208017D01*
X114971739Y-122243261D01*
X114978919Y-122248642D01*
X114978920Y-122248643D01*
X115013565Y-122274608D01*
X115056080Y-122331467D01*
X115061413Y-122361074D01*
X115068475Y-122385123D01*
X115069865Y-122386328D01*
X115077548Y-122387999D01*
X115129669Y-122387999D01*
X115136490Y-122387629D01*
X115195207Y-122381252D01*
X115195505Y-122383998D01*
X115224446Y-122383940D01*
X115224684Y-122381745D01*
X115255780Y-122385123D01*
X115286866Y-122388500D01*
X115321223Y-122388500D01*
X115389344Y-122408502D01*
X115435837Y-122462158D01*
X115445941Y-122532432D01*
X115433532Y-122569537D01*
X115433963Y-122569722D01*
X115431718Y-122574961D01*
X115431637Y-122575202D01*
X115431534Y-122575389D01*
X115431532Y-122575394D01*
X115428567Y-122580787D01*
X115426706Y-122586654D01*
X115426705Y-122586656D01*
X115379590Y-122735180D01*
X115368765Y-122769306D01*
X115346719Y-122965851D01*
X115363268Y-123162934D01*
X115369976Y-123186326D01*
X115406803Y-123314757D01*
X115417783Y-123353050D01*
X115437893Y-123392179D01*
X115505350Y-123523435D01*
X115508187Y-123528956D01*
X115631035Y-123683953D01*
X115635728Y-123687947D01*
X115635729Y-123687948D01*
X115709919Y-123751088D01*
X115781650Y-123812136D01*
X115954294Y-123908624D01*
X116142392Y-123969740D01*
X116338777Y-123993158D01*
X116344912Y-123992686D01*
X116344914Y-123992686D01*
X116529830Y-123978457D01*
X116529834Y-123978456D01*
X116535972Y-123977984D01*
X116726463Y-123924798D01*
X116731967Y-123922018D01*
X116731969Y-123922017D01*
X116897495Y-123838404D01*
X116897497Y-123838403D01*
X116902996Y-123835625D01*
X117058847Y-123713861D01*
X117152489Y-123605376D01*
X117184049Y-123568813D01*
X117184050Y-123568811D01*
X117188078Y-123564145D01*
X117285769Y-123392179D01*
X117348197Y-123204513D01*
X117372985Y-123008295D01*
X117373323Y-122984060D01*
X117373331Y-122983523D01*
X117373331Y-122983520D01*
X117373380Y-122980000D01*
X117354080Y-122783167D01*
X117344319Y-122750835D01*
X117321918Y-122676642D01*
X117296916Y-122593831D01*
X117294027Y-122588397D01*
X117294023Y-122588388D01*
X117286188Y-122573654D01*
X117271868Y-122504117D01*
X117297415Y-122437876D01*
X117354720Y-122395963D01*
X117397439Y-122388500D01*
X117464340Y-122388500D01*
X117532461Y-122408502D01*
X117553435Y-122425405D01*
X118388550Y-123260520D01*
X118394404Y-123266785D01*
X118432439Y-123310385D01*
X118438652Y-123314751D01*
X118438658Y-123314757D01*
X118442645Y-123317559D01*
X118486877Y-123373093D01*
X118494062Y-123443725D01*
X118465764Y-123502439D01*
X118464000Y-123510548D01*
X118464000Y-124608000D01*
X118443998Y-124676121D01*
X118390342Y-124722614D01*
X118338000Y-124734000D01*
X117270115Y-124734000D01*
X117254876Y-124738475D01*
X117253671Y-124739865D01*
X117252000Y-124747548D01*
X117252000Y-124775438D01*
X117252337Y-124781953D01*
X117261894Y-124874057D01*
X117264788Y-124887456D01*
X117314381Y-125036107D01*
X117320555Y-125049286D01*
X117402788Y-125182173D01*
X117411824Y-125193574D01*
X117522429Y-125303986D01*
X117533840Y-125312998D01*
X117640161Y-125378535D01*
X117687654Y-125431307D01*
X117699078Y-125501379D01*
X117670804Y-125566503D01*
X117663140Y-125574890D01*
X117503435Y-125734595D01*
X117441123Y-125768621D01*
X117414340Y-125771500D01*
X116819757Y-125771500D01*
X116751636Y-125751498D01*
X116730739Y-125734673D01*
X116710107Y-125714077D01*
X116674998Y-125646548D01*
X116674236Y-125642178D01*
X116673276Y-125635672D01*
X116666514Y-125579797D01*
X116665602Y-125572258D01*
X116662919Y-125565157D01*
X116662278Y-125562548D01*
X116657815Y-125546238D01*
X116657050Y-125543702D01*
X116655743Y-125536216D01*
X116630056Y-125477700D01*
X116627565Y-125471596D01*
X116607673Y-125418952D01*
X116607672Y-125418951D01*
X116604987Y-125411844D01*
X116600683Y-125405581D01*
X116599446Y-125403215D01*
X116591201Y-125388403D01*
X116589868Y-125386149D01*
X116586815Y-125379195D01*
X116547913Y-125328498D01*
X116544041Y-125323168D01*
X116512161Y-125276780D01*
X116512156Y-125276775D01*
X116507857Y-125270519D01*
X116461329Y-125229064D01*
X116456054Y-125224084D01*
X115439855Y-124207885D01*
X117252000Y-124207885D01*
X117256475Y-124223124D01*
X117257865Y-124224329D01*
X117265548Y-124226000D01*
X117937885Y-124226000D01*
X117953124Y-124221525D01*
X117954329Y-124220135D01*
X117956000Y-124212452D01*
X117956000Y-123515115D01*
X117951525Y-123499876D01*
X117950135Y-123498671D01*
X117942452Y-123497000D01*
X117939562Y-123497000D01*
X117933047Y-123497337D01*
X117840943Y-123506894D01*
X117827544Y-123509788D01*
X117678893Y-123559381D01*
X117665714Y-123565555D01*
X117532827Y-123647788D01*
X117521426Y-123656824D01*
X117411014Y-123767429D01*
X117402002Y-123778840D01*
X117319996Y-123911880D01*
X117313849Y-123925061D01*
X117264509Y-124073814D01*
X117261642Y-124087190D01*
X117252328Y-124178097D01*
X117252000Y-124184514D01*
X117252000Y-124207885D01*
X115439855Y-124207885D01*
X114755405Y-123523435D01*
X114721379Y-123461123D01*
X114718500Y-123434340D01*
X114718500Y-122283583D01*
X114738502Y-122215462D01*
X114792158Y-122168969D01*
X114862432Y-122158865D01*
X114927012Y-122188359D01*
G37*
%TD.AperFunction*%
%TA.AperFunction,Conductor*%
G36*
X143807461Y-111708502D02*
G01*
X143828435Y-111725405D01*
X145739595Y-113636565D01*
X145773621Y-113698877D01*
X145776500Y-113725660D01*
X145776500Y-114480442D01*
X145756498Y-114548563D01*
X145702842Y-114595056D01*
X145632568Y-114605160D01*
X145590572Y-114591278D01*
X145558124Y-114573734D01*
X145558122Y-114573733D01*
X145552701Y-114570802D01*
X145363768Y-114512318D01*
X145357643Y-114511674D01*
X145357642Y-114511674D01*
X145173204Y-114492289D01*
X145173202Y-114492289D01*
X145167075Y-114491645D01*
X145084576Y-114499153D01*
X144976251Y-114509011D01*
X144976248Y-114509012D01*
X144970112Y-114509570D01*
X144964206Y-114511308D01*
X144964202Y-114511309D01*
X144892901Y-114532294D01*
X144780381Y-114565410D01*
X144774923Y-114568263D01*
X144774919Y-114568265D01*
X144704347Y-114605160D01*
X144605110Y-114657040D01*
X144450975Y-114780968D01*
X144442143Y-114791493D01*
X144383035Y-114830818D01*
X144345624Y-114836500D01*
X144243472Y-114836500D01*
X144175351Y-114816498D01*
X144128858Y-114762842D01*
X144118754Y-114692568D01*
X144122475Y-114675347D01*
X144159939Y-114546396D01*
X144159899Y-114532294D01*
X144152630Y-114529000D01*
X142557000Y-114529000D01*
X142488879Y-114508998D01*
X142442386Y-114455342D01*
X142431000Y-114403000D01*
X142431000Y-114002885D01*
X142939000Y-114002885D01*
X142943475Y-114018124D01*
X142944865Y-114019329D01*
X142952548Y-114021000D01*
X144146878Y-114021000D01*
X144160409Y-114017027D01*
X144161544Y-114009129D01*
X144120893Y-113869210D01*
X144114648Y-113854779D01*
X144038089Y-113725322D01*
X144028449Y-113712896D01*
X143922104Y-113606551D01*
X143909678Y-113596911D01*
X143780221Y-113520352D01*
X143765790Y-113514107D01*
X143619935Y-113471731D01*
X143607333Y-113469430D01*
X143578916Y-113467193D01*
X143573986Y-113467000D01*
X142957115Y-113467000D01*
X142941876Y-113471475D01*
X142940671Y-113472865D01*
X142939000Y-113480548D01*
X142939000Y-114002885D01*
X142431000Y-114002885D01*
X142431000Y-113485116D01*
X142426525Y-113469877D01*
X142425135Y-113468672D01*
X142417452Y-113467001D01*
X141796017Y-113467001D01*
X141791080Y-113467195D01*
X141762664Y-113469430D01*
X141750069Y-113471730D01*
X141604210Y-113514107D01*
X141589779Y-113520352D01*
X141460322Y-113596911D01*
X141447896Y-113606551D01*
X141341551Y-113712896D01*
X141331911Y-113725322D01*
X141255352Y-113854779D01*
X141249107Y-113869210D01*
X141206731Y-114015065D01*
X141204430Y-114027667D01*
X141202249Y-114055384D01*
X141176965Y-114121725D01*
X141119828Y-114163866D01*
X141076637Y-114171500D01*
X139343867Y-114171500D01*
X139275746Y-114151498D01*
X139229253Y-114097842D01*
X139218255Y-114055386D01*
X139216067Y-114027579D01*
X139216066Y-114027574D01*
X139215562Y-114021169D01*
X139213767Y-114014989D01*
X139185753Y-113918562D01*
X139185956Y-113847566D01*
X139217655Y-113794315D01*
X139540520Y-113471450D01*
X139546785Y-113465596D01*
X139562997Y-113451453D01*
X139590385Y-113427561D01*
X139627129Y-113375280D01*
X139631061Y-113369986D01*
X139665791Y-113325693D01*
X139670476Y-113319718D01*
X139673599Y-113312802D01*
X139674983Y-113310516D01*
X139683357Y-113295835D01*
X139684622Y-113293475D01*
X139688990Y-113287261D01*
X139696118Y-113268980D01*
X139712202Y-113227725D01*
X139714759Y-113221642D01*
X139716131Y-113218605D01*
X139741045Y-113163427D01*
X139742429Y-113155960D01*
X139743230Y-113153405D01*
X139747859Y-113137152D01*
X139748522Y-113134572D01*
X139751282Y-113127491D01*
X139752303Y-113119740D01*
X139759621Y-113064148D01*
X139760653Y-113057632D01*
X139760962Y-113055968D01*
X139772296Y-112994814D01*
X139768709Y-112932608D01*
X139768500Y-112925354D01*
X139768500Y-111814500D01*
X139788502Y-111746379D01*
X139842158Y-111699886D01*
X139894500Y-111688500D01*
X143739340Y-111688500D01*
X143807461Y-111708502D01*
G37*
%TD.AperFunction*%
%TA.AperFunction,Conductor*%
G36*
X129844532Y-101445177D02*
G01*
X129901368Y-101487724D01*
X129926179Y-101554244D01*
X129926500Y-101563233D01*
X129926500Y-102148908D01*
X129906498Y-102217029D01*
X129889673Y-102237926D01*
X129805448Y-102322298D01*
X129801608Y-102328528D01*
X129801607Y-102328529D01*
X129720255Y-102460507D01*
X129715698Y-102467899D01*
X129673263Y-102595837D01*
X129642765Y-102645265D01*
X126703434Y-105584596D01*
X126641122Y-105618622D01*
X126614339Y-105621501D01*
X126428366Y-105621501D01*
X126425508Y-105621764D01*
X126425499Y-105621764D01*
X126389996Y-105625026D01*
X126354938Y-105628247D01*
X126348560Y-105630246D01*
X126348559Y-105630246D01*
X126198550Y-105677256D01*
X126198548Y-105677257D01*
X126191301Y-105679528D01*
X126044619Y-105768361D01*
X125923361Y-105889619D01*
X125834528Y-106036301D01*
X125783247Y-106199938D01*
X125776500Y-106273365D01*
X125776501Y-106936634D01*
X125783247Y-107010062D01*
X125785246Y-107016440D01*
X125785246Y-107016441D01*
X125831720Y-107164738D01*
X125834528Y-107173699D01*
X125923361Y-107320381D01*
X126044619Y-107441639D01*
X126191301Y-107530472D01*
X126198548Y-107532743D01*
X126198550Y-107532744D01*
X126230901Y-107542882D01*
X126354938Y-107581753D01*
X126428365Y-107588500D01*
X126431263Y-107588500D01*
X126685665Y-107588499D01*
X126941634Y-107588499D01*
X126944492Y-107588236D01*
X126944501Y-107588236D01*
X126982299Y-107584763D01*
X127015062Y-107581753D01*
X127044547Y-107572513D01*
X127171450Y-107532744D01*
X127171452Y-107532743D01*
X127178699Y-107530472D01*
X127325381Y-107441639D01*
X127421259Y-107345761D01*
X127483571Y-107311735D01*
X127554386Y-107316800D01*
X127599449Y-107345761D01*
X127689557Y-107435869D01*
X127701426Y-107445176D01*
X127835012Y-107526079D01*
X127848757Y-107532285D01*
X127998647Y-107579257D01*
X128005420Y-107580613D01*
X128068287Y-107613602D01*
X128103339Y-107675342D01*
X128099448Y-107746232D01*
X128069774Y-107793255D01*
X126428434Y-109434596D01*
X126366122Y-109468621D01*
X126339339Y-109471501D01*
X126153366Y-109471501D01*
X126150508Y-109471764D01*
X126150499Y-109471764D01*
X126116619Y-109474877D01*
X126079938Y-109478247D01*
X126073560Y-109480246D01*
X126073559Y-109480246D01*
X125923550Y-109527256D01*
X125923548Y-109527257D01*
X125916301Y-109529528D01*
X125769619Y-109618361D01*
X125673741Y-109714239D01*
X125611429Y-109748265D01*
X125540614Y-109743200D01*
X125495551Y-109714239D01*
X125405443Y-109624131D01*
X125393574Y-109614824D01*
X125259988Y-109533921D01*
X125246243Y-109527715D01*
X125096356Y-109480744D01*
X125083306Y-109478131D01*
X125028414Y-109473087D01*
X125016876Y-109476475D01*
X125015671Y-109477865D01*
X125014000Y-109485548D01*
X125014000Y-110583000D01*
X124993998Y-110651121D01*
X124940342Y-110697614D01*
X124888000Y-110709000D01*
X123870116Y-110709000D01*
X123854877Y-110713475D01*
X123853672Y-110714865D01*
X123852001Y-110722548D01*
X123852001Y-110783705D01*
X123852264Y-110789454D01*
X123858132Y-110853315D01*
X123860743Y-110866351D01*
X123907715Y-111016243D01*
X123913924Y-111029995D01*
X123914069Y-111030234D01*
X123914121Y-111030432D01*
X123917049Y-111036916D01*
X123915968Y-111037404D01*
X123932245Y-111098865D01*
X123910431Y-111166427D01*
X123855553Y-111211470D01*
X123806290Y-111221500D01*
X121288911Y-111221500D01*
X121280342Y-111221208D01*
X121230223Y-111217791D01*
X121230219Y-111217791D01*
X121222647Y-111217275D01*
X121159685Y-111228264D01*
X121153195Y-111229221D01*
X121089758Y-111236898D01*
X121082649Y-111239584D01*
X121080078Y-111240216D01*
X121063772Y-111244676D01*
X121061204Y-111245451D01*
X121053716Y-111246758D01*
X121042918Y-111251498D01*
X120995212Y-111272439D01*
X120989105Y-111274931D01*
X120941642Y-111292866D01*
X120929344Y-111297513D01*
X120923083Y-111301816D01*
X120920717Y-111303053D01*
X120905937Y-111311280D01*
X120903652Y-111312631D01*
X120896695Y-111315685D01*
X120890675Y-111320305D01*
X120890669Y-111320308D01*
X120871333Y-111335146D01*
X120845998Y-111354587D01*
X120840668Y-111358459D01*
X120794280Y-111390339D01*
X120794275Y-111390344D01*
X120788019Y-111394643D01*
X120782968Y-111400313D01*
X120782966Y-111400314D01*
X120746565Y-111441170D01*
X120741584Y-111446446D01*
X118978435Y-113209595D01*
X118916123Y-113243621D01*
X118889340Y-113246500D01*
X118243233Y-113246500D01*
X118175112Y-113226498D01*
X118128619Y-113172842D01*
X118118515Y-113102568D01*
X118148009Y-113037988D01*
X118154138Y-113031405D01*
X121002658Y-110182885D01*
X123852000Y-110182885D01*
X123856475Y-110198124D01*
X123857865Y-110199329D01*
X123865548Y-110201000D01*
X124487885Y-110201000D01*
X124503124Y-110196525D01*
X124504329Y-110195135D01*
X124506000Y-110187452D01*
X124506000Y-109490116D01*
X124501525Y-109474877D01*
X124500135Y-109473672D01*
X124495706Y-109472709D01*
X124436685Y-109478132D01*
X124423649Y-109480743D01*
X124273757Y-109527715D01*
X124260012Y-109533921D01*
X124126426Y-109614824D01*
X124114557Y-109624131D01*
X124004131Y-109734557D01*
X123994824Y-109746426D01*
X123913921Y-109880012D01*
X123907715Y-109893757D01*
X123860744Y-110043644D01*
X123858131Y-110056694D01*
X123852266Y-110120521D01*
X123852000Y-110126309D01*
X123852000Y-110182885D01*
X121002658Y-110182885D01*
X129711405Y-101474138D01*
X129773717Y-101440112D01*
X129844532Y-101445177D01*
G37*
%TD.AperFunction*%
%TA.AperFunction,Conductor*%
G36*
X129579817Y-104816319D02*
G01*
X129636653Y-104858866D01*
X129659596Y-104917499D01*
X129659946Y-104917423D01*
X129660413Y-104919586D01*
X129661112Y-104921372D01*
X129661401Y-104924162D01*
X129661402Y-104924167D01*
X129662113Y-104931019D01*
X129664295Y-104937559D01*
X129708181Y-105069099D01*
X129716244Y-105093268D01*
X129720096Y-105099492D01*
X129720096Y-105099493D01*
X129757569Y-105160048D01*
X129806248Y-105238713D01*
X129927298Y-105359552D01*
X129933528Y-105363392D01*
X129933529Y-105363393D01*
X129954712Y-105376450D01*
X130072899Y-105449302D01*
X130235243Y-105503149D01*
X130242080Y-105503849D01*
X130242082Y-105503850D01*
X130283401Y-105508083D01*
X130336268Y-105513500D01*
X130933732Y-105513500D01*
X130936978Y-105513163D01*
X130936982Y-105513163D01*
X130971083Y-105509625D01*
X131036019Y-105502887D01*
X131168214Y-105458783D01*
X131191324Y-105451073D01*
X131191326Y-105451072D01*
X131198268Y-105448756D01*
X131343713Y-105358752D01*
X131348886Y-105353570D01*
X131348891Y-105353566D01*
X131401881Y-105300483D01*
X131464163Y-105266403D01*
X131491054Y-105263500D01*
X132133395Y-105263500D01*
X132201516Y-105283502D01*
X132245461Y-105331905D01*
X132266789Y-105373405D01*
X132303822Y-105445462D01*
X132308187Y-105453956D01*
X132431035Y-105608953D01*
X132435729Y-105612948D01*
X132435733Y-105612952D01*
X132505632Y-105672440D01*
X132544546Y-105731822D01*
X132545177Y-105802816D01*
X132507326Y-105862881D01*
X132443010Y-105892947D01*
X132386292Y-105888629D01*
X132281350Y-105855743D01*
X132268306Y-105853131D01*
X132213414Y-105848087D01*
X132201876Y-105851475D01*
X132200671Y-105852865D01*
X132199000Y-105860548D01*
X132199000Y-107794884D01*
X132203475Y-107810123D01*
X132204865Y-107811328D01*
X132209294Y-107812291D01*
X132268315Y-107806868D01*
X132281351Y-107804257D01*
X132431243Y-107757285D01*
X132444988Y-107751079D01*
X132578574Y-107670176D01*
X132590443Y-107660869D01*
X132680551Y-107570761D01*
X132742863Y-107536735D01*
X132813678Y-107541800D01*
X132858741Y-107570761D01*
X132927835Y-107639855D01*
X132961861Y-107702167D01*
X132956796Y-107772982D01*
X132927837Y-107818042D01*
X131636284Y-109109595D01*
X131573972Y-109143621D01*
X131547189Y-109146500D01*
X131449710Y-109146500D01*
X131381589Y-109126498D01*
X131335096Y-109072842D01*
X131324992Y-109002568D01*
X131354486Y-108937988D01*
X131360615Y-108931405D01*
X131446639Y-108845381D01*
X131535472Y-108698699D01*
X131586753Y-108535062D01*
X131593500Y-108461635D01*
X131593499Y-107948366D01*
X131593236Y-107945506D01*
X131593235Y-107945479D01*
X131592958Y-107942465D01*
X131606648Y-107872801D01*
X131655829Y-107821597D01*
X131682932Y-107810050D01*
X131688124Y-107808526D01*
X131689329Y-107807135D01*
X131691000Y-107799452D01*
X131691000Y-107102115D01*
X131686525Y-107086876D01*
X131685135Y-107085671D01*
X131677452Y-107084000D01*
X131055116Y-107084000D01*
X131039877Y-107088475D01*
X131038672Y-107089865D01*
X131037001Y-107097548D01*
X131037001Y-107158709D01*
X131037277Y-107164738D01*
X131020411Y-107233702D01*
X130968938Y-107282600D01*
X130911409Y-107296500D01*
X130336121Y-107296501D01*
X130278366Y-107296501D01*
X130275508Y-107296764D01*
X130275499Y-107296764D01*
X130239996Y-107300026D01*
X130204938Y-107303247D01*
X130198560Y-107305246D01*
X130198559Y-107305246D01*
X130048550Y-107352256D01*
X130048548Y-107352257D01*
X130041301Y-107354528D01*
X129894619Y-107443361D01*
X129878385Y-107459595D01*
X129816073Y-107493621D01*
X129789290Y-107496500D01*
X129213007Y-107496500D01*
X129144886Y-107476498D01*
X129098393Y-107422842D01*
X129088289Y-107352568D01*
X129105231Y-107305229D01*
X129181077Y-107179992D01*
X129187285Y-107166243D01*
X129234256Y-107016356D01*
X129236869Y-107003306D01*
X129242734Y-106939479D01*
X129243000Y-106933691D01*
X129243000Y-106877115D01*
X129238525Y-106861876D01*
X129237135Y-106860671D01*
X129229452Y-106859000D01*
X128207000Y-106859000D01*
X128138879Y-106838998D01*
X128092386Y-106785342D01*
X128081000Y-106733000D01*
X128081000Y-106557885D01*
X131037000Y-106557885D01*
X131041475Y-106573124D01*
X131042865Y-106574329D01*
X131050548Y-106576000D01*
X131672885Y-106576000D01*
X131688124Y-106571525D01*
X131689329Y-106570135D01*
X131691000Y-106562452D01*
X131691000Y-105865116D01*
X131686525Y-105849877D01*
X131685135Y-105848672D01*
X131680706Y-105847709D01*
X131621685Y-105853132D01*
X131608649Y-105855743D01*
X131458757Y-105902715D01*
X131445012Y-105908921D01*
X131311426Y-105989824D01*
X131299557Y-105999131D01*
X131189131Y-106109557D01*
X131179824Y-106121426D01*
X131098921Y-106255012D01*
X131092715Y-106268757D01*
X131045744Y-106418644D01*
X131043131Y-106431694D01*
X131037266Y-106495521D01*
X131037000Y-106501309D01*
X131037000Y-106557885D01*
X128081000Y-106557885D01*
X128081000Y-106477000D01*
X128101002Y-106408879D01*
X128154658Y-106362386D01*
X128207000Y-106351000D01*
X129224884Y-106351000D01*
X129240123Y-106346525D01*
X129241328Y-106345135D01*
X129242999Y-106337452D01*
X129242999Y-106276295D01*
X129242736Y-106270546D01*
X129236868Y-106206685D01*
X129234257Y-106193649D01*
X129187285Y-106043757D01*
X129181079Y-106030012D01*
X129100176Y-105896426D01*
X129090869Y-105884557D01*
X128980443Y-105774131D01*
X128968571Y-105764821D01*
X128831099Y-105681566D01*
X128783192Y-105629169D01*
X128771219Y-105559189D01*
X128798980Y-105493845D01*
X128807275Y-105484695D01*
X129446690Y-104845280D01*
X129509002Y-104811254D01*
X129579817Y-104816319D01*
G37*
%TD.AperFunction*%
M02*
