M48
; DRILL file {KiCad 6.0.6} date Wed 20 Jul 2022 10:16:24 AM CEST
; FORMAT={-:-/ absolute / metric / decimal}
; #@! TF.CreationDate,2022-07-20T10:16:24+02:00
; #@! TF.GenerationSoftware,Kicad,Pcbnew,6.0.6
; #@! TF.FileFunction,Plated,1,2,PTH
FMAT,2
METRIC
; #@! TA.AperFunction,Plated,PTH,ViaDrill
T1C0.600
; #@! TA.AperFunction,Plated,PTH,ComponentDrill
T2C1.000
; #@! TA.AperFunction,Plated,PTH,ComponentDrill
T3C1.100
%
G90
G05
T1
X102.26Y-114.205
X105.66Y-118.58
X105.66Y-121.58
X105.71Y-110.005
X105.785Y-127.28
X106.96Y-113.78
X107.785Y-126.98
X110.435Y-123.58
X112.885Y-123.63
X116.36Y-122.98
X116.485Y-124.68
X120.51Y-122.78
X121.224Y-114.391
X122.935Y-115.005
X124.685Y-108.205
X125.71Y-116.53
X125.76Y-114.505
X125.86Y-126.505
X126.235Y-96.43
X126.61Y-120.605
X127.21Y-99.205
X128.91Y-117.605
X129.41Y-127.58
X129.96Y-106.655
X131.11Y-114.355
X133.16Y-104.905
X133.585Y-112.905
X133.785Y-133.38
X134.085Y-117.18
X135.91Y-107.33
X137.585Y-112.13
X137.885Y-108.905
X140.285Y-112.38
X143.885Y-122.63
X145.16Y-115.505
X145.285Y-107.23
T2
X105.933Y-131.323
X105.933Y-133.863
X107.838Y-67.31
X107.838Y-69.85
X107.838Y-72.39
X107.838Y-74.93
X107.838Y-77.47
X107.838Y-80.01
X108.473Y-131.323
X108.473Y-133.863
X111.013Y-131.323
X111.013Y-133.863
X123.078Y-67.31
X123.078Y-69.85
X123.078Y-72.39
X123.078Y-74.93
X123.078Y-77.47
X123.078Y-80.01
T3
X133.585Y-92.23
X138.185Y-92.23
T0
M30
