%FSLAX45Y45*%
G04 Gerber Fmt 4.5, Leading zero omitted, Abs format (unit mm)*
G04 Created by KiCad (PCBNEW 6.0.6) date 2022-07-20 10:16:57*
%MOMM*%
%LPD*%
G01*
G04 APERTURE LIST*
%TA.AperFunction,Profile*%
%ADD10C,0.100000*%
%TD*%
%ADD11C,0.200000*%
%ADD12C,0.100000*%
G04 APERTURE END LIST*
D10*
X14732000Y-4648200D02*
X14732000Y-13868400D01*
X9677400Y-4648200D02*
X14732000Y-4648200D01*
X9677400Y-5359400D02*
X9677400Y-13868400D01*
X14097000Y-13868400D02*
X14732000Y-13868400D01*
X9677400Y-13868400D02*
X14097000Y-13868400D01*
X9677400Y-5359400D02*
X9677400Y-4648200D01*
D11*
D12*
X11922000Y-13158000D02*
X12022000Y-13258000D01*
X12022000Y-13158000D02*
X11922000Y-13258000D01*
X12362000Y-13158000D02*
X12462000Y-13258000D01*
X12462000Y-13158000D02*
X12362000Y-13258000D01*
D11*
X9930019Y-14183876D02*
X9930019Y-13983876D01*
X9977638Y-13983876D01*
X10006210Y-13993400D01*
X10025257Y-14012448D01*
X10034781Y-14031495D01*
X10044305Y-14069590D01*
X10044305Y-14098162D01*
X10034781Y-14136257D01*
X10025257Y-14155305D01*
X10006210Y-14174352D01*
X9977638Y-14183876D01*
X9930019Y-14183876D01*
X10130019Y-14183876D02*
X10130019Y-14050543D01*
X10130019Y-14088638D02*
X10139543Y-14069590D01*
X10149067Y-14060067D01*
X10168114Y-14050543D01*
X10187162Y-14050543D01*
X10253829Y-14183876D02*
X10253829Y-14050543D01*
X10253829Y-13983876D02*
X10244305Y-13993400D01*
X10253829Y-14002924D01*
X10263352Y-13993400D01*
X10253829Y-13983876D01*
X10253829Y-14002924D01*
X10377638Y-14183876D02*
X10358590Y-14174352D01*
X10349067Y-14155305D01*
X10349067Y-13983876D01*
X10482400Y-14183876D02*
X10463352Y-14174352D01*
X10453829Y-14155305D01*
X10453829Y-13983876D01*
X10710971Y-14183876D02*
X10710971Y-13983876D01*
X10777638Y-14126733D01*
X10844305Y-13983876D01*
X10844305Y-14183876D01*
X11025257Y-14183876D02*
X11025257Y-14079114D01*
X11015733Y-14060067D01*
X10996686Y-14050543D01*
X10958590Y-14050543D01*
X10939543Y-14060067D01*
X11025257Y-14174352D02*
X11006210Y-14183876D01*
X10958590Y-14183876D01*
X10939543Y-14174352D01*
X10930019Y-14155305D01*
X10930019Y-14136257D01*
X10939543Y-14117209D01*
X10958590Y-14107686D01*
X11006210Y-14107686D01*
X11025257Y-14098162D01*
X11120495Y-14050543D02*
X11120495Y-14250543D01*
X11120495Y-14060067D02*
X11139543Y-14050543D01*
X11177638Y-14050543D01*
X11196686Y-14060067D01*
X11206209Y-14069590D01*
X11215733Y-14088638D01*
X11215733Y-14145781D01*
X11206209Y-14164828D01*
X11196686Y-14174352D01*
X11177638Y-14183876D01*
X11139543Y-14183876D01*
X11120495Y-14174352D01*
X11301448Y-14164828D02*
X11310971Y-14174352D01*
X11301448Y-14183876D01*
X11291924Y-14174352D01*
X11301448Y-14164828D01*
X11301448Y-14183876D01*
X11301448Y-14060067D02*
X11310971Y-14069590D01*
X11301448Y-14079114D01*
X11291924Y-14069590D01*
X11301448Y-14060067D01*
X11301448Y-14079114D01*
D12*
X9572400Y-14463400D02*
X9672400Y-14563400D01*
X9672400Y-14463400D02*
X9572400Y-14563400D01*
D11*
X10034781Y-14603876D02*
X9920495Y-14603876D01*
X9977638Y-14603876D02*
X9977638Y-14403876D01*
X9958590Y-14432448D01*
X9939543Y-14451495D01*
X9920495Y-14461019D01*
X10120495Y-14584828D02*
X10130019Y-14594352D01*
X10120495Y-14603876D01*
X10110971Y-14594352D01*
X10120495Y-14584828D01*
X10120495Y-14603876D01*
X10253829Y-14403876D02*
X10272876Y-14403876D01*
X10291924Y-14413400D01*
X10301448Y-14422924D01*
X10310971Y-14441971D01*
X10320495Y-14480067D01*
X10320495Y-14527686D01*
X10310971Y-14565781D01*
X10301448Y-14584828D01*
X10291924Y-14594352D01*
X10272876Y-14603876D01*
X10253829Y-14603876D01*
X10234781Y-14594352D01*
X10225257Y-14584828D01*
X10215733Y-14565781D01*
X10206210Y-14527686D01*
X10206210Y-14480067D01*
X10215733Y-14441971D01*
X10225257Y-14422924D01*
X10234781Y-14413400D01*
X10253829Y-14403876D01*
X10444305Y-14403876D02*
X10463352Y-14403876D01*
X10482400Y-14413400D01*
X10491924Y-14422924D01*
X10501448Y-14441971D01*
X10510971Y-14480067D01*
X10510971Y-14527686D01*
X10501448Y-14565781D01*
X10491924Y-14584828D01*
X10482400Y-14594352D01*
X10463352Y-14603876D01*
X10444305Y-14603876D01*
X10425257Y-14594352D01*
X10415733Y-14584828D01*
X10406210Y-14565781D01*
X10396686Y-14527686D01*
X10396686Y-14480067D01*
X10406210Y-14441971D01*
X10415733Y-14422924D01*
X10425257Y-14413400D01*
X10444305Y-14403876D01*
X10634781Y-14403876D02*
X10653829Y-14403876D01*
X10672876Y-14413400D01*
X10682400Y-14422924D01*
X10691924Y-14441971D01*
X10701448Y-14480067D01*
X10701448Y-14527686D01*
X10691924Y-14565781D01*
X10682400Y-14584828D01*
X10672876Y-14594352D01*
X10653829Y-14603876D01*
X10634781Y-14603876D01*
X10615733Y-14594352D01*
X10606210Y-14584828D01*
X10596686Y-14565781D01*
X10587162Y-14527686D01*
X10587162Y-14480067D01*
X10596686Y-14441971D01*
X10606210Y-14422924D01*
X10615733Y-14413400D01*
X10634781Y-14403876D01*
X10787162Y-14603876D02*
X10787162Y-14470543D01*
X10787162Y-14489590D02*
X10796686Y-14480067D01*
X10815733Y-14470543D01*
X10844305Y-14470543D01*
X10863352Y-14480067D01*
X10872876Y-14499114D01*
X10872876Y-14603876D01*
X10872876Y-14499114D02*
X10882400Y-14480067D01*
X10901448Y-14470543D01*
X10930019Y-14470543D01*
X10949067Y-14480067D01*
X10958590Y-14499114D01*
X10958590Y-14603876D01*
X11053829Y-14603876D02*
X11053829Y-14470543D01*
X11053829Y-14489590D02*
X11063352Y-14480067D01*
X11082400Y-14470543D01*
X11110971Y-14470543D01*
X11130019Y-14480067D01*
X11139543Y-14499114D01*
X11139543Y-14603876D01*
X11139543Y-14499114D02*
X11149067Y-14480067D01*
X11168114Y-14470543D01*
X11196686Y-14470543D01*
X11215733Y-14480067D01*
X11225257Y-14499114D01*
X11225257Y-14603876D01*
X11615733Y-14394352D02*
X11444305Y-14651495D01*
X11872876Y-14403876D02*
X11891924Y-14403876D01*
X11910971Y-14413400D01*
X11920495Y-14422924D01*
X11930019Y-14441971D01*
X11939543Y-14480067D01*
X11939543Y-14527686D01*
X11930019Y-14565781D01*
X11920495Y-14584828D01*
X11910971Y-14594352D01*
X11891924Y-14603876D01*
X11872876Y-14603876D01*
X11853828Y-14594352D01*
X11844305Y-14584828D01*
X11834781Y-14565781D01*
X11825257Y-14527686D01*
X11825257Y-14480067D01*
X11834781Y-14441971D01*
X11844305Y-14422924D01*
X11853828Y-14413400D01*
X11872876Y-14403876D01*
X12025257Y-14584828D02*
X12034781Y-14594352D01*
X12025257Y-14603876D01*
X12015733Y-14594352D01*
X12025257Y-14584828D01*
X12025257Y-14603876D01*
X12158590Y-14403876D02*
X12177638Y-14403876D01*
X12196686Y-14413400D01*
X12206209Y-14422924D01*
X12215733Y-14441971D01*
X12225257Y-14480067D01*
X12225257Y-14527686D01*
X12215733Y-14565781D01*
X12206209Y-14584828D01*
X12196686Y-14594352D01*
X12177638Y-14603876D01*
X12158590Y-14603876D01*
X12139543Y-14594352D01*
X12130019Y-14584828D01*
X12120495Y-14565781D01*
X12110971Y-14527686D01*
X12110971Y-14480067D01*
X12120495Y-14441971D01*
X12130019Y-14422924D01*
X12139543Y-14413400D01*
X12158590Y-14403876D01*
X12291924Y-14403876D02*
X12415733Y-14403876D01*
X12349067Y-14480067D01*
X12377638Y-14480067D01*
X12396686Y-14489590D01*
X12406209Y-14499114D01*
X12415733Y-14518162D01*
X12415733Y-14565781D01*
X12406209Y-14584828D01*
X12396686Y-14594352D01*
X12377638Y-14603876D01*
X12320495Y-14603876D01*
X12301448Y-14594352D01*
X12291924Y-14584828D01*
X12510971Y-14603876D02*
X12549067Y-14603876D01*
X12568114Y-14594352D01*
X12577638Y-14584828D01*
X12596686Y-14556257D01*
X12606209Y-14518162D01*
X12606209Y-14441971D01*
X12596686Y-14422924D01*
X12587162Y-14413400D01*
X12568114Y-14403876D01*
X12530019Y-14403876D01*
X12510971Y-14413400D01*
X12501448Y-14422924D01*
X12491924Y-14441971D01*
X12491924Y-14489590D01*
X12501448Y-14508638D01*
X12510971Y-14518162D01*
X12530019Y-14527686D01*
X12568114Y-14527686D01*
X12587162Y-14518162D01*
X12596686Y-14508638D01*
X12606209Y-14489590D01*
X12777638Y-14470543D02*
X12777638Y-14603876D01*
X12730019Y-14394352D02*
X12682400Y-14537209D01*
X12806209Y-14537209D01*
X12872876Y-14403876D02*
X12872876Y-14441971D01*
X12949067Y-14403876D02*
X12949067Y-14441971D01*
X13244305Y-14680067D02*
X13234781Y-14670543D01*
X13215733Y-14641971D01*
X13206209Y-14622924D01*
X13196686Y-14594352D01*
X13187162Y-14546733D01*
X13187162Y-14508638D01*
X13196686Y-14461019D01*
X13206209Y-14432448D01*
X13215733Y-14413400D01*
X13234781Y-14384828D01*
X13244305Y-14375305D01*
X13310971Y-14422924D02*
X13320495Y-14413400D01*
X13339543Y-14403876D01*
X13387162Y-14403876D01*
X13406209Y-14413400D01*
X13415733Y-14422924D01*
X13425257Y-14441971D01*
X13425257Y-14461019D01*
X13415733Y-14489590D01*
X13301448Y-14603876D01*
X13425257Y-14603876D01*
X13663352Y-14603876D02*
X13663352Y-14403876D01*
X13749067Y-14603876D02*
X13749067Y-14499114D01*
X13739543Y-14480067D01*
X13720495Y-14470543D01*
X13691924Y-14470543D01*
X13672876Y-14480067D01*
X13663352Y-14489590D01*
X13872876Y-14603876D02*
X13853828Y-14594352D01*
X13844305Y-14584828D01*
X13834781Y-14565781D01*
X13834781Y-14508638D01*
X13844305Y-14489590D01*
X13853828Y-14480067D01*
X13872876Y-14470543D01*
X13901448Y-14470543D01*
X13920495Y-14480067D01*
X13930019Y-14489590D01*
X13939543Y-14508638D01*
X13939543Y-14565781D01*
X13930019Y-14584828D01*
X13920495Y-14594352D01*
X13901448Y-14603876D01*
X13872876Y-14603876D01*
X14053828Y-14603876D02*
X14034781Y-14594352D01*
X14025257Y-14575305D01*
X14025257Y-14403876D01*
X14206209Y-14594352D02*
X14187162Y-14603876D01*
X14149067Y-14603876D01*
X14130019Y-14594352D01*
X14120495Y-14575305D01*
X14120495Y-14499114D01*
X14130019Y-14480067D01*
X14149067Y-14470543D01*
X14187162Y-14470543D01*
X14206209Y-14480067D01*
X14215733Y-14499114D01*
X14215733Y-14518162D01*
X14120495Y-14537209D01*
X14291924Y-14594352D02*
X14310971Y-14603876D01*
X14349067Y-14603876D01*
X14368114Y-14594352D01*
X14377638Y-14575305D01*
X14377638Y-14565781D01*
X14368114Y-14546733D01*
X14349067Y-14537209D01*
X14320495Y-14537209D01*
X14301448Y-14527686D01*
X14291924Y-14508638D01*
X14291924Y-14499114D01*
X14301448Y-14480067D01*
X14320495Y-14470543D01*
X14349067Y-14470543D01*
X14368114Y-14480067D01*
X14444305Y-14680067D02*
X14453828Y-14670543D01*
X14472876Y-14641971D01*
X14482400Y-14622924D01*
X14491924Y-14594352D01*
X14501448Y-14546733D01*
X14501448Y-14508638D01*
X14491924Y-14461019D01*
X14482400Y-14432448D01*
X14472876Y-14413400D01*
X14453828Y-14384828D01*
X14444305Y-14375305D01*
X14806209Y-14680067D02*
X14796686Y-14670543D01*
X14777638Y-14641971D01*
X14768114Y-14622924D01*
X14758590Y-14594352D01*
X14749067Y-14546733D01*
X14749067Y-14508638D01*
X14758590Y-14461019D01*
X14768114Y-14432448D01*
X14777638Y-14413400D01*
X14796686Y-14384828D01*
X14806209Y-14375305D01*
X14882400Y-14470543D02*
X14882400Y-14603876D01*
X14882400Y-14489590D02*
X14891924Y-14480067D01*
X14910971Y-14470543D01*
X14939543Y-14470543D01*
X14958590Y-14480067D01*
X14968114Y-14499114D01*
X14968114Y-14603876D01*
X15091924Y-14603876D02*
X15072876Y-14594352D01*
X15063352Y-14584828D01*
X15053828Y-14565781D01*
X15053828Y-14508638D01*
X15063352Y-14489590D01*
X15072876Y-14480067D01*
X15091924Y-14470543D01*
X15120495Y-14470543D01*
X15139543Y-14480067D01*
X15149067Y-14489590D01*
X15158590Y-14508638D01*
X15158590Y-14565781D01*
X15149067Y-14584828D01*
X15139543Y-14594352D01*
X15120495Y-14603876D01*
X15091924Y-14603876D01*
X15215733Y-14470543D02*
X15291924Y-14470543D01*
X15244305Y-14403876D02*
X15244305Y-14575305D01*
X15253828Y-14594352D01*
X15272876Y-14603876D01*
X15291924Y-14603876D01*
X15510971Y-14470543D02*
X15510971Y-14670543D01*
X15510971Y-14480067D02*
X15530019Y-14470543D01*
X15568114Y-14470543D01*
X15587162Y-14480067D01*
X15596686Y-14489590D01*
X15606209Y-14508638D01*
X15606209Y-14565781D01*
X15596686Y-14584828D01*
X15587162Y-14594352D01*
X15568114Y-14603876D01*
X15530019Y-14603876D01*
X15510971Y-14594352D01*
X15720495Y-14603876D02*
X15701448Y-14594352D01*
X15691924Y-14575305D01*
X15691924Y-14403876D01*
X15882400Y-14603876D02*
X15882400Y-14499114D01*
X15872876Y-14480067D01*
X15853828Y-14470543D01*
X15815733Y-14470543D01*
X15796686Y-14480067D01*
X15882400Y-14594352D02*
X15863352Y-14603876D01*
X15815733Y-14603876D01*
X15796686Y-14594352D01*
X15787162Y-14575305D01*
X15787162Y-14556257D01*
X15796686Y-14537209D01*
X15815733Y-14527686D01*
X15863352Y-14527686D01*
X15882400Y-14518162D01*
X15949067Y-14470543D02*
X16025257Y-14470543D01*
X15977638Y-14403876D02*
X15977638Y-14575305D01*
X15987162Y-14594352D01*
X16006209Y-14603876D01*
X16025257Y-14603876D01*
X16168114Y-14594352D02*
X16149067Y-14603876D01*
X16110971Y-14603876D01*
X16091924Y-14594352D01*
X16082400Y-14575305D01*
X16082400Y-14499114D01*
X16091924Y-14480067D01*
X16110971Y-14470543D01*
X16149067Y-14470543D01*
X16168114Y-14480067D01*
X16177638Y-14499114D01*
X16177638Y-14518162D01*
X16082400Y-14537209D01*
X16349067Y-14603876D02*
X16349067Y-14403876D01*
X16349067Y-14594352D02*
X16330019Y-14603876D01*
X16291924Y-14603876D01*
X16272876Y-14594352D01*
X16263352Y-14584828D01*
X16253828Y-14565781D01*
X16253828Y-14508638D01*
X16263352Y-14489590D01*
X16272876Y-14480067D01*
X16291924Y-14470543D01*
X16330019Y-14470543D01*
X16349067Y-14480067D01*
X16425257Y-14680067D02*
X16434781Y-14670543D01*
X16453828Y-14641971D01*
X16463352Y-14622924D01*
X16472876Y-14594352D01*
X16482400Y-14546733D01*
X16482400Y-14508638D01*
X16472876Y-14461019D01*
X16463352Y-14432448D01*
X16453828Y-14413400D01*
X16434781Y-14384828D01*
X16425257Y-14375305D01*
M02*
