%TF.GenerationSoftware,KiCad,Pcbnew,6.0.6*%
%TF.CreationDate,2022-07-20T10:20:16+02:00*%
%TF.ProjectId,H_vfTimer,48e47666-5469-46d6-9572-2e6b69636164,rev?*%
%TF.SameCoordinates,Original*%
%TF.FileFunction,Paste,Top*%
%TF.FilePolarity,Positive*%
%FSLAX46Y46*%
G04 Gerber Fmt 4.6, Leading zero omitted, Abs format (unit mm)*
G04 Created by KiCad (PCBNEW 6.0.6) date 2022-07-20 10:20:16*
%MOMM*%
%LPD*%
G01*
G04 APERTURE LIST*
G04 Aperture macros list*
%AMRoundRect*
0 Rectangle with rounded corners*
0 $1 Rounding radius*
0 $2 $3 $4 $5 $6 $7 $8 $9 X,Y pos of 4 corners*
0 Add a 4 corners polygon primitive as box body*
4,1,4,$2,$3,$4,$5,$6,$7,$8,$9,$2,$3,0*
0 Add four circle primitives for the rounded corners*
1,1,$1+$1,$2,$3*
1,1,$1+$1,$4,$5*
1,1,$1+$1,$6,$7*
1,1,$1+$1,$8,$9*
0 Add four rect primitives between the rounded corners*
20,1,$1+$1,$2,$3,$4,$5,0*
20,1,$1+$1,$4,$5,$6,$7,0*
20,1,$1+$1,$6,$7,$8,$9,0*
20,1,$1+$1,$8,$9,$2,$3,0*%
G04 Aperture macros list end*
%ADD10R,0.500000X2.000000*%
%ADD11R,2.000000X1.700000*%
%ADD12R,1.550000X1.300000*%
%ADD13RoundRect,0.225000X0.225000X0.250000X-0.225000X0.250000X-0.225000X-0.250000X0.225000X-0.250000X0*%
%ADD14RoundRect,0.225000X-0.250000X0.225000X-0.250000X-0.225000X0.250000X-0.225000X0.250000X0.225000X0*%
%ADD15RoundRect,0.200000X0.200000X0.275000X-0.200000X0.275000X-0.200000X-0.275000X0.200000X-0.275000X0*%
%ADD16RoundRect,0.200000X0.275000X-0.200000X0.275000X0.200000X-0.275000X0.200000X-0.275000X-0.200000X0*%
%ADD17R,4.500000X2.000000*%
%ADD18RoundRect,0.218750X-0.218750X-0.256250X0.218750X-0.256250X0.218750X0.256250X-0.218750X0.256250X0*%
%ADD19RoundRect,0.200000X-0.275000X0.200000X-0.275000X-0.200000X0.275000X-0.200000X0.275000X0.200000X0*%
%ADD20R,0.550000X1.600000*%
%ADD21R,1.600000X0.550000*%
%ADD22RoundRect,0.218750X0.218750X0.256250X-0.218750X0.256250X-0.218750X-0.256250X0.218750X-0.256250X0*%
%ADD23RoundRect,0.225000X-0.225000X-0.250000X0.225000X-0.250000X0.225000X0.250000X-0.225000X0.250000X0*%
%ADD24RoundRect,0.200000X-0.200000X-0.275000X0.200000X-0.275000X0.200000X0.275000X-0.200000X0.275000X0*%
%ADD25RoundRect,0.230000X0.230000X0.375000X-0.230000X0.375000X-0.230000X-0.375000X0.230000X-0.375000X0*%
%ADD26RoundRect,0.150000X0.825000X0.150000X-0.825000X0.150000X-0.825000X-0.150000X0.825000X-0.150000X0*%
G04 APERTURE END LIST*
D10*
X120320000Y-129380000D03*
X121120000Y-129380000D03*
X121920000Y-129380000D03*
X122720000Y-129380000D03*
X123520000Y-129380000D03*
D11*
X117470000Y-134930000D03*
X126370000Y-134930000D03*
X126370000Y-129480000D03*
X117470000Y-129480000D03*
D12*
X144285000Y-49455000D03*
X136335000Y-49455000D03*
X144285000Y-53955000D03*
X136335000Y-53955000D03*
D13*
X107185000Y-106830000D03*
X105635000Y-106830000D03*
D14*
X130635000Y-103005000D03*
X130635000Y-104555000D03*
D15*
X133435000Y-130855000D03*
X131785000Y-130855000D03*
D16*
X121185000Y-103280000D03*
X121185000Y-101630000D03*
D15*
X128335000Y-106605000D03*
X126685000Y-106605000D03*
D17*
X106660000Y-102330000D03*
X115160000Y-102330000D03*
D16*
X130610000Y-109855000D03*
X130610000Y-108205000D03*
D15*
X126410000Y-110455000D03*
X124760000Y-110455000D03*
D18*
X115972500Y-126480000D03*
X114397500Y-126480000D03*
D19*
X136210000Y-123355000D03*
X136210000Y-125005000D03*
D15*
X140185000Y-125755000D03*
X138535000Y-125755000D03*
D13*
X116185000Y-106830000D03*
X114635000Y-106830000D03*
D12*
X136385000Y-131205000D03*
X144335000Y-131205000D03*
X136385000Y-135705000D03*
X144335000Y-135705000D03*
D19*
X138660000Y-105580000D03*
X138660000Y-107230000D03*
D20*
X117210000Y-112580000D03*
X116410000Y-112580000D03*
X115610000Y-112580000D03*
X114810000Y-112580000D03*
X114010000Y-112580000D03*
X113210000Y-112580000D03*
X112410000Y-112580000D03*
X111610000Y-112580000D03*
D21*
X110160000Y-114030000D03*
X110160000Y-114830000D03*
X110160000Y-115630000D03*
X110160000Y-116430000D03*
X110160000Y-117230000D03*
X110160000Y-118030000D03*
X110160000Y-118830000D03*
X110160000Y-119630000D03*
D20*
X111610000Y-121080000D03*
X112410000Y-121080000D03*
X113210000Y-121080000D03*
X114010000Y-121080000D03*
X114810000Y-121080000D03*
X115610000Y-121080000D03*
X116410000Y-121080000D03*
X117210000Y-121080000D03*
D21*
X118660000Y-119630000D03*
X118660000Y-118830000D03*
X118660000Y-118030000D03*
X118660000Y-117230000D03*
X118660000Y-116430000D03*
X118660000Y-115630000D03*
X118660000Y-114830000D03*
X118660000Y-114030000D03*
D22*
X121147500Y-105180000D03*
X119572500Y-105180000D03*
D23*
X118210000Y-124480000D03*
X119760000Y-124480000D03*
D24*
X131945000Y-106830000D03*
X133595000Y-106830000D03*
D15*
X137155000Y-58005000D03*
X135505000Y-58005000D03*
D25*
X139640000Y-115430000D03*
X140780000Y-116930000D03*
X139640000Y-116930000D03*
X140780000Y-115430000D03*
D26*
X142685000Y-118085000D03*
X142685000Y-116815000D03*
X142685000Y-115545000D03*
X142685000Y-114275000D03*
X137735000Y-114275000D03*
X137735000Y-115545000D03*
X137735000Y-116815000D03*
X137735000Y-118085000D03*
D15*
X112360000Y-126505000D03*
X110710000Y-126505000D03*
M02*
